Amstelvar-Italic-opsz-84.ufo
<glyph name="quotedbl" format="2">
  <advance width="913"/>
  <unicode hex="0022"/>
  <outline>
    <contour>
      <point x="290.53846153846155" y="964.0" type="line"/>
      <point x="304.53846153846155" y="1413.5384615384614" type="line" smooth="yes"/>
      <point x="306.4846153846154" y="1462.5384615384614"/>
      <point x="362.0769230769231" y="1558.0"/>
      <point x="425.0769230769231" y="1558.0" type="qcurve" smooth="yes"/>
      <point x="484.0769230769231" y="1558.0"/>
      <point x="522.5615384615385" y="1458.5923076923077"/>
      <point x="503.61538461538464" y="1413.5384615384614" type="qcurve" smooth="yes"/>
      <point x="316.15384615384613" y="964.0" type="line"/>
    </contour>
    <contour>
      <point x="660.5384615384615" y="964.0" type="line"/>
      <point x="674.5384615384615" y="1413.5384615384614" type="line" smooth="yes"/>
      <point x="676.4846153846154" y="1462.5384615384614"/>
      <point x="732.0769230769231" y="1558.0"/>
      <point x="795.0769230769231" y="1558.0" type="qcurve" smooth="yes"/>
      <point x="854.1307692307693" y="1558.0"/>
      <point x="892.5615384615385" y="1458.5923076923077"/>
      <point x="873.6153846153846" y="1413.5384615384614" type="qcurve" smooth="yes"/>
      <point x="686.1538461538462" y="964.0" type="line"/>
    </contour>
  </outline>
</glyph>
<glyph name="numbersign" format="2">
  <advance width="1235"/>
  <unicode hex="0023"/>
  <outline>
    <contour>
      <point x="83.72307692307692" y="483.94615384615383" type="line"/>
      <point x="124.93846153846154" y="620.0230769230769" type="line"/>
      <point x="1055.7846153846153" y="620.0230769230769" type="line"/>
      <point x="1014.5692307692308" y="483.94615384615383" type="line"/>
    </contour>
    <contour>
      <point x="182.5076923076923" y="862.8692307692307" type="line"/>
      <point x="223.72307692307692" y="998.9461538461538" type="line"/>
      <point x="1154.5692307692307" y="998.9461538461538" type="line"/>
      <point x="1113.3538461538462" y="862.8692307692307" type="line"/>
    </contour>
    <contour>
      <point x="174.0" y="15.376923076923077" type="line"/>
      <point x="688.9692307692308" y="1460.323076923077" type="line"/>
      <point x="729.3076923076923" y="1447.5153846153846" type="line"/>
      <point x="214.33846153846153" y="2.569230769230769" type="line"/>
    </contour>
    <contour>
      <point x="548.2076923076924" y="22.0" type="line"/>
      <point x="1063.176923076923" y="1466.946153846154" type="line"/>
      <point x="1102.5692307692307" y="1455.0846153846153" type="line"/>
      <point x="587.6" y="10.138461538461538" type="line"/>
    </contour>
  </outline>
</glyph>
<glyph name="parenright" format="2">
  <advance width="598"/>
  <unicode hex="0029"/>
  <outline>
    <contour>
      <point x="506.03076923076924" y="691.9461538461538" type="qcurve" smooth="yes"/>
      <point x="469.9769230769231" y="439.46153846153845"/>
      <point x="116.1923076923077" y="-37.53846153846154"/>
      <point x="-58.753846153846155" y="-153.53846153846155" type="qcurve"/>
      <point x="-79.01538461538462" y="-131.27692307692308" type="line"/>
      <point x="72.6076923076923" y="6.076923076923077"/>
      <point x="296.0076923076923" y="453.10769230769233"/>
      <point x="329.95384615384614" y="690.0538461538462" type="qcurve" smooth="yes"/>
      <point x="362.95384615384614" y="925.1076923076923"/>
      <point x="268.8538461538462" y="1384.2230769230769"/>
      <point x="160.01538461538462" y="1518.9538461538461" type="qcurve"/>
      <point x="185.97692307692307" y="1543.1076923076923" type="line"/>
      <point x="326.9769230769231" y="1427.1076923076923"/>
      <point x="541.9769230769231" y="952.4076923076923"/>
    </contour>
  </outline>
</glyph>
<glyph name="plus" format="2">
  <advance width="887"/>
  <unicode hex="002B"/>
  <outline>
    <contour>
      <point x="41.746153846153845" y="574.9230769230769" type="line"/>
      <point x="41.746153846153845" y="689.0769230769231" type="line"/>
      <point x="789.3692307692307" y="689.0769230769231" type="line"/>
      <point x="789.3692307692307" y="574.9230769230769" type="line"/>
    </contour>
    <contour>
      <point x="355.9" y="257.7153846153846" type="line"/>
      <point x="355.9" y="1006.2846153846153" type="line"/>
      <point x="474.2692307692308" y="1006.2846153846153" type="line"/>
      <point x="474.2692307692308" y="257.7153846153846" type="line"/>
    </contour>
  </outline>
</glyph>
<glyph name="comma" format="2">
  <advance width="546"/>
  <unicode hex="002C"/>
  <outline>
    <contour>
      <point x="0.7769230769230795" y="-238.52307692307693" type="line"/>
      <point x="51.34615384615385" y="-184.81538461538463"/>
      <point x="160.6153846153846" y="-58.3"/>
      <point x="185.34615384615384" y="-4.0846153846153825" type="qcurve"/>
      <point x="110.72307692307692" y="-5.976923076923075"/>
      <point x="29.99230769230769" y="57.50769230769231"/>
      <point x="29.99230769230769" y="116.34615384615384" type="qcurve" smooth="yes"/>
      <point x="29.99230769230769" y="160.93846153846152"/>
      <point x="95.12307692307692" y="228.69230769230768"/>
      <point x="147.55384615384617" y="228.69230769230768" type="qcurve" smooth="yes"/>
      <point x="198.82307692307694" y="228.69230769230768"/>
      <point x="276.3076923076923" y="149.56153846153848"/>
      <point x="276.3076923076923" y="74.2923076923077" type="qcurve" smooth="yes"/>
      <point x="276.3076923076923" y="-19.03076923076923"/>
      <point x="101.52307692307693" y="-206.51538461538462"/>
      <point x="9.200000000000003" y="-256.05384615384617" type="qcurve"/>
    </contour>
  </outline>
</glyph>
<glyph name="hyphen" format="2">
  <advance width="739"/>
  <unicode hex="002D"/>
  <outline>
    <contour>
      <point x="27.01538461538462" y="555.0538461538462" type="line"/>
      <point x="58.238461538461536" y="689.0769230769231" type="line"/>
      <point x="348.23846153846154" y="685.0769230769231" type="line"/>
      <point x="627.776923076923" y="689.0769230769231" type="line"/>
      <point x="596.5538461538462" y="555.0538461538462" type="line"/>
      <point x="317.0153846153846" y="559.0538461538462" type="line"/>
    </contour>
  </outline>
</glyph>
<glyph name="zero" format="2">
  <advance width="1000"/>
  <unicode hex="0030"/>
  <outline>
    <contour>
      <point x="68.88461538461539" y="778.1692307692308" type="qcurve" smooth="yes"/>
      <point x="139.2923076923077" y="1108.0307692307692"/>
      <point x="434.4" y="1512.4307692307693"/>
      <point x="654.6153846153846" y="1513.376923076923" type="qcurve" smooth="yes"/>
      <point x="852.2615384615385" y="1514.323076923077"/>
      <point x="1005.4230769230769" y="1055.3692307692309"/>
      <point x="935.1769230769231" y="731.2923076923076" type="qcurve" smooth="yes"/>
      <point x="868.5538461538462" y="421.2230769230769"/>
      <point x="583.4461538461538" y="-13.915384615384617"/>
      <point x="358.2307692307692" y="-13.915384615384617" type="qcurve" smooth="yes"/>
      <point x="160.26153846153846" y="-13.915384615384617"/>
      <point x="-0.684615384615384" y="449.1461538461538"/>
    </contour>
    <contour>
      <point x="227.66153846153847" y="804.6" type="qcurve" smooth="yes"/>
      <point x="171.55384615384617" y="485.11538461538464"/>
      <point x="232.93076923076922" y="36.12307692307692"/>
      <point x="384.53076923076924" y="36.12307692307692" type="qcurve" smooth="yes"/>
      <point x="536.776923076923" y="36.12307692307692"/>
      <point x="717.8846153846154" y="414.31538461538463"/>
      <point x="779.5076923076923" y="740.7538461538461" type="qcurve" smooth="yes"/>
      <point x="836.1846153846154" y="1046.3538461538462"/>
      <point x="768.2923076923076" y="1461.3923076923077"/>
      <point x="620.3692307692307" y="1461.3923076923077" type="qcurve" smooth="yes"/>
      <point x="460.44615384615383" y="1460.446153846154"/>
      <point x="283.39230769230767" y="1120.0384615384614"/>
    </contour>
  </outline>
</glyph>
<glyph name="one" format="2">
  <advance width="1000"/>
  <unicode hex="0031"/>
  <outline>
    <contour>
      <point x="298.1461538461539" y="-18.976923076923075" type="line"/>
      <point x="323.9307692307692" y="16.53076923076923"/>
      <point x="350.46923076923076" y="109.3923076923077"/>
      <point x="376.9846153846154" y="269.37692307692305" type="qcurve" smooth="yes"/>
      <point x="537.3153846153846" y="1072.8692307692309" type="line"/>
      <point x="591.0230769230769" y="1387.8" type="line"/>
      <point x="198.12307692307692" y="1163.7923076923078" type="line"/>
      <point x="174.26153846153846" y="1210.2384615384615" type="line"/>
      <point x="765.3153846153846" y="1528.4538461538461" type="line"/>
      <point x="787.6307692307693" y="1503.323076923077" type="line"/>
      <point x="766.0923076923077" y="1461.1615384615384"/>
      <point x="743.6384615384616" y="1352.0076923076922"/>
      <point x="730.1769230769231" y="1286.4307692307693" type="qcurve" smooth="yes"/>
      <point x="613.2" y="714.2692307692307" type="line"/>
      <point x="511.2230769230769" y="125.37692307692308" type="line"/>
      <point x="331.3" y="-33.05384615384615" type="line"/>
    </contour>
  </outline>
</glyph>
<glyph name="two" format="2">
  <advance width="1000"/>
  <unicode hex="0032"/>
  <outline>
    <contour>
      <point x="-80.93076923076923" y="11.676923076923076" type="qcurve"/>
      <point x="-102.43846153846154" y="33.58461538461539" type="line"/>
      <point x="31.292307692307695" y="161.93846153846152" type="line" smooth="yes"/>
      <point x="423.9230769230769" y="538.9538461538461"/>
      <point x="727.4461538461538" y="978.4538461538461"/>
      <point x="727.4461538461538" y="1188.5923076923077" type="qcurve" smooth="yes"/>
      <point x="727.4461538461538" y="1308.3538461538462"/>
      <point x="616.6384615384616" y="1415.0846153846153"/>
      <point x="501.3076923076923" y="1415.0846153846153" type="qcurve" smooth="yes"/>
      <point x="397.1461538461539" y="1415.0846153846153"/>
      <point x="218.5769230769231" y="1314.376923076923"/>
      <point x="160.5" y="1246.946153846154" type="qcurve"/>
      <point x="136.48461538461538" y="1261.0153846153846" type="line"/>
      <point x="203.80769230769232" y="1365.4"/>
      <point x="417.36923076923074" y="1523.376923076923"/>
      <point x="581.5846153846154" y="1523.376923076923" type="qcurve" smooth="yes"/>
      <point x="721.4153846153846" y="1523.376923076923"/>
      <point x="899.9" y="1365.8153846153846"/>
      <point x="899.9" y="1224.1153846153845" type="qcurve" smooth="yes"/>
      <point x="899.9" y="1015.4538461538461"/>
      <point x="391.4230769230769" y="463.1461538461539"/>
      <point x="129.3" y="222.91538461538462" type="qcurve"/>
      <point x="128.3" y="221.91538461538462" type="line"/>
      <point x="152.65384615384616" y="222.91538461538462"/>
      <point x="234.72307692307692" y="224.86153846153846"/>
      <point x="288.4076923076923" y="226.80769230769232" type="qcurve"/>
      <point x="430.62307692307695" y="193.96923076923076"/>
      <point x="572.8384615384615" y="161.18461538461537"/>
      <point x="715.0538461538462" y="128.34615384615384" type="qcurve"/>
      <point x="797.5076923076923" y="261.2846153846154" type="line"/>
      <point x="819.0615384615385" y="252.69230769230768" type="line"/>
      <point x="707.3615384615384" y="-26.215384615384615" type="line"/>
      <point x="516.376923076923" y="37.276923076923076"/>
      <point x="255.43846153846152" y="101.65384615384616"/>
      <point x="164.1769230769231" y="102.43846153846154" type="qcurve" smooth="yes"/>
      <point x="86.66153846153847" y="103.27692307692308"/>
      <point x="-28.93076923076923" y="57.08461538461538"/>
    </contour>
  </outline>
</glyph>
<glyph name="three" format="2">
  <advance width="1000"/>
  <unicode hex="0033"/>
  <outline>
    <contour>
      <point x="-28.77692307692308" y="183.81538461538463" type="qcurve" smooth="yes"/>
      <point x="-28.77692307692308" y="230.48461538461538"/>
      <point x="23.353846153846153" y="284.5846153846154"/>
      <point x="64.23846153846154" y="285.6615384615385" type="qcurve"/>
      <point x="80.61538461538461" y="284.6615384615385" type="line"/>
      <point x="80.46461503083583" y="262.9830726777222"/>
      <point x="80.4" y="242.42146957520092"/>
      <point x="80.4" y="222.23076923076923" type="qcurve" smooth="yes"/>
      <point x="80.4" y="141.83076923076925"/>
      <point x="219.2153846153846" y="18.853846153846156"/>
      <point x="319.0" y="18.853846153846156" type="qcurve" smooth="yes"/>
      <point x="485.61538461538464" y="18.853846153846156"/>
      <point x="683.4769230769231" y="233.74615384615385"/>
      <point x="683.4769230769231" y="435.0769230769231" type="qcurve" smooth="yes"/>
      <point x="683.4769230769231" y="604.1384615384616"/>
      <point x="534.723076923077" y="799.7384615384615"/>
      <point x="393.0" y="808.6538461538462" type="qcurve" smooth="yes"/>
      <point x="294.34615384615387" y="813.9230769230769" type="line"/>
      <point x="294.7769230769231" y="844.3692307692307" type="line"/>
      <point x="359.9153846153846" y="842.6923076923077" type="line" smooth="yes"/>
      <point x="514.5615384615385" y="838.6615384615385"/>
      <point x="732.9923076923077" y="1039.9692307692308"/>
      <point x="732.9923076923077" y="1187.9692307692308" type="qcurve" smooth="yes"/>
      <point x="732.9923076923077" y="1290.9692307692308"/>
      <point x="612.5307692307692" y="1427.4923076923078"/>
      <point x="513.5307692307692" y="1427.4923076923078" type="qcurve" smooth="yes"/>
      <point x="418.9153846153846" y="1427.4923076923078"/>
      <point x="250.66923076923078" y="1321.3"/>
      <point x="204.02307692307693" y="1247.2153846153847" type="qcurve"/>
      <point x="183.43846153846152" y="1262.0692307692307" type="line"/>
      <point x="237.73076923076923" y="1364.3153846153846"/>
      <point x="438.53076923076924" y="1514.9692307692308"/>
      <point x="584.5307692307692" y="1514.9692307692308" type="qcurve" smooth="yes"/>
      <point x="733.5307692307692" y="1514.9692307692308"/>
      <point x="902.0692307692308" y="1362.4307692307693"/>
      <point x="902.0692307692308" y="1230.8923076923077" type="qcurve" smooth="yes"/>
      <point x="902.0692307692308" y="1101.1923076923076"/>
      <point x="669.9076923076923" y="887.5692307692308"/>
      <point x="503.60769230769233" y="841.5923076923077" type="qcurve"/>
      <point x="502.60769230769233" y="834.6461538461539" type="line"/>
      <point x="649.8" y="814.8615384615384"/>
      <point x="851.6076923076923" y="633.5307692307692"/>
      <point x="851.6076923076923" y="476.7769230769231" type="qcurve" smooth="yes"/>
      <point x="851.6076923076923" y="292.5692307692308"/>
      <point x="516.4538461538461" y="-11.23846153846154"/>
      <point x="317.16923076923075" y="-11.23846153846154" type="qcurve" smooth="yes"/>
      <point x="142.43846153846152" y="-11.23846153846154"/>
      <point x="-28.77692307692308" y="103.79230769230769"/>
    </contour>
  </outline>
</glyph>
<glyph name="four" format="2">
  <advance width="1000"/>
  <unicode hex="0034"/>
  <outline>
    <contour>
      <point x="23.215384615384615" y="464.46153846153845" type="line"/>
      <point x="5.238461538461539" y="502.15384615384613" type="line"/>
      <point x="901.4384615384615" y="1532.2153846153847" type="line"/>
      <point x="921.9923076923077" y="1514.7615384615385" type="line"/>
      <point x="905.9076923076923" y="1470.0307692307692" type="line"/>
      <point x="742.6384615384616" y="513.376923076923" type="line"/>
      <point x="737.4230769230769" y="486.05384615384617" type="line"/>
      <point x="693.2923076923076" y="176.0" type="line"/>
      <point x="693.2923076923076" y="41.65384615384615" type="line"/>
      <point x="521.0230769230769" y="-16.023076923076925" type="line"/>
      <point x="500.4846153846154" y="14.915384615384617" type="line"/>
      <point x="587.8615384615384" y="487.7307692307692" type="line"/>
      <point x="595.9692307692308" y="513.376923076923" type="line"/>
      <point x="739.6461538461539" y="1296.6" type="line"/>
      <point x="91.16923076923078" y="557.1615384615385" type="line"/>
      <point x="95.16923076923078" y="547.1615384615385" type="line"/>
      <point x="671.2384615384616" y="540.5384615384615" type="line"/>
      <point x="923.3923076923077" y="540.5384615384615" type="line"/>
      <point x="906.3923076923077" y="463.46153846153845" type="line"/>
      <point x="660.2384615384616" y="457.03076923076924" type="line"/>
    </contour>
  </outline>
</glyph>
<glyph name="five" format="2">
  <advance width="1000"/>
  <unicode hex="0035"/>
  <outline>
    <contour>
      <point x="-43.215384615384615" y="189.7" type="qcurve" smooth="yes"/>
      <point x="-43.215384615384615" y="236.31538461538463"/>
      <point x="9.938461538461539" y="301.2846153846154"/>
      <point x="49.63846153846154" y="301.82307692307694" type="qcurve"/>
      <point x="65.31538461538462" y="300.60769230769233" type="line"/>
      <point x="65.31538461538462" y="230.3923076923077" type="line" smooth="yes"/>
      <point x="65.31538461538462" y="141.87692307692308"/>
      <point x="183.07692307692307" y="21.338461538461537"/>
      <point x="318.2153846153846" y="21.338461538461537" type="qcurve" smooth="yes"/>
      <point x="487.5923076923077" y="21.338461538461537"/>
      <point x="692.2692307692307" y="306.88461538461536"/>
      <point x="692.2692307692307" y="531.9153846153846" type="qcurve" smooth="yes"/>
      <point x="692.2692307692307" y="743.8153846153846"/>
      <point x="415.2230769230769" y="894.3846153846154"/>
      <point x="262.5769230769231" y="838.6538461538462" type="qcurve" smooth="yes"/>
      <point x="179.85384615384615" y="807.4384615384615" type="line"/>
      <point x="160.15384615384616" y="834.8615384615384" type="line"/>
      <point x="308.7692307692308" y="1467.0" type="line"/>
      <point x="340.7692307692308" y="1500.0" type="line"/>
      <point x="936.9307692307692" y="1500.0" type="line"/>
      <point x="913.5" y="1341.9769230769232" type="line"/>
      <point x="323.2692307692308" y="1341.9769230769232" type="line"/>
      <point x="312.2692307692308" y="1330.9769230769232" type="line"/>
      <point x="285.76153846153846" y="1225.1846153846154"/>
      <point x="205.16153846153847" y="913.2692307692307"/>
      <point x="187.76153846153846" y="840.6692307692308" type="qcurve"/>
      <point x="404.95384615384614" y="955.8076923076923" type="line"/>
      <point x="609.4384615384615" y="970.0"/>
      <point x="854.4230769230769" y="756.1076923076923"/>
      <point x="854.4230769230769" y="537.6153846153846" type="qcurve" smooth="yes"/>
      <point x="854.4230769230769" y="301.7846153846154"/>
      <point x="520.8846153846154" y="-10.753846153846155"/>
      <point x="305.5692307692308" y="-10.753846153846155" type="qcurve" smooth="yes"/>
      <point x="119.07692307692308" y="-10.753846153846155"/>
      <point x="-43.215384615384615" y="109.83846153846154"/>
    </contour>
  </outline>
</glyph>
<glyph name="six" format="2">
  <advance width="1000"/>
  <unicode hex="0036"/>
  <outline>
    <contour>
      <point x="46.91538461538462" y="471.0" type="qcurve" smooth="yes"/>
      <point x="73.0" y="838.0615384615385"/>
      <point x="601.0846153846154" y="1434.0"/>
      <point x="957.9692307692308" y="1551.0" type="qcurve"/>
      <point x="964.5307692307692" y="1525.8" type="line"/>
      <point x="688.0230769230769" y="1417.3384615384616"/>
      <point x="223.83076923076925" y="829.0"/>
      <point x="200.42307692307693" y="446.0" type="qcurve" smooth="yes"/>
      <point x="187.8" y="232.06923076923078"/>
      <point x="315.04615384615386" y="25.338461538461537"/>
      <point x="438.7230769230769" y="25.338461538461537" type="qcurve" smooth="yes"/>
      <point x="567.4769230769231" y="25.338461538461537"/>
      <point x="746.4" y="304.46153846153845"/>
      <point x="753.9692307692308" y="519.4615384615385" type="qcurve" smooth="yes"/>
      <point x="758.7" y="633.4615384615385"/>
      <point x="660.5076923076923" y="807.0615384615385"/>
      <point x="557.5076923076923" y="807.0615384615385" type="qcurve" smooth="yes"/>
      <point x="509.23846153846154" y="807.0615384615385"/>
      <point x="434.5692307692308" y="788.9307692307692"/>
      <point x="400.46153846153845" y="768.9307692307692" type="qcurve"/>
      <point x="386.46153846153845" y="785.8384615384615" type="line"/>
      <point x="431.0846153846154" y="814.376923076923"/>
      <point x="591.2" y="886.0"/>
      <point x="618.5923076923077" y="886.0" type="qcurve" smooth="yes"/>
      <point x="758.1" y="886.0"/>
      <point x="917.4230769230769" y="675.5692307692308"/>
      <point x="907.6923076923077" y="518.4615384615385" type="qcurve" smooth="yes"/>
      <point x="894.0153846153846" y="292.46153846153845"/>
      <point x="611.2307692307693" y="-17.53846153846154"/>
      <point x="398.53076923076924" y="-17.53846153846154" type="qcurve" smooth="yes"/>
      <point x="218.74615384615385" y="-17.53846153846154"/>
      <point x="31.400000000000002" y="251.40769230769232"/>
    </contour>
  </outline>
</glyph>
<glyph name="seven" format="2">
  <advance width="1000"/>
  <unicode hex="0037"/>
  <outline>
    <contour>
      <point x="167.03076923076924" y="1180.9307692307693" type="line"/>
      <point x="295.4846153846154" y="1500.0" type="line"/>
      <point x="1086.746153846154" y="1500.0" type="line"/>
      <point x="1095.2307692307693" y="1463.3538461538462" type="line"/>
      <point x="866.0538461538462" y="1204.7384615384615"/>
      <point x="430.2230769230769" y="427.23846153846154"/>
      <point x="323.46153846153845" y="6.153846153846153" type="qcurve"/>
      <point x="203.53076923076924" y="-21.592307692307692" type="line"/>
      <point x="184.07692307692307" y="11.723076923076924" type="line"/>
      <point x="333.7846153846154" y="436.9384615384615"/>
      <point x="749.9923076923077" y="1095.5461538461539"/>
      <point x="934.0538461538462" y="1318.0" type="qcurve"/>
      <point x="922.0538461538462" y="1332.0" type="line"/>
      <point x="287.9769230769231" y="1332.0" type="line"/>
      <point x="190.5" y="1180.9307692307693" type="line"/>
    </contour>
  </outline>
</glyph>
<glyph name="eight" format="2">
  <advance width="1000"/>
  <unicode hex="0038"/>
  <outline>
    <contour>
      <point x="-10.815384615384616" y="326.9230769230769" type="qcurve" smooth="yes"/>
      <point x="-10.815384615384616" y="494.9230769230769"/>
      <point x="229.8846153846154" y="726.5923076923077"/>
      <point x="435.34615384615387" y="815.7538461538461" type="qcurve"/>
      <point x="462.6615384615385" y="797.4384615384615" type="line"/>
      <point x="286.6615384615385" y="714.4384615384615"/>
      <point x="133.66923076923078" y="458.46153846153845"/>
      <point x="133.66923076923078" y="326.46153846153845" type="qcurve" smooth="yes"/>
      <point x="133.66923076923078" y="186.72307692307692"/>
      <point x="262.7769230769231" y="23.230769230769234"/>
      <point x="406.18461538461537" y="23.230769230769234" type="qcurve" smooth="yes"/>
      <point x="546.5615384615385" y="23.230769230769234"/>
      <point x="754.3461538461538" y="214.2076923076923"/>
      <point x="754.3461538461538" y="353.9384615384615" type="qcurve" smooth="yes"/>
      <point x="754.3461538461538" y="490.45384615384614"/>
      <point x="585.9692307692308" y="677.8923076923077"/>
      <point x="498.66923076923075" y="752.6538461538462" type="qcurve" smooth="yes"/>
      <point x="389.60769230769233" y="846.3384615384615"/>
      <point x="243.43076923076924" y="1019.8461538461538"/>
      <point x="243.43076923076924" y="1145.246153846154" type="qcurve" smooth="yes"/>
      <point x="243.43076923076924" y="1298.246153846154"/>
      <point x="467.1" y="1529.3"/>
      <point x="659.2846153846153" y="1529.3" type="qcurve" smooth="yes"/>
      <point x="774.0923076923077" y="1529.3"/>
      <point x="927.9" y="1396.923076923077"/>
      <point x="927.9" y="1290.923076923077" type="qcurve" smooth="yes"/>
      <point x="927.9" y="1161.923076923077"/>
      <point x="753.5769230769231" y="945.6"/>
      <point x="562.5769230769231" y="845.6" type="qcurve"/>
      <point x="544.2384615384616" y="866.9692307692308" type="line"/>
      <point x="703.2923076923076" y="969.7846153846153"/>
      <point x="790.3615384615384" y="1165.923076923077"/>
      <point x="790.3615384615384" y="1263.923076923077" type="qcurve" smooth="yes"/>
      <point x="790.3615384615384" y="1352.2230769230769"/>
      <point x="706.9307692307692" y="1492.9923076923078"/>
      <point x="616.3076923076923" y="1492.9923076923078" type="qcurve" smooth="yes"/>
      <point x="507.4769230769231" y="1492.9923076923078"/>
      <point x="376.66923076923075" y="1315.9307692307693"/>
      <point x="376.66923076923075" y="1191.923076923077" type="qcurve" smooth="yes"/>
      <point x="376.66923076923075" y="1100.923076923077"/>
      <point x="493.0153846153846" y="962.9230769230769"/>
      <point x="600.0153846153846" y="867.0" type="qcurve" smooth="yes"/>
      <point x="698.5538461538462" y="778.6461538461539"/>
      <point x="891.2846153846153" y="558.0769230769231"/>
      <point x="891.2846153846153" y="411.15384615384613" type="qcurve" smooth="yes"/>
      <point x="891.2846153846153" y="240.18461538461537"/>
      <point x="604.4" y="-10.076923076923077"/>
      <point x="373.2076923076923" y="-10.076923076923077" type="qcurve" smooth="yes"/>
      <point x="187.2076923076923" y="-10.076923076923077"/>
      <point x="-10.815384615384616" y="173.92307692307693"/>
    </contour>
  </outline>
</glyph>
<glyph name="nine" format="2">
  <advance width="1000"/>
  <unicode hex="0039"/>
  <outline>
    <contour>
      <point x="64.04615384615386" y="-49.02307692307693" type="qcurve"/>
      <point x="57.48461538461538" y="-25.715384615384615" type="line"/>
      <point x="403.0615384615385" y="117.75384615384615"/>
      <point x="787.776923076923" y="655.0"/>
      <point x="805.5076923076923" y="1038.0" type="qcurve" smooth="yes"/>
      <point x="812.4538461538461" y="1198.0"/>
      <point x="718.3230769230769" y="1476.6384615384616"/>
      <point x="572.8846153846154" y="1476.6384615384616" type="qcurve" smooth="yes"/>
      <point x="444.13076923076926" y="1476.6384615384616"/>
      <point x="268.9923076923077" y="1217.3846153846155"/>
      <point x="264.26153846153846" y="1029.823076923077" type="qcurve" smooth="yes"/>
      <point x="260.4769230769231" y="888.3846153846154"/>
      <point x="348.26153846153846" y="711.0"/>
      <point x="449.36923076923074" y="711.0" type="qcurve" smooth="yes"/>
      <point x="496.6923076923077" y="711.0"/>
      <point x="578.9307692307692" y="736.7"/>
      <point x="612.0923076923077" y="773.7307692307693" type="qcurve"/>
      <point x="624.2" y="756.8230769230769" type="line"/>
      <point x="588.0923076923077" y="709.3615384615384"/>
      <point x="471.5" y="635.8461538461538"/>
      <point x="403.4230769230769" y="635.8461538461538" type="qcurve" smooth="yes"/>
      <point x="253.5076923076923" y="635.8461538461538"/>
      <point x="97.96923076923076" y="844.3846153846154"/>
      <point x="107.7" y="1020.4153846153846" type="qcurve" smooth="yes"/>
      <point x="119.48461538461538" y="1229.3846153846155"/>
      <point x="407.94615384615383" y="1513.8384615384616"/>
      <point x="612.1307692307693" y="1513.8384615384616" type="qcurve" smooth="yes"/>
      <point x="799.4846153846154" y="1513.8384615384616"/>
      <point x="973.5846153846154" y="1208.9384615384615"/>
      <point x="962.8" y="1013.0" type="qcurve" smooth="yes"/>
      <point x="941.4461538461538" y="636.4769230769231"/>
      <point x="419.9846153846154" y="67.97692307692307"/>
    </contour>
  </outline>
</glyph>
<glyph name="semicolon" format="2">
  <advance width="586"/>
  <unicode hex="003B"/>
  <outline>
    <contour>
      <point x="166.98461538461538" y="829.0923076923077" type="qcurve" smooth="yes"/>
      <point x="166.98461538461538" y="875.5769230769231"/>
      <point x="232.63076923076923" y="945.2769230769231"/>
      <point x="284.11538461538464" y="945.2769230769231" type="qcurve" smooth="yes"/>
      <point x="335.6" y="945.2769230769231"/>
      <point x="402.1923076923077" y="875.5769230769231"/>
      <point x="402.1923076923077" y="829.0923076923077" type="qcurve" smooth="yes"/>
      <point x="402.1923076923077" y="780.7692307692307"/>
      <point x="335.6" y="711.0692307692308"/>
      <point x="284.11538461538464" y="711.0692307692308" type="qcurve" smooth="yes"/>
      <point x="232.63076923076923" y="711.0692307692308"/>
      <point x="166.98461538461538" y="780.7692307692307"/>
    </contour>
    <contour>
      <point x="12.907692307692308" y="-238.52307692307693" type="line"/>
      <point x="63.36923076923077" y="-184.81538461538463"/>
      <point x="172.42307692307693" y="-58.62307692307692"/>
      <point x="197.15384615384616" y="-4.515384615384615" type="qcurve"/>
      <point x="122.63846153846154" y="-6.407692307692308"/>
      <point x="42.06923076923077" y="56.96923076923077"/>
      <point x="42.06923076923077" y="115.7" type="qcurve" smooth="yes"/>
      <point x="42.06923076923077" y="160.18461538461537"/>
      <point x="107.03846153846155" y="227.72307692307692"/>
      <point x="159.36153846153846" y="227.72307692307692" type="qcurve" smooth="yes"/>
      <point x="210.52307692307693" y="227.72307692307692"/>
      <point x="287.7923076923077" y="148.80769230769232"/>
      <point x="287.7923076923077" y="73.75384615384615" type="qcurve" smooth="yes"/>
      <point x="287.7923076923077" y="-19.407692307692308"/>
      <point x="113.33076923076923" y="-206.51538461538462"/>
      <point x="21.22307692307693" y="-255.8923076923077" type="qcurve"/>
    </contour>
  </outline>
</glyph>
<glyph name="E" format="2">
  <advance width="1027"/>
  <unicode hex="0045"/>
  <outline>
    <contour>
      <point x="-100.42307692307692" y="0.0" type="line"/>
      <point x="-94.66923076923077" y="29.038461538461547" type="line"/>
      <point x="67.67692307692307" y="44.684615384615384" type="line"/>
      <point x="226.9" y="783.9461538461538" type="line"/>
      <point x="362.39230769230767" y="1454.7230769230769" type="line"/>
      <point x="205.34615384615384" y="1469.2615384615385" type="line"/>
      <point x="210.77692307692308" y="1500.0" type="line"/>
      <point x="1083.7" y="1500.0" type="line"/>
      <point x="1019.2076923076924" y="1178.4923076923078" type="line"/>
      <point x="988.3307692307692" y="1178.4923076923078" type="line"/>
      <point x="941.5923076923077" y="1465.2615384615385" type="line"/>
      <point x="556.7153846153847" y="1465.2615384615385" type="line"/>
      <point x="529.2846153846153" y="1447.1538461538462" type="line"/>
      <point x="388.73846153846154" y="784.5384615384615" type="line"/>
      <point x="235.94615384615383" y="52.10769230769232" type="line"/>
      <point x="262.2923076923077" y="32.30769230769231" type="line"/>
      <point x="697.7384615384615" y="32.30769230769231" type="line"/>
      <point x="907.0076923076923" y="351.5076923076923" type="line"/>
      <point x="936.9923076923077" y="351.5076923076923" type="line"/>
      <point x="826.7692307692307" y="0.0" type="line"/>
    </contour>
    <contour>
      <point x="297.4384615384615" y="789.2461538461539" type="line"/>
      <point x="304.13846153846157" y="822.0461538461539" type="line"/>
      <point x="702.9461538461538" y="829.0461538461539" type="line"/>
      <point x="813.9846153846154" y="988.9923076923077" type="line"/>
      <point x="844.5076923076923" y="988.9923076923077" type="line"/>
      <point x="759.5076923076923" y="585.1615384615385" type="line"/>
      <point x="729.5230769230769" y="585.1615384615385" type="line"/>
      <point x="693.7846153846153" y="781.1692307692308" type="line"/>
    </contour>
  </outline>
</glyph>
<glyph name="F" format="2">
  <advance width="907"/>
  <unicode hex="0046"/>
  <outline>
    <contour>
      <point x="-100.96153846153845" y="0.0" type="line"/>
      <point x="-95.2076923076923" y="29.038461538461547" type="line"/>
      <point x="66.24615384615385" y="44.684615384615384" type="line"/>
      <point x="222.36153846153846" y="766.623076923077" type="line"/>
      <point x="364.6923076923077" y="1453.7769230769231" type="line"/>
      <point x="204.4" y="1466.423076923077" type="line"/>
      <point x="210.77692307692308" y="1500.0" type="line"/>
      <point x="1046.7" y="1500.0" type="line"/>
      <point x="978.5923076923077" y="1168.4923076923078" type="line"/>
      <point x="950.5" y="1168.4923076923078" type="line"/>
      <point x="928.6538461538462" y="1465.2615384615385" type="line"/>
      <point x="572.3692307692307" y="1465.8" type="line"/>
      <point x="531.6384615384616" y="1454.3153846153846" type="line"/>
      <point x="385.2" y="766.623076923077" type="line"/>
      <point x="233.97692307692307" y="49.14615384615385" type="line"/>
      <point x="424.10769230769233" y="29.038461538461547" type="line"/>
      <point x="418.3538461538462" y="0.0" type="line"/>
    </contour>
    <contour>
      <point x="311.84615384615387" y="763.1923076923077" type="line"/>
      <point x="318.6" y="799.9076923076923" type="line"/>
      <point x="682.4307692307692" y="803.123076923077" type="line"/>
      <point x="785.2769230769231" y="976.4230769230769" type="line"/>
      <point x="815.2615384615385" y="976.4230769230769" type="line"/>
      <point x="726.1538461538462" y="551.1076923076923" type="line"/>
      <point x="696.1692307692308" y="551.1076923076923" type="line"/>
      <point x="673.623076923077" y="759.9769230769231" type="line"/>
    </contour>
  </outline>
</glyph>
<glyph name="L" format="2">
  <advance width="1020"/>
  <unicode hex="004C"/>
  <outline>
    <contour>
      <point x="-100.04615384615384" y="0.0" type="line"/>
      <point x="-94.77692307692307" y="29.038461538461547" type="line"/>
      <point x="67.16153846153847" y="44.415384615384625" type="line"/>
      <point x="220.43846153846152" y="754.0" type="line"/>
      <point x="364.7153846153846" y="1453.2384615384615" type="line"/>
      <point x="204.4" y="1466.423076923077" type="line"/>
      <point x="210.72307692307692" y="1499.946153846154" type="line"/>
      <point x="725.9538461538461" y="1499.946153846154" type="line"/>
      <point x="719.6307692307693" y="1466.423076923077" type="line"/>
      <point x="531.5538461538462" y="1453.2384615384615" type="line"/>
      <point x="383.2769230769231" y="754.0" type="line"/>
      <point x="233.05384615384617" y="44.16923076923078" type="line"/>
      <point x="281.0846153846154" y="32.30769230769231" type="line"/>
      <point x="690.7230769230769" y="32.30769230769231" type="line"/>
      <point x="932.0384615384615" y="380.73846153846154" type="line"/>
      <point x="964.5076923076923" y="380.73846153846154" type="line"/>
      <point x="835.376923076923" y="0.0" type="line"/>
    </contour>
  </outline>
</glyph>
<glyph name="N" format="2">
  <advance width="1250"/>
  <unicode hex="004E"/>
  <outline>
    <contour>
      <point x="-110.42307692307692" y="0.0" type="line"/>
      <point x="-105.2076923076923" y="29.038461538461547" type="line"/>
      <point x="85.11538461538461" y="51.2" type="line"/>
      <point x="232.7153846153846" y="753.0538461538462" type="line"/>
      <point x="377.9384615384615" y="1454.7230769230769" type="line"/>
      <point x="194.93846153846152" y="1466.423076923077" type="line"/>
      <point x="201.31538461538463" y="1500.0" type="line"/>
      <point x="547.223076923077" y="1500.0" type="line"/>
      <point x="722.1307692307693" y="831.3538461538461" type="line"/>
      <point x="882.1538461538462" y="218.0076923076923" type="line"/>
      <point x="996.7538461538461" y="755.8923076923077" type="line"/>
      <point x="1137.3" y="1449.0461538461539" type="line"/>
      <point x="919.2692307692307" y="1466.423076923077" type="line"/>
      <point x="925.8076923076924" y="1500.0" type="line"/>
      <point x="1376.823076923077" y="1500.0" type="line"/>
      <point x="1370.2846153846153" y="1466.423076923077" type="line"/>
      <point x="1175.3384615384616" y="1449.0461538461539" type="line"/>
      <point x="1029.9" y="753.0538461538462" type="line"/>
      <point x="875.1153846153846" y="0.0" type="line"/>
      <point x="774.5230769230769" y="0.0" type="line"/>
      <point x="566.9923076923077" y="794.3615384615384" type="line"/>
      <point x="408.9230769230769" y="1436.8076923076924" type="line"/>
      <point x="262.96923076923076" y="741.7" type="line"/>
      <point x="125.04615384615386" y="51.2" type="line"/>
      <point x="344.4307692307692" y="29.038461538461547" type="line"/>
      <point x="339.2153846153846" y="0.0" type="line"/>
    </contour>
  </outline>
</glyph>
<glyph name="Q" format="2">
  <advance width="1326"/>
  <unicode hex="0051"/>
  <outline>
    <contour>
      <point x="86" y="825" type="qcurve" smooth="yes"/>
      <point x="188" y="1186"/>
      <point x="669" y="1563"/>
      <point x="940" y="1515" type="qcurve" smooth="yes"/>
      <point x="1167" y="1476"/>
      <point x="1348" y="1043"/>
      <point x="1243" y="669" type="qcurve" smooth="yes"/>
      <point x="1141" y="306"/>
      <point x="686" y="-62"/>
      <point x="415" y="-15" type="qcurve" smooth="yes"/>
      <point x="188" y="24"/>
      <point x="-19" y="452"/>
    </contour>
    <contour>
      <point x="254" y="783" type="qcurve" smooth="yes"/>
      <point x="160" y="438"/>
      <point x="260" y="60"/>
      <point x="429" y="28" type="qcurve" smooth="yes"/>
      <point x="623" y="-8"/>
      <point x="972" y="334"/>
      <point x="1074" y="711" type="qcurve" smooth="yes"/>
      <point x="1168" y="1056"/>
      <point x="1079" y="1442"/>
      <point x="910" y="1472" type="qcurve" smooth="yes"/>
      <point x="716" y="1507"/>
      <point x="357" y="1160"/>
    </contour>
    <contour>
      <point x="-36" y="-231" type="line"/>
      <point x="1" y="-182"/>
      <point x="142" y="-82"/>
      <point x="229" y="-55" type="qcurve"/>
      <point x="307" y="-22"/>
      <point x="479" y="104"/>
      <point x="528" y="169" type="qcurve" smooth="yes"/>
      <point x="530" y="172"/>
      <point x="534" y="177"/>
      <point x="536" y="180" type="qcurve"/>
      <point x="544" y="176"/>
      <point x="554" y="169"/>
      <point x="560" y="165" type="qcurve"/>
      <point x="559" y="162"/>
      <point x="555" y="157"/>
      <point x="553" y="153" type="qcurve" smooth="yes"/>
      <point x="503" y="77"/>
      <point x="353" y="-37"/>
      <point x="280" y="-72" type="qcurve"/>
      <point x="652" y="-215" type="line" smooth="yes"/>
      <point x="809" y="-275"/>
      <point x="968" y="-229"/>
      <point x="1039" y="-140" type="qcurve"/>
      <point x="1063" y="-156" type="line"/>
      <point x="1008" y="-250"/>
      <point x="849" y="-370"/>
      <point x="752" y="-393" type="qcurve"/>
      <point x="225" y="-190" type="line"/>
      <point x="160" y="-166"/>
      <point x="48" y="-187"/>
      <point x="-19" y="-254" type="qcurve"/>
    </contour>
  </outline>
</glyph>
<glyph name="X" format="2">
  <advance width="1115"/>
  <unicode hex="0058"/>
  <outline>
    <contour>
      <point x="-205.77692307692308" y="0.0" type="line"/>
      <point x="-200.56153846153848" y="29.038461538461547" type="line"/>
      <point x="-22.63846153846154" y="51.2" type="line"/>
      <point x="544.6307692307693" y="830.0769230769231" type="line"/>
      <point x="578.2846153846153" y="830.0769230769231" type="line"/>
      <point x="1028.8923076923077" y="1451.3692307692309" type="line"/>
      <point x="835.9923076923077" y="1466.423076923077" type="line"/>
      <point x="842.3692307692307" y="1500.0" type="line"/>
      <point x="1265.4692307692308" y="1500.0" type="line"/>
      <point x="1259.0923076923077" y="1466.423076923077" type="line"/>
      <point x="1072.1692307692308" y="1450.1538461538462" type="line"/>
      <point x="590.7923076923078" y="788.223076923077" type="line"/>
      <point x="557.1923076923077" y="788.223076923077" type="line"/>
      <point x="25.369230769230768" y="49.03846153846155" type="line"/>
      <point x="222.0" y="29.038461538461547" type="line"/>
      <point x="216.7846153846154" y="0.0" type="line"/>
    </contour>
    <contour>
      <point x="146.75384615384615" y="1465.476923076923" type="line"/>
      <point x="153.13076923076923" y="1500.0" type="line"/>
      <point x="581.3615384615384" y="1500.0" type="line"/>
      <point x="574.9846153846154" y="1465.476923076923" type="line"/>
      <point x="435.2307692307692" y="1454.7769230769231" type="line"/>
      <point x="623.2538461538461" y="867.0846153846154" type="line"/>
      <point x="891.5153846153846" y="44.57692307692308" type="line"/>
      <point x="1014.3461538461538" y="29.038461538461547" type="line"/>
      <point x="1009.1307692307693" y="0.0" type="line"/>
      <point x="565.2769230769231" y="0.0" type="line"/>
      <point x="570.4923076923077" y="29.038461538461547" type="line"/>
      <point x="719.8153846153846" y="44.57692307692308" type="line"/>
      <point x="499.25384615384615" y="744.0307692307692" type="line"/>
      <point x="262.5846153846154" y="1454.8846153846155" type="line"/>
    </contour>
  </outline>
</glyph>
<glyph name="Z" format="2">
  <advance width="954"/>
  <unicode hex="005A"/>
  <outline>
    <contour>
      <point x="-102.57692307692307" y="0.0" type="line"/>
      <point x="-108.79230769230769" y="56.04615384615385" type="line"/>
      <point x="409.6615384615385" y="802.0307692307692" type="line"/>
      <point x="863.5846153846154" y="1456.8307692307692" type="line"/>
      <point x="856.4230769230769" y="1465.2615384615385" type="line"/>
      <point x="368.7" y="1465.2615384615385" type="line"/>
      <point x="180.46153846153845" y="1122.7615384615385" type="line"/>
      <point x="147.1" y="1122.7615384615385" type="line"/>
      <point x="225.04615384615386" y="1500.0" type="line"/>
      <point x="1050.0615384615385" y="1500.0" type="line"/>
      <point x="1040.1692307692308" y="1447.7923076923078" type="line"/>
      <point x="523.3615384615384" y="703.4846153846154" type="line"/>
      <point x="63.11538461538461" y="39.7923076923077" type="line"/>
      <point x="65.54615384615384" y="32.30769230769231" type="line"/>
      <point x="606.4076923076923" y="32.30769230769231" type="line"/>
      <point x="832.0153846153846" y="350.3538461538462" type="line"/>
      <point x="861.9461538461538" y="350.3538461538462" type="line"/>
      <point x="745.7923076923078" y="0.0" type="line"/>
    </contour>
  </outline>
</glyph>
<glyph name="underscore" format="2">
  <advance width="1197"/>
  <unicode hex="005F"/>
  <outline>
    <contour>
      <point x="-197.98461538461538" y="-522.5769230769231" type="line"/>
      <point x="-186.12307692307692" y="-436.61538461538464" type="line"/>
      <point x="372.6461538461539" y="-436.9384615384615" type="line"/>
      <point x="1055.876923076923" y="-436.61538461538464" type="line"/>
      <point x="1044.0153846153846" y="-522.5769230769231" type="line"/>
      <point x="356.7846153846154" y="-526.9" type="line"/>
    </contour>
  </outline>
</glyph>
<glyph name="grave" format="2">
  <advance width="903"/>
  <unicode hex="0060"/>
  <outline>
    <contour>
      <point x="353.9076923076923" y="1221.323076923077" type="qcurve" smooth="yes"/>
      <point x="593.7153846153847" y="1035.923076923077" type="line"/>
      <point x="616.1384615384616" y="1054.3461538461538" type="line"/>
      <point x="456.0615384615385" y="1302.6153846153845" type="line" smooth="yes"/>
      <point x="441.46923076923076" y="1324.3692307692309"/>
      <point x="402.55384615384617" y="1348.9846153846154"/>
      <point x="382.53076923076924" y="1348.9846153846154" type="qcurve" smooth="yes"/>
      <point x="356.7230769230769" y="1348.9846153846154"/>
      <point x="319.0230769230769" y="1314.123076923077"/>
      <point x="319.0230769230769" y="1287.5846153846155" type="qcurve" smooth="yes"/>
      <point x="319.0230769230769" y="1272.5076923076922"/>
      <point x="337.04615384615386" y="1234.1307692307691"/>
    </contour>
  </outline>
</glyph>
<glyph name="a" format="2">
  <advance width="920"/>
  <unicode hex="0061"/>
  <outline>
    <contour>
      <point x="-12.984615384615381" y="249.8923076923077" type="qcurve" smooth="yes"/>
      <point x="-12.984615384615381" y="536.6461538461539"/>
      <point x="386.95384615384614" y="939.9076923076923"/>
      <point x="561.0" y="939.9076923076923" type="qcurve" smooth="yes"/>
      <point x="608.3307692307692" y="939.9076923076923"/>
      <point x="673.7384615384615" y="912.7153846153847"/>
      <point x="694.6846153846154" y="879.9538461538461" type="qcurve"/>
      <point x="771.7923076923078" y="940.5230769230769" type="line"/>
      <point x="792.2461538461539" y="933.9" type="line"/>
      <point x="827.8384615384615" y="861.6" type="line"/>
      <point x="717.0538461538462" y="400.11538461538464" type="line"/>
      <point x="674.7538461538461" y="195.96923076923076" type="line"/>
      <point x="667.1307692307693" y="125.13076923076923"/>
      <point x="679.0769230769231" y="37.42307692307693"/>
      <point x="704.0769230769231" y="-6.599999999999998" type="qcurve"/>
      <point x="678.2153846153847" y="-17.515384615384615" type="line"/>
      <point x="638.5923076923077" y="3.1000000000000014"/>
      <point x="550.3076923076923" y="112.86923076923077"/>
      <point x="523.223076923077" y="187.84615384615384" type="qcurve"/>
      <point x="456.25384615384615" y="95.03076923076924"/>
      <point x="280.9076923076923" y="-5.269230769230769"/>
      <point x="185.30769230769232" y="-5.269230769230769" type="qcurve" smooth="yes"/>
      <point x="86.28461538461539" y="-5.269230769230769"/>
      <point x="-12.984615384615381" y="133.3230769230769"/>
    </contour>
    <contour>
      <point x="130.25384615384615" y="281.0769230769231" type="qcurve" smooth="yes"/>
      <point x="130.25384615384615" y="176.74615384615385"/>
      <point x="204.66153846153847" y="60.769230769230774"/>
      <point x="276.5" y="60.769230769230774" type="qcurve" smooth="yes"/>
      <point x="373.68461538461537" y="60.769230769230774"/>
      <point x="543.5923076923077" y="237.36153846153846"/>
      <point x="589.0538461538462" y="434.2307692307692" type="qcurve" smooth="yes"/>
      <point x="674.6" y="841.8230769230769" type="line"/>
      <point x="664.9769230769231" y="870.4692307692308"/>
      <point x="609.7923076923078" y="910.6615384615385"/>
      <point x="559.3307692307692" y="910.6615384615385" type="qcurve" smooth="yes"/>
      <point x="392.44615384615383" y="910.6615384615385"/>
      <point x="130.25384615384615" y="506.5076923076923"/>
    </contour>
  </outline>
</glyph>
<glyph name="g" format="2">
  <advance width="975"/>
  <unicode hex="0067"/>
  <outline>
    <contour>
      <point x="-14.146153846153844" y="267.37692307692305" type="qcurve" smooth="yes"/>
      <point x="-14.146153846153844" y="526.6923076923077"/>
      <point x="408.39230769230767" y="940.5307692307692"/>
      <point x="582.4384615384615" y="940.5307692307692" type="qcurve" smooth="yes"/>
      <point x="628.8230769230769" y="940.5307692307692"/>
      <point x="702.6153846153846" y="909.876923076923"/>
      <point x="728.0769230769231" y="875.4384615384615" type="qcurve"/>
      <point x="806.4769230769231" y="946.0076923076923" type="line"/>
      <point x="824.0923076923077" y="945.0615384615385" type="line"/>
      <point x="872.9" y="857.1538461538462" type="line"/>
      <point x="796.7615384615385" y="581.376923076923" type="line" smooth="yes"/>
      <point x="773.223076923077" y="378.4230769230769"/>
      <point x="698.5153846153846" y="64.00769230769231"/>
      <point x="644.7538461538461" y="-55.13076923076923" type="qcurve" smooth="yes"/>
      <point x="556.2692307692307" y="-253.64615384615385"/>
      <point x="236.59230769230768" y="-478.1923076923077"/>
      <point x="109.9" y="-478.1923076923077" type="qcurve"/>
      <point x="-50.530769230769224" y="-419.2692307692308" type="line"/>
      <point x="-39.06923076923077" y="-392.46923076923076" type="line"/>
      <point x="94.78461538461539" y="-391.87692307692305" type="line" smooth="yes"/>
      <point x="280.9307692307692" y="-391.44615384615383"/>
      <point x="554.4" y="-139.35384615384615"/>
      <point x="599.5615384615385" y="210.73076923076923" type="qcurve" smooth="yes"/>
      <point x="605.2307692307693" y="249.24615384615385" type="line"/>
      <point x="528.376923076923" y="143.63076923076923"/>
      <point x="311.9153846153846" y="-2.9230769230769234"/>
      <point x="187.93076923076922" y="-2.9230769230769234" type="qcurve" smooth="yes"/>
      <point x="70.93076923076923" y="-2.9230769230769234"/>
      <point x="-14.146153846153844" y="164.05384615384617"/>
    </contour>
    <contour>
      <point x="132.14615384615385" y="297.61538461538464" type="qcurve" smooth="yes"/>
      <point x="132.14615384615385" y="206.53076923076924"/>
      <point x="207.2846153846154" y="62.16923076923078"/>
      <point x="282.9076923076923" y="62.16923076923078" type="qcurve" smooth="yes"/>
      <point x="379.1461538461539" y="62.16923076923078"/>
      <point x="599.0384615384615" y="265.25384615384615"/>
      <point x="636.1461538461539" y="441.3076923076923" type="qcurve" smooth="yes"/>
      <point x="716.8538461538461" y="827.3076923076923" type="line"/>
      <point x="702.5" y="866.3615384615384"/>
      <point x="637.8538461538461" y="897.0923076923077"/>
      <point x="580.7692307692307" y="897.0923076923077" type="qcurve" smooth="yes"/>
      <point x="412.04615384615386" y="897.0923076923077"/>
      <point x="132.14615384615385" y="516.6153846153846"/>
    </contour>
  </outline>
</glyph>
<glyph name="j" format="2">
  <advance width="497"/>
  <unicode hex="006A"/>
  <outline>
    <contour>
      <point x="193.46923076923076" y="823.8923076923077" type="qcurve"/>
      <point x="51.33846153846154" y="849.223076923077" type="line"/>
      <point x="53.33846153846154" y="880.9384615384615" type="line"/>
      <point x="352.5923076923077" y="929.2538461538461" type="line"/>
      <point x="367.7153846153846" y="916.9538461538461" type="line"/>
      <point x="357.6538461538462" y="861.5615384615385" type="line"/>
      <point x="327.1692307692308" y="735.5307692307692" type="line"/>
      <point x="243.93076923076922" y="338.26153846153846" type="line"/>
      <point x="186.0076923076923" y="-14.50769230769231"/>
      <point x="-152.53076923076924" y="-478.1923076923077"/>
      <point x="-339.63846153846157" y="-478.1923076923077" type="qcurve"/>
      <point x="-511.79230769230765" y="-419.32307692307694" type="line"/>
      <point x="-499.46923076923076" y="-391.39230769230767" type="line"/>
      <point x="-374.86153846153843" y="-389.60769230769233" type="line" smooth="yes"/>
      <point x="-144.53846153846155" y="-385.87692307692305"/>
      <point x="33.03846153846155" y="-73.12307692307692"/>
      <point x="76.2" y="165.93076923076922" type="qcurve" smooth="yes"/>
      <point x="94.00769230769231" y="264.7"/>
      <point x="164.7923076923077" y="630.776923076923"/>
    </contour>
    <contour>
      <point x="243.3" y="1284.0153846153846" type="qcurve" smooth="yes"/>
      <point x="248.35384615384618" y="1334.5"/>
      <point x="301.83846153846156" y="1390.9307692307693"/>
      <point x="347.2692307692308" y="1390.9307692307693" type="qcurve" smooth="yes"/>
      <point x="390.5923076923077" y="1390.9307692307693"/>
      <point x="437.96923076923076" y="1331.446153846154"/>
      <point x="431.96923076923076" y="1284.0153846153846" type="qcurve" smooth="yes"/>
      <point x="425.96923076923076" y="1232.5846153846153"/>
      <point x="372.4846153846154" y="1176.1538461538462"/>
      <point x="327.05384615384617" y="1176.1538461538462" type="qcurve" smooth="yes"/>
      <point x="284.67692307692306" y="1176.1538461538462"/>
      <point x="237.3" y="1235.6384615384616"/>
    </contour>
  </outline>
</glyph>
<glyph name="k" format="2">
  <advance width="855"/>
  <unicode hex="006B"/>
  <outline>
    <contour>
      <point x="16.846153846153854" y="-12.592307692307692" type="line"/>
      <point x="10.800000000000004" y="56.0" type="line"/>
      <point x="124.20769230769231" y="581.876923076923" type="line"/>
      <point x="282.15384615384613" y="1467.6076923076923" type="line"/>
      <point x="130.84615384615387" y="1472.5615384615385" type="line"/>
      <point x="141.81538461538463" y="1505.7692307692307" type="line"/>
      <point x="421.2153846153846" y="1581.4" type="line"/>
      <point x="447.6615384615385" y="1554.923076923077" type="line"/>
      <point x="288.63076923076926" y="739.3384615384615" type="line"/>
      <point x="341.0615384615385" y="822.8230769230769"/>
      <point x="514.7923076923078" y="951.6615384615385"/>
      <point x="587.7076923076924" y="951.6615384615385" type="qcurve" smooth="yes"/>
      <point x="666.623076923077" y="951.6615384615385"/>
      <point x="759.8076923076924" y="827.0384615384615"/>
      <point x="757.5076923076923" y="741.1461538461539" type="qcurve" smooth="yes"/>
      <point x="757.1538461538462" y="712.7" type="line"/>
      <point x="746.1538461538462" y="690.7" type="line"/>
      <point x="467.4769230769231" y="488.34615384615387" type="line"/>
      <point x="679.4461538461538" y="94.20769230769231" type="line"/>
      <point x="807.2307692307693" y="108.4" type="line"/>
      <point x="807.2307692307693" y="84.73846153846154" type="line"/>
      <point x="596.9615384615385" y="-6.0" type="line" smooth="yes"/>
      <point x="581.9615384615385" y="-12.838461538461537"/>
      <point x="566.2076923076924" y="-0.5153846153846153"/>
      <point x="553.0538461538462" y="27.00769230769231" type="qcurve"/>
      <point x="363.13076923076926" y="416.10769230769233" type="line"/>
      <point x="174.5" y="262.3076923076923" type="line"/>
      <point x="161.72307692307692" y="285.83846153846156" type="line"/>
      <point x="578.5" y="626.6538461538462" type="line"/>
      <point x="634.323076923077" y="714.0615384615385"/>
      <point x="582.7615384615385" y="869.0769230769231"/>
      <point x="495.70000000000005" y="869.0769230769231" type="qcurve" smooth="yes"/>
      <point x="431.89230769230767" y="869.0769230769231"/>
      <point x="308.73846153846154" y="740.6769230769231"/>
      <point x="276.6615384615385" y="681.8461538461538" type="qcurve"/>
      <point x="255.25384615384615" y="579.4846153846154" type="line"/>
      <point x="164.5769230769231" y="87.94615384615385" type="line"/>
      <point x="174.76153846153846" y="15.353846153846153" type="line"/>
    </contour>
  </outline>
</glyph>
<glyph name="l" format="2">
  <advance width="493"/>
  <unicode hex="006C"/>
  <outline>
    <contour>
      <point x="48.55384615384616" y="-12.107692307692307" type="line"/>
      <point x="18.58461538461539" y="24.5" type="line"/>
      <point x="137.04615384615386" y="604.1076923076923" type="line"/>
      <point x="289.7769230769231" y="1467.6076923076923" type="line"/>
      <point x="132.66153846153847" y="1472.5615384615385" type="line"/>
      <point x="144.5769230769231" y="1505.7692307692307" type="line"/>
      <point x="431.67692307692306" y="1583.2923076923078" type="line"/>
      <point x="456.2307692307692" y="1555.8692307692309" type="line"/>
      <point x="265.7153846153846" y="588.0" type="line"/>
      <point x="169.46923076923076" y="83.85384615384615" type="line"/>
      <point x="359.7923076923077" y="109.53076923076924" type="line"/>
      <point x="359.7923076923077" y="87.76153846153846" type="line"/>
    </contour>
  </outline>
</glyph>
<glyph name="u" format="2">
  <advance width="992"/>
  <unicode hex="0075"/>
  <outline>
    <contour>
      <point x="612.3692307692307" y="-9.323076923076924" type="line"/>
      <point x="579.8307692307692" y="9.769230769230774" type="line"/>
      <point x="560.5538461538462" y="211.76923076923077" type="line"/>
      <point x="693.5307692307692" y="847.6076923076923" type="line"/>
      <point x="693.7538461538461" y="910.7384615384615" type="line"/>
      <point x="834.1" y="929.223076923077" type="line"/>
      <point x="856.2307692307693" y="906.9923076923077" type="line"/>
      <point x="695.7076923076924" y="205.8846153846154" type="line"/>
      <point x="718.9076923076923" y="89.53076923076924" type="line"/>
      <point x="841.6615384615385" y="109.4" type="line"/>
      <point x="843.6615384615385" y="82.95384615384614" type="line"/>
    </contour>
    <contour>
      <point x="56.17692307692308" y="272.0" type="qcurve" smooth="yes"/>
      <point x="156.76923076923077" y="829.5692307692308" type="line"/>
      <point x="38.42307692307693" y="847.3846153846154" type="line"/>
      <point x="34.746153846153845" y="874.3153846153846" type="line"/>
      <point x="274.5615384615385" y="930.0923076923077" type="line"/>
      <point x="299.6923076923077" y="925.3615384615384" type="line"/>
      <point x="312.36153846153843" y="910.7" type="line"/>
      <point x="189.27692307692308" y="248.6076923076923" type="line" smooth="yes"/>
      <point x="172.3846153846154" y="159.93076923076922"/>
      <point x="216.27692307692308" y="54.684615384615384"/>
      <point x="281.9230769230769" y="54.684615384615384" type="qcurve" smooth="yes"/>
      <point x="380.86923076923074" y="54.684615384615384"/>
      <point x="567.4538461538461" y="216.63076923076923"/>
      <point x="615.9384615384615" y="286.63076923076926" type="qcurve"/>
      <point x="629.3692307692307" y="272.32307692307694" type="line"/>
      <point x="551.123076923077" y="152.5076923076923"/>
      <point x="343.7076923076923" y="-7.0"/>
      <point x="235.16923076923078" y="-7.0" type="qcurve" smooth="yes"/>
      <point x="134.68461538461537" y="-7.0"/>
      <point x="31.96153846153846" y="144.46153846153845"/>
    </contour>
  </outline>
</glyph>
<glyph name="w" format="2">
  <advance width="1206"/>
  <unicode hex="0077"/>
  <outline>
    <contour>
      <point x="-39.8" y="846.6" type="line"/>
      <point x="-43.47692307692307" y="872.6384615384616" type="line"/>
      <point x="186.76923076923077" y="928.1461538461539" type="line"/>
      <point x="213.35384615384618" y="913.9538461538461" type="line"/>
      <point x="241.43076923076924" y="521.9153846153846" type="line"/>
      <point x="269.23846153846154" y="105.66153846153847" type="line"/>
      <point x="386.9153846153846" y="231.40769230769232"/>
      <point x="615.2384615384616" y="600.3692307692307"/>
      <point x="621.1615384615385" y="720.5461538461539" type="qcurve"/>
      <point x="646.9076923076923" y="720.4846153846154" type="line"/>
      <point x="639.4769230769231" y="600.6384615384616"/>
      <point x="424.83846153846156" y="228.1153846153846"/>
      <point x="208.20000000000002" y="-8.0" type="qcurve"/>
      <point x="148.64615384615385" y="9.03076923076923" type="line"/>
      <point x="123.43846153846154" y="471.8076923076923" type="line"/>
      <point x="84.22307692307693" y="852.276923076923" type="line"/>
    </contour>
    <contour>
      <point x="489.1461538461539" y="884.0461538461539" type="line"/>
      <point x="649.9" y="923.4153846153846" type="line"/>
      <point x="668.7" y="910.1692307692308" type="line"/>
      <point x="686.9076923076923" y="521.7538461538461" type="line"/>
      <point x="723.5538461538462" y="108.12307692307692" type="line"/>
      <point x="865.2461538461539" y="265.37692307692305"/>
      <point x="1072.6384615384616" y="617.9692307692308"/>
      <point x="1072.6384615384616" y="736.1384615384616" type="qcurve" smooth="yes"/>
      <point x="1072.6384615384616" y="799.7846153846153"/>
      <point x="1010.5384615384615" y="880.7"/>
      <point x="941.3615384615384" y="923.8615384615384" type="qcurve" smooth="yes"/>
      <point x="963.0189743589743" y="932.5666666666666"/>
      <point x="1006.9538461538461" y="942.6"/>
      <point x="1027.3846153846155" y="942.6" type="qcurve" smooth="yes"/>
      <point x="1092.9578080358885" y="942.7359582089182"/>
      <point x="1174.7076923076922" y="870.0923076923077"/>
      <point x="1174.7076923076922" y="809.3461538461538" type="qcurve" smooth="yes"/>
      <point x="1174.7076923076922" y="689.9461538461538"/>
      <point x="887.2615384615385" y="229.27692307692308"/>
      <point x="662.5692307692308" y="-5.161538461538462" type="qcurve"/>
      <point x="603.0153846153846" y="11.869230769230768" type="line"/>
      <point x="568.5384615384615" y="473.63846153846157" type="line"/>
      <point x="538.5692307692308" y="861.7384615384615" type="line"/>
      <point x="492.9307692307692" y="858.9" type="line"/>
    </contour>
  </outline>
</glyph>
<glyph name="currency" format="2">
  <advance width="1216"/>
  <unicode hex="00A4"/>
  <outline>
    <contour>
      <point x="182.0846153846154" y="799.4076923076923" type="qcurve" smooth="yes"/>
      <point x="182.0846153846154" y="973.5153846153846"/>
      <point x="411.1923076923077" y="1217.676923076923"/>
      <point x="596.3538461538461" y="1217.676923076923" type="qcurve" smooth="yes"/>
      <point x="783.4615384615385" y="1217.676923076923"/>
      <point x="1014.623076923077" y="989.5153846153846"/>
      <point x="1014.623076923077" y="804.4076923076923" type="qcurve" smooth="yes"/>
      <point x="1014.623076923077" y="631.3"/>
      <point x="787.4615384615385" y="381.1384615384615"/>
      <point x="601.3538461538461" y="381.1384615384615" type="qcurve" smooth="yes"/>
      <point x="415.1923076923077" y="381.1384615384615"/>
      <point x="182.0846153846154" y="613.2461538461539"/>
    </contour>
    <contour>
      <point x="275.26153846153846" y="815.3" type="qcurve" smooth="yes"/>
      <point x="276.26153846153846" y="666.5923076923077"/>
      <point x="450.75384615384615" y="460.4769230769231"/>
      <point x="594.3538461538461" y="460.4769230769231" type="qcurve" smooth="yes"/>
      <point x="749.0076923076923" y="460.4769230769231"/>
      <point x="915.5" y="647.8076923076923"/>
      <point x="915.5" y="804.4076923076923" type="qcurve" smooth="yes"/>
      <point x="915.5" y="946.1692307692308"/>
      <point x="741.0615384615385" y="1132.446153846154"/>
      <point x="596.3538461538461" y="1132.446153846154" type="qcurve" smooth="yes"/>
      <point x="440.75384615384615" y="1132.446153846154"/>
      <point x="274.26153846153846" y="962.9538461538461"/>
    </contour>
    <contour>
      <point x="316.63076923076926" y="1092.6923076923076" type="line"/>
      <point x="66.83846153846154" y="1319.7769230769231" type="line"/>
      <point x="97.87692307692308" y="1353.9769230769232" type="line"/>
      <point x="335.36923076923074" y="1113.6461538461538" type="line"/>
    </contour>
    <contour>
      <point x="893.1846153846154" y="1073.2307692307693" type="line"/>
      <point x="874.3923076923077" y="1094.1307692307691" type="line"/>
      <point x="1121.3461538461538" y="1353.4384615384615" type="line"/>
      <point x="1152.4384615384615" y="1319.2923076923078" type="line"/>
    </contour>
    <contour>
      <point x="326.5230769230769" y="506.4230769230769" type="line"/>
      <point x="345.26153846153846" y="485.46923076923076" type="line"/>
      <point x="98.30769230769232" y="227.1076923076923" type="line"/>
      <point x="67.26923076923077" y="260.36153846153843" type="line"/>
    </contour>
    <contour>
      <point x="882.9153846153846" y="516.4230769230769" type="line"/>
      <point x="1151.6846153846154" y="260.9" type="line"/>
      <point x="1120.5923076923077" y="227.7" type="line"/>
      <point x="864.123076923077" y="495.5230769230769" type="line"/>
    </contour>
  </outline>
</glyph>
<glyph name="dieresis" format="2">
  <advance width="903"/>
  <unicode hex="00A8"/>
  <outline>
    <contour>
      <point x="616.8076923076924" y="1162.8384615384616" type="qcurve" smooth="yes"/>
      <point x="616.8076923076924" y="1203.6461538461538"/>
      <point x="668.2923076923078" y="1254.1307692307691"/>
      <point x="710.1" y="1254.1307692307691" type="qcurve" smooth="yes"/>
      <point x="751.7461538461539" y="1254.1307692307691"/>
      <point x="803.3923076923077" y="1203.4307692307693"/>
      <point x="803.3923076923077" y="1162.8384615384616" type="qcurve" smooth="yes"/>
      <point x="803.3923076923077" y="1123.0307692307692"/>
      <point x="751.9615384615385" y="1072.5461538461539"/>
      <point x="710.1" y="1072.5461538461539" type="qcurve" smooth="yes"/>
      <point x="668.4538461538461" y="1072.5461538461539"/>
      <point x="616.8076923076924" y="1123.1923076923076"/>
    </contour>
    <contour>
      <point x="304.66923076923075" y="1162.8384615384616" type="qcurve" smooth="yes"/>
      <point x="304.66923076923075" y="1203.6461538461538"/>
      <point x="356.15384615384613" y="1254.1307692307691"/>
      <point x="397.96153846153845" y="1254.1307692307691" type="qcurve" smooth="yes"/>
      <point x="439.60769230769233" y="1254.1307692307691"/>
      <point x="491.25384615384615" y="1203.4307692307693"/>
      <point x="491.25384615384615" y="1162.8384615384616" type="qcurve" smooth="yes"/>
      <point x="491.25384615384615" y="1123.0307692307692"/>
      <point x="439.82307692307694" y="1072.5461538461539"/>
      <point x="397.96153846153845" y="1072.5461538461539" type="qcurve" smooth="yes"/>
      <point x="356.31538461538463" y="1072.5461538461539"/>
      <point x="304.66923076923075" y="1123.1923076923076"/>
    </contour>
  </outline>
</glyph>
<glyph name="registered" format="2">
  <advance width="1783"/>
  <unicode hex="00AE"/>
  <outline>
    <contour>
      <point x="53.11538461538461" y="679.3230769230769" type="qcurve" smooth="yes"/>
      <point x="53.11538461538461" y="1036.4"/>
      <point x="537.2153846153847" y="1518.9076923076923"/>
      <point x="895.8" y="1518.9076923076923" type="qcurve" smooth="yes"/>
      <point x="1253.3307692307692" y="1518.9076923076923"/>
      <point x="1734.4846153846154" y="1061.4538461538461"/>
      <point x="1734.4846153846154" y="700.3230769230769" type="qcurve" smooth="yes"/>
      <point x="1734.4846153846154" y="304.0846153846154"/>
      <point x="1260.3307692307692" y="-198.47692307692307"/>
      <point x="906.8538461538461" y="-198.47692307692307" type="qcurve" smooth="yes"/>
      <point x="542.323076923077" y="-198.47692307692307"/>
      <point x="53.11538461538461" y="292.0846153846154"/>
    </contour>
    <contour>
      <point x="101.44615384615386" y="675.376923076923" type="qcurve" smooth="yes"/>
      <point x="101.44615384615386" y="321.2153846153846"/>
      <point x="585.6923076923077" y="-152.35384615384615"/>
      <point x="921.0153846153846" y="-152.35384615384615" type="qcurve" smooth="yes"/>
      <point x="1248.2307692307693" y="-152.35384615384615"/>
      <point x="1680.476923076923" y="346.2692307692308"/>
      <point x="1680.476923076923" y="693.3230769230769" type="qcurve" smooth="yes"/>
      <point x="1680.476923076923" y="1009.4307692307692"/>
      <point x="1224.2307692307693" y="1469.0"/>
      <point x="872.9076923076923" y="1469.0" type="qcurve" smooth="yes"/>
      <point x="539.6923076923077" y="1469.0"/>
      <point x="101.44615384615386" y="1000.4307692307692"/>
    </contour>
    <contour>
      <point x="557.5230769230769" y="254.53076923076924" type="line"/>
      <point x="548.4692307692308" y="283.9769230769231" type="line"/>
      <point x="643.7076923076924" y="304.1923076923077" type="line"/>
      <point x="651.8692307692307" y="699.3461538461538" type="line"/>
      <point x="641.8153846153846" y="1033.123076923077" type="line"/>
      <point x="546.9846153846154" y="1057.0692307692307" type="line"/>
      <point x="548.876923076923" y="1095.4615384615386" type="line"/>
      <point x="926.3153846153846" y="1095.4615384615386" type="line" smooth="yes"/>
      <point x="1054.0384615384614" y="1095.4615384615386"/>
      <point x="1178.6538461538462" y="992.1153846153846"/>
      <point x="1178.6538461538462" y="898.9307692307692" type="qcurve" smooth="yes"/>
      <point x="1178.6538461538462" y="796.5307692307692"/>
      <point x="1026.6615384615384" y="651.7"/>
      <point x="923.3692307692307" y="651.7" type="qcurve" smooth="yes"/>
      <point x="882.7769230769231" y="651.7"/>
      <point x="768.323076923077" y="658.8076923076923"/>
      <point x="749.0538461538462" y="658.8076923076923" type="qcurve"/>
      <point x="747.1615384615385" y="691.7692307692307" type="line"/>
      <point x="873.8846153846154" y="691.7692307692307" type="line" smooth="yes"/>
      <point x="972.0692307692308" y="691.7692307692307"/>
      <point x="1039.9846153846154" y="805.5538461538462"/>
      <point x="1039.9846153846154" y="900.3384615384615" type="qcurve" smooth="yes"/>
      <point x="1039.9846153846154" y="982.2307692307693"/>
      <point x="965.9615384615385" y="1054.0692307692307"/>
      <point x="880.9384615384615" y="1054.0692307692307" type="qcurve" smooth="yes"/>
      <point x="794.7538461538461" y="1054.0692307692307" type="line"/>
      <point x="776.5923076923077" y="1039.176923076923" type="line"/>
      <point x="768.323076923077" y="699.3461538461538" type="line"/>
      <point x="778.376923076923" y="304.1923076923077" type="line"/>
      <point x="884.8307692307692" y="283.9769230769231" type="line"/>
      <point x="884.8307692307692" y="254.53076923076924" type="line"/>
    </contour>
    <contour>
      <point x="845.2923076923078" y="689.1846153846154" type="line"/>
      <point x="967.9076923076923" y="712.4538461538461" type="line"/>
      <point x="1198.9846153846154" y="390.16153846153844" type="line" smooth="yes"/>
      <point x="1244.4384615384615" y="326.2230769230769"/>
      <point x="1335.6538461538462" y="287.76153846153846"/>
      <point x="1369.1384615384616" y="287.76153846153846" type="qcurve"/>
      <point x="1367.246153846154" y="254.53076923076924" type="line"/>
      <point x="1184.7615384615385" y="254.53076923076924" type="line"/>
      <point x="1151.2769230769231" y="265.6923076923077" type="line"/>
    </contour>
  </outline>
</glyph>
<glyph name="macron" format="2">
  <advance width="903"/>
  <unicode hex="00AF"/>
  <outline>
    <contour>
      <point x="290.12307692307695" y="1113.0615384615385" type="line"/>
      <point x="291.73846153846154" y="1212.753846153846" type="line"/>
      <point x="817.5076923076923" y="1212.753846153846" type="line"/>
      <point x="815.8923076923077" y="1113.0615384615385" type="line"/>
    </contour>
  </outline>
</glyph>
<glyph name="acute" format="2">
  <advance width="903"/>
  <unicode hex="00B4"/>
  <outline>
    <contour>
      <point x="426.1" y="1053.8076923076924" type="line"/>
      <point x="448.03846153846155" y="1034.8461538461538" type="line"/>
      <point x="686.4307692307692" y="1219.9846153846154" type="line" smooth="yes"/>
      <point x="704.2615384615385" y="1232.9"/>
      <point x="726.0076923076923" y="1261.7307692307693"/>
      <point x="726.0076923076923" y="1279.9692307692308" type="qcurve" smooth="yes"/>
      <point x="726.0076923076923" y="1313.023076923077"/>
      <point x="690.4153846153846" y="1348.0461538461539"/>
      <point x="662.7153846153847" y="1348.0461538461539" type="qcurve" smooth="yes"/>
      <point x="643.5307692307692" y="1348.0461538461539"/>
      <point x="607.6461538461539" y="1323.076923076923"/>
      <point x="592.1384615384616" y="1300.946153846154" type="qcurve" smooth="yes"/>
    </contour>
  </outline>
</glyph>
<glyph name="micro" format="2">
  <advance width="992"/>
  <unicode hex="00B5"/>
  <outline>
    <contour>
      <point x="-97.55384615384615" y="-370.9307692307692" type="line"/>
      <point x="-71.96153846153845" y="-353.66153846153844" type="line"/>
      <point x="-33.55384615384615" y="-162.75384615384615"/>
      <point x="35.17692307692308" y="148.03846153846155"/>
      <point x="56.800000000000004" y="268.04615384615386" type="qcurve" smooth="yes"/>
      <point x="156.76923076923077" y="829.5692307692308" type="line"/>
      <point x="38.42307692307693" y="847.3846153846154" type="line"/>
      <point x="34.746153846153845" y="874.3153846153846" type="line"/>
      <point x="274.5615384615385" y="930.0923076923077" type="line"/>
      <point x="299.6923076923077" y="925.3615384615384" type="line"/>
      <point x="312.36153846153843" y="910.7" type="line"/>
      <point x="189.27692307692308" y="248.6076923076923" type="line" smooth="yes"/>
      <point x="172.3846153846154" y="159.93076923076922"/>
      <point x="216.81538461538463" y="56.3"/>
      <point x="282.46153846153845" y="56.3" type="qcurve" smooth="yes"/>
      <point x="359.37692307692305" y="56.3"/>
      <point x="507.87692307692305" y="158.2153846153846"/>
      <point x="561.3076923076924" y="217.64615384615385" type="qcurve"/>
      <point x="693.5307692307692" y="847.6076923076923" type="line"/>
      <point x="693.7538461538461" y="910.7384615384615" type="line"/>
      <point x="834.1" y="929.223076923077" type="line"/>
      <point x="856.2307692307693" y="906.9923076923077" type="line"/>
      <point x="695.7076923076924" y="205.8846153846154" type="line"/>
      <point x="718.9076923076923" y="89.53076923076924" type="line"/>
      <point x="841.6615384615385" y="109.4" type="line"/>
      <point x="843.6615384615385" y="82.95384615384614" type="line"/>
      <point x="612.3692307692307" y="-9.323076923076924" type="line"/>
      <point x="579.8307692307692" y="9.769230769230774" type="line"/>
      <point x="563.2307692307693" y="182.83076923076925" type="line"/>
      <point x="492.8538461538461" y="98.15384615384616"/>
      <point x="327.13846153846157" y="-5.384615384615383"/>
      <point x="245.16923076923078" y="-5.384615384615383" type="qcurve" smooth="yes"/>
      <point x="215.95384615384614" y="-5.384615384615383"/>
      <point x="165.0076923076923" y="8.561538461538461"/>
      <point x="142.84615384615387" y="21.50769230769231" type="qcurve"/>
      <point x="65.03076923076924" y="-347.8" type="line"/>
      <point x="138.1769230769231" y="-360.53076923076924" type="line"/>
      <point x="135.85384615384615" y="-383.3" type="line"/>
      <point x="-90.63846153846154" y="-407.5153846153846" type="line"/>
    </contour>
  </outline>
</glyph>
<glyph name="paragraph" format="2">
  <advance width="1027"/>
  <unicode hex="00B6"/>
  <outline>
    <contour>
      <point x="608.3846153846154" y="132.0" type="qcurve" smooth="yes"/>
      <point x="735.8461538461538" y="787.0" type="line"/>
      <point x="695.8461538461538" y="783.8384615384615"/>
      <point x="556.1538461538462" y="792.8692307692307"/>
      <point x="497.15384615384613" y="801.3846153846154" type="qcurve" smooth="yes"/>
      <point x="324.0230769230769" y="825.0384615384615"/>
      <point x="113.83076923076923" y="1038.2"/>
      <point x="143.83076923076925" y="1204.2" type="qcurve" smooth="yes"/>
      <point x="173.83076923076925" y="1375.2"/>
      <point x="433.4" y="1500.0"/>
      <point x="612.1538461538462" y="1500.0" type="qcurve" smooth="yes"/>
      <point x="1116.1538461538462" y="1500.0" type="line"/>
      <point x="1105.6153846153845" y="1464.5307692307692" type="line"/>
      <point x="908.0769230769231" y="1430.5307692307692" type="line"/>
      <point x="791.6153846153846" y="782.3846153846154" type="line"/>
      <point x="671.3692307692307" y="183.85384615384615" type="line"/>
      <point x="743.0461538461539" y="137.96923076923076"/>
      <point x="751.1615384615385" y="31.546153846153846"/>
      <point x="698.3846153846154" y="6.0" type="qcurve" smooth="yes"/>
      <point x="657.1153846153846" y="-14.815384615384616"/>
      <point x="594.6538461538462" y="62.02307692307693"/>
    </contour>
    <contour>
      <point x="385.6923076923077" y="220.0" type="qcurve" smooth="yes"/>
      <point x="513.1538461538462" y="842.0" type="line"/>
      <point x="570.5153846153846" y="833.8615384615384" type="line"/>
      <point x="453.0" y="263.0" type="line" smooth="yes"/>
      <point x="389.70000000000005" y="-43.11538461538461"/>
      <point x="207.9230769230769" y="-238.53076923076924"/>
      <point x="91.80000000000001" y="-238.53076923076924" type="qcurve" smooth="yes"/>
      <point x="-8.03846153846154" y="-238.53076923076924"/>
      <point x="-87.22307692307692" y="-171.7"/>
      <point x="-87.22307692307692" y="-110.37692307692308" type="qcurve" smooth="yes"/>
      <point x="-87.22307692307692" y="-61.73076923076923"/>
      <point x="-8.276923076923076" y="8.184615384615384"/>
      <point x="39.56153846153846" y="11.615384615384617" type="qcurve"/>
      <point x="53.823076923076925" y="-4.0" type="line"/>
      <point x="53.823076923076925" y="-26.56153846153846" type="line"/>
      <point x="29.823076923076925" y="-26.56153846153846"/>
      <point x="-6.6384615384615415" y="-75.1076923076923"/>
      <point x="-6.6384615384615415" y="-106.56923076923077" type="qcurve" smooth="yes"/>
      <point x="-6.6384615384615415" y="-140.86923076923077"/>
      <point x="52.17692307692308" y="-170.35384615384615"/>
      <point x="106.6923076923077" y="-170.35384615384615" type="qcurve" smooth="yes"/>
      <point x="209.74615384615385" y="-170.35384615384615"/>
      <point x="345.8538461538462" y="24.56923076923077"/>
    </contour>
  </outline>
</glyph>
<glyph name="guillemetright" format="2">
  <advance width="1226"/>
  <unicode hex="00BB"/>
  <outline>
    <contour>
      <point x="1094.8" y="571.8076923076923" type="line"/>
      <point x="1094.8" y="571.8076923076923"/>
      <point x="542.9153846153846" y="263.62307692307695"/>
      <point x="463.9153846153846" y="223.62307692307692" type="qcurve" smooth="yes"/>
      <point x="447.16923076923075" y="219.95384615384614"/>
      <point x="432.8538461538461" y="261.9384615384615"/>
      <point x="446.4923076923077" y="275.17692307692306" type="qcurve" smooth="yes"/>
      <point x="558.5076923076923" y="351.3076923076923"/>
      <point x="859.176923076923" y="562.8"/>
      <point x="898.9153846153846" y="592.1307692307693" type="qcurve"/>
      <point x="860.123076923077" y="620.5153846153846"/>
      <point x="577.9846153846154" y="849.3307692307692"/>
      <point x="536.7230769230769" y="886.8384615384615" type="qcurve" smooth="yes"/>
      <point x="524.2461538461539" y="907.1846153846154"/>
      <point x="555.7769230769231" y="937.4692307692308"/>
      <point x="580.0923076923077" y="928.8" type="qcurve" smooth="yes"/>
      <point x="640.0923076923077" y="894.8"/>
      <point x="1036.8" y="659.8076923076923"/>
      <point x="1102.8" y="611.8076923076923" type="qcurve"/>
    </contour>
    <contour>
      <point x="685.3076923076924" y="580.2461538461539" type="line"/>
      <point x="685.3076923076924" y="580.2461538461539"/>
      <point x="133.4230769230769" y="272.0615384615385"/>
      <point x="54.423076923076906" y="232.06153846153848" type="qcurve" smooth="yes"/>
      <point x="37.67692307692312" y="228.3923076923077"/>
      <point x="23.361538461538487" y="270.37692307692305"/>
      <point x="37.0" y="283.61538461538464" type="qcurve" smooth="yes"/>
      <point x="149.01538461538462" y="359.74615384615385"/>
      <point x="449.6846153846154" y="571.2384615384616"/>
      <point x="489.4230769230769" y="600.5692307692308" type="qcurve"/>
      <point x="450.63076923076926" y="628.9538461538461"/>
      <point x="167.52307692307693" y="858.7923076923076"/>
      <point x="126.26153846153852" y="896.3" type="qcurve" smooth="yes"/>
      <point x="113.78461538461539" y="916.6461538461539"/>
      <point x="145.3153846153847" y="946.9307692307692"/>
      <point x="169.63076923076926" y="938.2615384615385" type="qcurve" smooth="yes"/>
      <point x="229.63076923076926" y="904.2615384615385"/>
      <point x="627.3076923076924" y="668.2461538461539"/>
      <point x="693.3076923076924" y="620.2461538461539" type="qcurve"/>
    </contour>
  </outline>
</glyph>
<glyph name="questiondown" format="2">
  <advance width="934"/>
  <unicode hex="00BF"/>
  <outline>
    <contour>
      <point x="723.223076923077" y="42.5" type="qcurve" smooth="yes"/>
      <point x="700.9" y="-81.57692307692307"/>
      <point x="474.9076923076923" y="-218.2153846153846"/>
      <point x="304.0230769230769" y="-218.2153846153846" type="qcurve" smooth="yes"/>
      <point x="133.02307692307693" y="-218.2153846153846"/>
      <point x="-49.215384615384615" y="-49.43076923076923"/>
      <point x="-49.215384615384615" y="89.56923076923077" type="qcurve" smooth="yes"/>
      <point x="-49.215384615384615" y="233.56923076923076"/>
      <point x="115.13076923076923" y="441.8615384615385"/>
      <point x="267.73846153846154" y="531.9307692307692" type="qcurve" smooth="yes"/>
      <point x="415.4846153846154" y="618.776923076923"/>
      <point x="561.5153846153846" y="725.8615384615384"/>
      <point x="584.4615384615385" y="800.8615384615384" type="qcurve" smooth="yes"/>
      <point x="614.2461538461539" y="897.3230769230769" type="line"/>
      <point x="657.4769230769231" y="887.8615384615384" type="line"/>
      <point x="642.6923076923077" y="803.8615384615384" type="line" smooth="yes"/>
      <point x="629.8538461538461" y="729.8615384615384"/>
      <point x="531.6461538461539" y="559.9153846153846"/>
      <point x="356.0923076923077" y="443.96153846153845" type="qcurve" smooth="yes"/>
      <point x="225.66153846153847" y="358.36923076923074"/>
      <point x="98.93846153846154" y="197.86153846153846"/>
      <point x="98.93846153846154" y="89.86153846153846" type="qcurve" smooth="yes"/>
      <point x="98.93846153846154" y="-25.792307692307688"/>
      <point x="241.02307692307693" y="-166.8230769230769"/>
      <point x="358.0230769230769" y="-166.8230769230769" type="qcurve" smooth="yes"/>
      <point x="460.15384615384613" y="-166.8230769230769"/>
      <point x="590.3923076923077" y="-71.17692307692307"/>
      <point x="600.3923076923077" y="-4.930769230769229" type="qcurve" smooth="yes"/>
      <point x="604.5" y="20.284615384615385"/>
      <point x="530.9923076923077" y="77.23076923076923"/>
      <point x="531.3692307692307" y="117.71538461538462" type="qcurve" smooth="yes"/>
      <point x="531.6384615384616" y="152.03846153846155"/>
      <point x="586.1769230769231" y="200.9"/>
      <point x="633.876923076923" y="200.9" type="qcurve" smooth="yes"/>
      <point x="685.6846153846154" y="200.9"/>
      <point x="737.4384615384615" y="120.2"/>
    </contour>
    <contour>
      <point x="772.2615384615385" y="1192.2384615384615" type="qcurve" smooth="yes"/>
      <point x="768.4769230769231" y="1134.4"/>
      <point x="707.5615384615385" y="1070.4307692307693"/>
      <point x="654.1846153846154" y="1070.4307692307693" type="qcurve" smooth="yes"/>
      <point x="606.5384615384615" y="1070.4307692307693"/>
      <point x="553.1923076923077" y="1138.1846153846154"/>
      <point x="559.8153846153846" y="1192.2384615384615" type="qcurve" smooth="yes"/>
      <point x="563.6" y="1251.9153846153847"/>
      <point x="624.5153846153846" y="1314.9923076923078"/>
      <point x="677.8384615384615" y="1314.9923076923078" type="qcurve" smooth="yes"/>
      <point x="725.5384615384615" y="1314.9923076923078"/>
      <point x="777.9384615384615" y="1248.1307692307691"/>
    </contour>
  </outline>
</glyph>
<glyph name="Thorn" format="2">
  <advance width="1060"/>
  <unicode hex="00DE"/>
  <outline>
    <contour>
      <point x="490.5" y="1250.7615384615385" type="line"/>
      <point x="684.7384615384615" y="1250.7615384615385" type="line" smooth="yes"/>
      <point x="869.5692307692308" y="1250.7615384615385"/>
      <point x="1037.8307692307692" y="1042.1461538461538"/>
      <point x="1004.3461538461538" y="833.9307692307692" type="qcurve" smooth="yes"/>
      <point x="969.0769230769231" y="615.9"/>
      <point x="695.0846153846154" y="379.0923076923077"/>
      <point x="462.96923076923076" y="379.0923076923077" type="qcurve" smooth="yes"/>
      <point x="399.9230769230769" y="379.0923076923077"/>
      <point x="283.1461538461539" y="395.36153846153843"/>
      <point x="247.76923076923077" y="406.2" type="qcurve"/>
      <point x="255.95384615384614" y="439.0769230769231" type="line"/>
      <point x="306.95384615384614" y="422.2923076923077"/>
      <point x="385.3" y="412.34615384615387"/>
      <point x="464.10769230769233" y="412.34615384615387" type="qcurve" smooth="yes"/>
      <point x="597.3461538461538" y="412.34615384615387"/>
      <point x="786.9923076923077" y="613.0769230769231"/>
      <point x="829.4" y="842.6307692307693" type="qcurve" smooth="yes"/>
      <point x="865.1307692307693" y="1033.5846153846153"/>
      <point x="765.6769230769231" y="1217.9153846153847"/>
      <point x="626.3538461538461" y="1217.9153846153847" type="qcurve" smooth="yes"/>
      <point x="509.4769230769231" y="1217.9153846153847" type="line"/>
      <point x="476.8538461538462" y="1194.0230769230768" type="line"/>
      <point x="379.11538461538464" y="728.0461538461539" type="line"/>
      <point x="233.51538461538462" y="46.30769230769231" type="line"/>
      <point x="415.53846153846155" y="29.038461538461547" type="line"/>
      <point x="410.32307692307694" y="0.0" type="line"/>
      <point x="-91.96153846153845" y="0.0" type="line"/>
      <point x="-86.74615384615385" y="29.038461538461547" type="line"/>
      <point x="67.67692307692307" y="44.684615384615384" type="line"/>
      <point x="225.63076923076923" y="766.3" type="line"/>
      <point x="364.6923076923077" y="1453.7769230769231" type="line"/>
      <point x="205.34615384615384" y="1466.423076923077" type="line"/>
      <point x="211.72307692307692" y="1500.0" type="line"/>
      <point x="719.7384615384615" y="1500.0" type="line"/>
      <point x="712.8230769230769" y="1459.8" type="line"/>
      <point x="530.1769230769231" y="1451.9384615384615" type="line"/>
    </contour>
  </outline>
</glyph>
<glyph name="kgreenlandic" format="2">
  <advance width="960"/>
  <unicode hex="0138"/>
  <outline>
    <contour>
      <point x="24.17692307692308" y="49.37692307692308" type="line"/>
      <point x="115.82307692307693" y="491.9923076923077" type="line"/>
      <point x="170.66153846153847" y="825.6769230769231" type="line"/>
      <point x="41.90769230769231" y="850.0615384615385" type="line"/>
      <point x="41.853846153846156" y="874.3153846153846" type="line"/>
      <point x="278.9923076923077" y="926.3615384615384" type="line"/>
      <point x="307.9076923076923" y="924.3615384615384" type="line"/>
      <point x="328.7923076923077" y="884.5846153846154" type="line"/>
      <point x="273.5230769230769" y="629.6307692307693" type="line"/>
      <point x="175.52307692307693" y="86.78461538461538" type="line"/>
      <point x="177.19230769230768" y="13.246153846153845" type="line"/>
      <point x="26.43846153846154" y="-11.646153846153847" type="line"/>
    </contour>
    <contour>
      <point x="907.6" y="898.5384615384615" type="line"/>
      <point x="764.8384615384615" y="850.6461538461539" type="line"/>
      <point x="479.81538461538463" y="595.3230769230769" type="line"/>
      <point x="747.7" y="73.3923076923077" type="line"/>
      <point x="855.6153846153846" y="65.82307692307693" type="line"/>
      <point x="855.6153846153846" y="46.89230769230769" type="line"/>
      <point x="701.0384615384615" y="4.299999999999999" type="line" smooth="yes"/>
      <point x="653.8692307692307" y="-9.107692307692307"/>
      <point x="620.0" y="16.46153846153846"/>
      <point x="574.0" y="113.1076923076923" type="qcurve"/>
      <point x="374.5230769230769" y="513.623076923077" type="line"/>
      <point x="215.68461538461537" y="389.8076923076923" type="line"/>
      <point x="205.74615384615385" y="410.9076923076923" type="line"/>
      <point x="695.7153846153847" y="853.6461538461539" type="line"/>
      <point x="689.3615384615384" y="864.6692307692308" type="line"/>
      <point x="575.4692307692308" y="894.2923076923076" type="line"/>
      <point x="581.7384615384615" y="924.3076923076923" type="line"/>
      <point x="911.2461538461539" y="925.2538461538461" type="line"/>
    </contour>
  </outline>
</glyph>
<glyph name="Eng" format="2">
  <advance width="1250"/>
  <unicode hex="014A"/>
  <outline>
    <contour>
      <point x="326" y="-200" type="qcurve"/>
      <point x="365" y="-169" type="line"/>
      <point x="400" y="-207"/>
      <point x="493" y="-254"/>
      <point x="570" y="-254" type="qcurve" smooth="yes"/>
      <point x="631" y="-254"/>
      <point x="736" y="-165"/>
      <point x="759" y="-64" type="qcurve" smooth="yes"/>
      <point x="781" y="39" type="line"/>
      <point x="883" y="39" type="line"/>
      <point x="862" y="-66" type="line" smooth="yes"/>
      <point x="838" y="-185"/>
      <point x="667" y="-314"/>
      <point x="555" y="-314" type="qcurve" smooth="yes"/>
      <point x="470" y="-314"/>
      <point x="343" y="-241"/>
    </contour>
    <component base="N"/>
  </outline>
</glyph>
<glyph name="OE" format="2">
  <advance width="1694"/>
  <unicode hex="0152"/>
  <outline>
    <contour>
      <point x="68.57692307692308" y="773.1461538461539" type="qcurve" smooth="yes"/>
      <point x="139.3846153846154" y="1103.876923076923"/>
      <point x="544.9846153846154" y="1508.4538461538461"/>
      <point x="820.0384615384615" y="1507.6461538461538" type="qcurve" smooth="yes"/>
      <point x="860.2307692307693" y="1507.2153846153847"/>
      <point x="1014.0538461538462" y="1500.0"/>
      <point x="1033.423076923077" y="1500.0" type="qcurve" smooth="yes"/>
      <point x="1750.9615384615386" y="1500.0" type="line"/>
      <point x="1686.4692307692308" y="1178.4923076923078" type="line"/>
      <point x="1655.5923076923077" y="1178.4923076923078" type="line"/>
      <point x="1608.8538461538462" y="1465.2615384615385" type="line"/>
      <point x="1236.2769230769231" y="1465.2615384615385" type="line"/>
      <point x="1208.8461538461538" y="1447.1538461538462" type="line"/>
      <point x="1068.3" y="783.9461538461538" type="line"/>
      <point x="918.3461538461538" y="61.56923076923077" type="line"/>
      <point x="944.6923076923076" y="32.30769230769231" type="line"/>
      <point x="1365.0" y="32.30769230769231" type="line"/>
      <point x="1574.2692307692307" y="351.5076923076923" type="line"/>
      <point x="1604.253846153846" y="351.5076923076923" type="line"/>
      <point x="1493.4923076923078" y="0.0" type="line"/>
      <point x="774.5769230769231" y="0.0" type="line" smooth="yes"/>
      <point x="741.1846153846154" y="0.0"/>
      <point x="528.3615384615384" y="-15.076923076923077"/>
      <point x="494.05384615384617" y="-14.161538461538463" type="qcurve" smooth="yes"/>
      <point x="223.24615384615385" y="-11.792307692307688"/>
      <point x="-6.1769230769230745" y="423.7923076923077"/>
    </contour>
    <contour>
      <point x="249.9" y="784.6615384615385" type="qcurve" smooth="yes"/>
      <point x="169.36153846153846" y="404.9"/>
      <point x="315.46923076923076" y="21.307692307692307"/>
      <point x="505.5153846153846" y="21.307692307692307" type="qcurve" smooth="yes"/>
      <point x="572.7153846153847" y="21.307692307692307"/>
      <point x="678.3153846153846" y="41.98461538461538"/>
      <point x="752.9153846153846" y="63.60769230769231" type="qcurve"/>
      <point x="906.4615384615385" y="783.9461538461538" type="line"/>
      <point x="1040.0615384615385" y="1435.8538461538462" type="line"/>
      <point x="981.0307692307692" y="1452.3153846153846"/>
      <point x="864.6615384615385" y="1470.2076923076922"/>
      <point x="814.5230769230769" y="1470.3153846153846" type="qcurve" smooth="yes"/>
      <point x="608.6384615384616" y="1471.0153846153846"/>
      <point x="327.9" y="1153.2692307692307"/>
    </contour>
    <contour>
      <point x="977.0" y="788.8153846153846" type="line"/>
      <point x="983.7" y="821.2923076923076" type="line"/>
      <point x="1370.6384615384616" y="828.4538461538461" type="line"/>
      <point x="1481.4615384615386" y="987.8615384615384" type="line"/>
      <point x="1511.4461538461537" y="987.8615384615384" type="line"/>
      <point x="1426.4461538461537" y="584.0307692307692" type="line"/>
      <point x="1396.4615384615386" y="584.0307692307692" type="line"/>
      <point x="1361.0461538461539" y="780.5769230769231" type="line"/>
    </contour>
  </outline>
</glyph>
<glyph name="oe" format="2">
  <advance width="1474"/>
  <unicode hex="0153"/>
  <outline>
    <contour>
      <point x="18.207692307692312" y="522.5384615384615" type="qcurve" smooth="yes"/>
      <point x="70.83076923076923" y="736.5384615384615"/>
      <point x="351.55384615384617" y="959.0384615384615"/>
      <point x="527.0076923076923" y="945.0384615384615" type="qcurve" smooth="yes"/>
      <point x="618.4076923076923" y="937.9846153846154"/>
      <point x="746.7230769230769" y="841.9615384615385"/>
      <point x="781.0461538461539" y="769.8846153846154" type="qcurve"/>
      <point x="847.0692307692308" y="847.2846153846153"/>
      <point x="1022.9230769230769" y="942.9538461538461"/>
      <point x="1121.2692307692307" y="942.9538461538461" type="qcurve" smooth="yes"/>
      <point x="1238.753846153846" y="942.9538461538461"/>
      <point x="1363.9384615384615" y="821.0076923076923"/>
      <point x="1364.1538461538462" y="723.1615384615385" type="qcurve" smooth="yes"/>
      <point x="1364.3153846153846" y="696.1384615384616"/>
      <point x="1356.3692307692309" y="638.6615384615385"/>
      <point x="1348.2076923076922" y="608.5846153846154" type="qcurve"/>
      <point x="1409.4307692307693" y="608.1" type="line"/>
      <point x="1398.0846153846155" y="570.4923076923077" type="line"/>
      <point x="1357.1461538461538" y="566.8153846153846"/>
      <point x="1195.1384615384616" y="565.8692307692307"/>
      <point x="1128.1384615384616" y="566.8153846153846" type="qcurve" smooth="yes"/>
      <point x="744.8846153846154" y="570.4923076923077" type="line"/>
      <point x="750.4" y="597.3153846153846" type="line"/>
      <point x="1200.946153846154" y="604.3692307692307" type="line"/>
      <point x="1213.8923076923077" y="644.8307692307692"/>
      <point x="1229.323076923077" y="723.8538461538461"/>
      <point x="1228.8923076923077" y="758.1769230769231" type="qcurve" smooth="yes"/>
      <point x="1228.4615384615386" y="823.6692307692308"/>
      <point x="1169.4615384615386" y="908.5692307692308"/>
      <point x="1106.7846153846153" y="908.5692307692308" type="qcurve" smooth="yes"/>
      <point x="1006.0615384615385" y="908.5692307692308"/>
      <point x="829.1" y="681.5923076923077"/>
      <point x="784.5307692307692" y="486.4" type="qcurve" smooth="yes"/>
      <point x="748.5307692307692" y="329.2692307692308"/>
      <point x="794.0307692307692" y="82.93846153846154"/>
      <point x="914.9461538461538" y="72.26153846153846" type="qcurve" smooth="yes"/>
      <point x="1027.646153846154" y="62.53076923076923"/>
      <point x="1235.8153846153846" y="180.2923076923077"/>
      <point x="1312.923076923077" y="301.2153846153846" type="qcurve"/>
      <point x="1329.2692307692307" y="284.0615384615385" type="line"/>
      <point x="1330.4" y="266.46923076923076" type="line"/>
      <point x="1259.1307692307691" y="157.68461538461537"/>
      <point x="1030.5153846153846" y="-20.646153846153847"/>
      <point x="875.7615384615385" y="-8.915384615384617" type="qcurve" smooth="yes"/>
      <point x="799.3615384615384" y="-3.0230769230769248"/>
      <point x="687.5846153846154" y="74.64615384615385"/>
      <point x="656.1538461538462" y="138.2076923076923" type="qcurve"/>
      <point x="583.8307692307692" y="54.56153846153846"/>
      <point x="396.2153846153846" y="-22.107692307692307"/>
      <point x="293.0846153846154" y="-10.323076923076924" type="qcurve" smooth="yes"/>
      <point x="132.76923076923077" y="7.461538461538462"/>
      <point x="-35.52307692307692" y="305.7307692307692"/>
    </contour>
    <contour>
      <point x="178.63846153846154" y="527.5384615384615" type="qcurve" smooth="yes"/>
      <point x="122.71538461538462" y="325.88461538461536"/>
      <point x="167.67692307692306" y="41.5"/>
      <point x="297.7307692307692" y="26.769230769230774" type="qcurve" smooth="yes"/>
      <point x="429.2692307692308" y="12.092307692307699"/>
      <point x="604.0230769230769" y="282.10769230769233"/>
      <point x="646.0769230769231" y="478.53846153846155" type="qcurve" smooth="yes"/>
      <point x="683.0230769230769" y="650.5923076923077"/>
      <point x="645.3076923076923" y="898.623076923077"/>
      <point x="515.2538461538461" y="909.5153846153846" type="qcurve" smooth="yes"/>
      <point x="389.33846153846156" y="920.4615384615385"/>
      <point x="227.8846153846154" y="705.5384615384615"/>
    </contour>
  </outline>
</glyph>
<glyph name="Schwa" format="2">
  <advance width="1224"/>
  <unicode hex="018F"/>
  <outline>
    <contour>
      <point x="183.92307692307693" y="1242.8615384615384" type="line"/>
      <point x="305.0846153846154" y="1408.5615384615385"/>
      <point x="619.3230769230769" y="1544.8615384615384"/>
      <point x="810.9153846153846" y="1519.9153846153847" type="qcurve" smooth="yes"/>
      <point x="1064.7230769230769" y="1488.8615384615384"/>
      <point x="1232.923076923077" y="995.1076923076923"/>
      <point x="1150.7615384615385" y="683.8384615384615" type="qcurve" smooth="yes"/>
      <point x="1052.4076923076923" y="308.63846153846157"/>
      <point x="546.6307692307693" y="-46.62307692307692"/>
      <point x="299.0692307692308" y="-18.138461538461538" type="qcurve" smooth="yes"/>
      <point x="155.69230769230768" y="-1.9230769230769234"/>
      <point x="-4.869230769230768" y="166.4"/>
      <point x="-4.869230769230768" y="284.4230769230769" type="qcurve" smooth="yes"/>
      <point x="-4.869230769230768" y="316.4230769230769"/>
      <point x="3.9153846153846175" y="384.15384615384613"/>
      <point x="16.646153846153847" y="428.15384615384613" type="qcurve"/>
      <point x="42.830769230769235" y="443.8" type="line"/>
      <point x="909.3307692307692" y="440.0153846153846" type="line"/>
      <point x="928.2769230769231" y="481.96153846153845"/>
      <point x="972.5230769230769" y="622.2692307692307"/>
      <point x="985.5230769230769" y="678.0" type="qcurve" smooth="yes"/>
      <point x="1056.6307692307691" y="973.6769230769231"/>
      <point x="982.5153846153846" y="1414.4153846153847"/>
      <point x="776.1076923076923" y="1446.3076923076924" type="qcurve" smooth="yes"/>
      <point x="585.1076923076923" y="1476.253846153846"/>
      <point x="297.2692307692308" y="1341.9"/>
      <point x="205.37692307692308" y="1198.3307692307692" type="qcurve"/>
      <point x="187.05384615384617" y="1211.3846153846155" type="line"/>
    </contour>
    <contour>
      <point x="380.04615384615386" y="68.55384615384617" type="qcurve" smooth="yes"/>
      <point x="525.6923076923077" y="53.06923076923077"/>
      <point x="776.876923076923" y="182.63846153846154"/>
      <point x="883.2846153846153" y="386.46153846153845" type="qcurve"/>
      <point x="482.82307692307694" y="384.0" type="line"/>
      <point x="225.6076923076923" y="375.16153846153844" type="line" smooth="yes"/>
      <point x="172.44615384615383" y="373.2153846153846"/>
      <point x="130.87692307692308" y="302.8615384615385"/>
      <point x="147.93076923076922" y="240.86153846153846" type="qcurve" smooth="yes"/>
      <point x="167.87692307692308" y="168.34615384615384"/>
      <point x="284.5230769230769" y="78.44615384615385"/>
    </contour>
  </outline>
</glyph>
<glyph name="jdotless" format="2">
  <advance width="497"/>
  <unicode hex="0237"/>
  <outline>
    <contour>
      <point x="193.46923076923076" y="823.8923076923077" type="qcurve"/>
      <point x="51.33846153846154" y="849.223076923077" type="line"/>
      <point x="53.33846153846154" y="880.9384615384615" type="line"/>
      <point x="352.5923076923077" y="929.2538461538461" type="line"/>
      <point x="367.7153846153846" y="916.9538461538461" type="line"/>
      <point x="357.6538461538462" y="861.5615384615385" type="line"/>
      <point x="327.1692307692308" y="735.5307692307692" type="line"/>
      <point x="243.93076923076922" y="338.26153846153846" type="line"/>
      <point x="186.0076923076923" y="-14.50769230769231"/>
      <point x="-152.53076923076924" y="-478.1923076923077"/>
      <point x="-339.63846153846157" y="-478.1923076923077" type="qcurve"/>
      <point x="-511.79230769230765" y="-419.32307692307694" type="line"/>
      <point x="-499.46923076923076" y="-391.39230769230767" type="line"/>
      <point x="-374.86153846153843" y="-389.60769230769233" type="line" smooth="yes"/>
      <point x="-144.53846153846155" y="-385.87692307692305"/>
      <point x="33.03846153846155" y="-73.12307692307692"/>
      <point x="76.2" y="165.93076923076922" type="qcurve" smooth="yes"/>
      <point x="94.00769230769231" y="264.7"/>
      <point x="164.7923076923077" y="630.776923076923"/>
    </contour>
  </outline>
</glyph>
<glyph name="primemod" format="2">
  <advance width="600"/>
  <unicode hex="02B9"/>
  <outline>
    <contour>
      <point x="374.0" y="1502.0" type="line"/>
      <point x="563.0" y="1502.0" type="line"/>
      <point x="308.7692307692308" y="984.0" type="line"/>
      <point x="271.9230769230769" y="989.0" type="line"/>
    </contour>
  </outline>
</glyph>
<glyph name="doubleprimemod" format="2">
  <advance width="911"/>
  <unicode hex="02BA"/>
  <outline>
    <contour>
      <point x="385.0" y="1502.0" type="line"/>
      <point x="574.0" y="1502.0" type="line"/>
      <point x="308.7692307692308" y="985.0" type="line"/>
      <point x="271.9230769230769" y="990.0" type="line"/>
    </contour>
    <contour>
      <point x="685.0" y="1502.0" type="line"/>
      <point x="874.0" y="1502.0" type="line"/>
      <point x="608.7692307692307" y="985.0" type="line"/>
      <point x="571.9230769230769" y="990.0" type="line"/>
    </contour>
  </outline>
</glyph>
<glyph name="circumflex" format="2">
  <advance width="903"/>
  <unicode hex="02C6"/>
  <outline>
    <contour>
      <point x="600.1076923076923" y="1368.2615384615385" type="qcurve" smooth="yes"/>
      <point x="630.323076923077" y="1367.3153846153846"/>
      <point x="648.4538461538461" y="1325.9076923076923"/>
      <point x="661.9923076923077" y="1282.9615384615386" type="qcurve" smooth="yes"/>
      <point x="740.1923076923077" y="1054.1538461538462" type="line"/>
      <point x="718.4230769230769" y="1036.9769230769232" type="line"/>
      <point x="569.1076923076923" y="1241.5692307692307" type="line"/>
      <point x="304.24615384615385" y="1048.3307692307692" type="line"/>
      <point x="278.82307692307694" y="1064.5615384615385" type="line"/>
      <point x="488.3538461538462" y="1287.6923076923076" type="line" smooth="yes"/>
      <point x="535.5692307692308" y="1338.5846153846155"/>
      <point x="569.8923076923077" y="1370.1538461538462"/>
    </contour>
  </outline>
</glyph>
<glyph name="caron" format="2">
  <advance width="903"/>
  <unicode hex="02C7"/>
  <outline>
    <contour>
      <point x="534.4307692307692" y="1069.423076923077" type="qcurve" smooth="yes"/>
      <point x="504.2153846153846" y="1070.3692307692309"/>
      <point x="486.0846153846154" y="1111.7769230769231"/>
      <point x="472.6" y="1154.7230769230769" type="qcurve" smooth="yes"/>
      <point x="394.4" y="1383.5307692307692" type="line"/>
      <point x="415.7923076923077" y="1400.7076923076922" type="line"/>
      <point x="565.1076923076923" y="1196.1153846153845" type="line"/>
      <point x="812.9384615384615" y="1408.2769230769231" type="line"/>
      <point x="838.7384615384615" y="1392.0461538461539" type="line"/>
      <point x="646.2384615384615" y="1149.9923076923078" type="line" smooth="yes"/>
      <point x="602.7538461538461" y="1095.3153846153846"/>
      <point x="564.6461538461539" y="1067.5307692307692"/>
    </contour>
  </outline>
</glyph>
<glyph name="breve" format="2">
  <advance width="903"/>
  <unicode hex="02D8"/>
  <outline>
    <contour>
      <point x="839.2692307692307" y="1301.823076923077" type="qcurve"/>
      <point x="867.8" y="1285.7230769230769" type="line"/>
      <point x="828.7461538461539" y="1203.8076923076924"/>
      <point x="649.5384615384615" y="1073.6"/>
      <point x="545.4076923076923" y="1073.6" type="qcurve" smooth="yes"/>
      <point x="445.11538461538464" y="1073.6"/>
      <point x="306.60769230769233" y="1206.7846153846153"/>
      <point x="312.12307692307695" y="1297.8615384615384" type="qcurve"/>
      <point x="351.4384615384615" y="1314.176923076923" type="line"/>
      <point x="369.4384615384615" y="1260.6923076923076"/>
      <point x="484.54615384615386" y="1173.7769230769231"/>
      <point x="560.4615384615385" y="1173.7769230769231" type="qcurve" smooth="yes"/>
      <point x="639.4307692307692" y="1173.7769230769231"/>
      <point x="806.0538461538462" y="1258.2846153846153"/>
    </contour>
  </outline>
</glyph>
<glyph name="dotaccent" format="2">
  <advance width="903"/>
  <unicode hex="02D9"/>
  <outline>
    <contour>
      <point x="449.2230769230769" y="1166.946153846154" type="qcurve" smooth="yes"/>
      <point x="449.2230769230769" y="1212.5923076923077"/>
      <point x="497.9769230769231" y="1260.3461538461538"/>
      <point x="544.6769230769231" y="1260.3461538461538" type="qcurve" smooth="yes"/>
      <point x="588.323076923077" y="1260.3461538461538"/>
      <point x="640.1307692307693" y="1208.5923076923077"/>
      <point x="640.1307692307693" y="1166.946153846154" type="qcurve" smooth="yes"/>
      <point x="640.1307692307693" y="1121.3"/>
      <point x="591.376923076923" y="1072.6"/>
      <point x="544.6769230769231" y="1072.6" type="qcurve" smooth="yes"/>
      <point x="501.03076923076924" y="1072.6"/>
      <point x="449.2230769230769" y="1124.3538461538462"/>
    </contour>
  </outline>
</glyph>
<glyph name="ring" format="2">
  <advance width="903"/>
  <unicode hex="02DA"/>
  <outline>
    <contour>
      <point x="387.6538461538462" y="1258.253846153846" type="qcurve" smooth="yes"/>
      <point x="387.6538461538462" y="1343.523076923077"/>
      <point x="498.7846153846154" y="1454.3846153846155"/>
      <point x="585.2153846153847" y="1454.3846153846155" type="qcurve" smooth="yes"/>
      <point x="671.6461538461539" y="1454.3846153846155"/>
      <point x="782.7769230769231" y="1343.523076923077"/>
      <point x="782.7769230769231" y="1258.253846153846" type="qcurve" smooth="yes"/>
      <point x="782.7769230769231" y="1172.9846153846154"/>
      <point x="671.6461538461539" y="1062.123076923077"/>
      <point x="585.2153846153847" y="1062.123076923077" type="qcurve" smooth="yes"/>
      <point x="498.7846153846154" y="1062.123076923077"/>
      <point x="387.6538461538462" y="1172.9846153846154"/>
    </contour>
    <contour>
      <point x="462.0769230769231" y="1258.253846153846" type="qcurve" smooth="yes"/>
      <point x="462.0769230769231" y="1202.6307692307691"/>
      <point x="528.5923076923077" y="1135.1153846153845"/>
      <point x="585.2153846153847" y="1135.1153846153845" type="qcurve" smooth="yes"/>
      <point x="644.8384615384615" y="1135.1153846153845"/>
      <point x="708.3538461538461" y="1198.6846153846154"/>
      <point x="708.3538461538461" y="1258.253846153846" type="qcurve" smooth="yes"/>
      <point x="708.3538461538461" y="1313.876923076923"/>
      <point x="641.8384615384615" y="1381.3923076923077"/>
      <point x="585.2153846153847" y="1381.3923076923077" type="qcurve" smooth="yes"/>
      <point x="525.6461538461539" y="1381.3923076923077"/>
      <point x="462.0769230769231" y="1317.876923076923"/>
    </contour>
  </outline>
</glyph>
<glyph name="tilde" format="2">
  <advance width="903"/>
  <unicode hex="02DC"/>
  <outline>
    <contour>
      <point x="233.0076923076923" y="1150.0615384615385" type="line"/>
      <point x="261.76153846153846" y="1201.7076923076922"/>
      <point x="369.70000000000005" y="1301.9769230769232"/>
      <point x="425.96923076923076" y="1301.9769230769232" type="qcurve" smooth="yes"/>
      <point x="462.0769230769231" y="1301.9769230769232"/>
      <point x="524.9692307692308" y="1275.8692307692309"/>
      <point x="563.4307692307692" y="1244.1923076923076" type="qcurve" smooth="yes"/>
      <point x="598.623076923077" y="1214.8923076923077"/>
      <point x="666.7307692307693" y="1172.3538461538462"/>
      <point x="699.0" y="1172.3538461538462" type="qcurve" smooth="yes"/>
      <point x="741.6769230769231" y="1172.3538461538462"/>
      <point x="792.2923076923078" y="1210.2153846153847"/>
      <point x="814.6153846153846" y="1238.7" type="qcurve"/>
      <point x="837.6615384615385" y="1215.523076923077" type="line"/>
      <point x="806.7461538461539" y="1155.6076923076923"/>
      <point x="709.9692307692308" y="1071.7153846153847"/>
      <point x="663.7" y="1071.7153846153847" type="qcurve" smooth="yes"/>
      <point x="623.4846153846154" y="1071.7153846153847"/>
      <point x="541.7" y="1115.7692307692307"/>
      <point x="518.7538461538461" y="1131.9846153846154" type="qcurve" smooth="yes"/>
      <point x="491.86153846153843" y="1151.2"/>
      <point x="427.0230769230769" y="1202.2846153846153"/>
      <point x="396.23846153846154" y="1202.2846153846153" type="qcurve" smooth="yes"/>
      <point x="359.86153846153843" y="1202.2846153846153"/>
      <point x="287.7307692307692" y="1162.4538461538461"/>
      <point x="255.37692307692308" y="1126.8846153846155" type="qcurve"/>
    </contour>
  </outline>
</glyph>
<glyph name="hungarumlaut" format="2">
  <advance width="903"/>
  <unicode hex="02DD"/>
  <outline>
    <contour>
      <point x="310.66923076923075" y="1074.4307692307693" type="line"/>
      <point x="333.2" y="1055.576923076923" type="line"/>
      <point x="573.0076923076923" y="1241.0846153846153" type="line" smooth="yes"/>
      <point x="589.4076923076923" y="1253.376923076923"/>
      <point x="609.1846153846154" y="1288.6153846153845"/>
      <point x="610.1307692307693" y="1306.6384615384616" type="qcurve" smooth="yes"/>
      <point x="610.1307692307693" y="1331.2846153846153"/>
      <point x="578.4307692307692" y="1369.5"/>
      <point x="548.1615384615385" y="1369.5" type="qcurve" smooth="yes"/>
      <point x="528.2461538461539" y="1369.5"/>
      <point x="489.4384615384615" y="1348.3692307692309"/>
      <point x="472.46923076923076" y="1323.3461538461538" type="qcurve" smooth="yes"/>
    </contour>
    <contour>
      <point x="574.8307692307692" y="1074.4307692307693" type="line"/>
      <point x="597.3615384615384" y="1055.576923076923" type="line"/>
      <point x="837.3307692307692" y="1240.8692307692309" type="line" smooth="yes"/>
      <point x="853.7846153846153" y="1253.1076923076923"/>
      <point x="873.8846153846155" y="1288.6153846153845"/>
      <point x="874.8307692307692" y="1306.6384615384616" type="qcurve" smooth="yes"/>
      <point x="874.8307692307692" y="1331.2846153846153"/>
      <point x="843.0230769230769" y="1369.5"/>
      <point x="812.8615384615384" y="1369.5" type="qcurve" smooth="yes"/>
      <point x="792.9461538461538" y="1369.5"/>
      <point x="753.8153846153846" y="1348.1538461538462"/>
      <point x="736.7923076923078" y="1323.1307692307691" type="qcurve" smooth="yes"/>
    </contour>
  </outline>
</glyph>
<glyph name="quotesinglbase" format="2">
  <advance width="531"/>
  <unicode hex="201A"/>
  <outline>
    <contour>
      <point x="-28.307692307692307" y="-191.93846153846152" type="line"/>
      <point x="40.238461538461536" y="-148.63846153846154"/>
      <point x="145.72307692307692" y="-54.292307692307695"/>
      <point x="170.45384615384614" y="-0.07692307692307665" type="qcurve"/>
      <point x="95.83076923076923" y="-1.9692307692307693"/>
      <point x="15.100000000000001" y="61.51538461538462"/>
      <point x="15.100000000000001" y="120.35384615384615" type="qcurve" smooth="yes"/>
      <point x="15.100000000000001" y="164.94615384615383"/>
      <point x="80.23076923076923" y="232.7"/>
      <point x="132.66153846153847" y="232.7" type="qcurve" smooth="yes"/>
      <point x="183.93076923076922" y="232.7"/>
      <point x="261.4153846153846" y="153.56923076923076"/>
      <point x="261.4153846153846" y="78.3" type="qcurve" smooth="yes"/>
      <point x="261.4153846153846" y="-15.023076923076925"/>
      <point x="80.00769230769231" y="-173.1769230769231"/>
      <point x="-19.884615384615387" y="-209.46923076923076" type="qcurve"/>
    </contour>
  </outline>
</glyph>
<glyph name="foursuperior" format="2">
  <advance width="725"/>
  <unicode hex="2074"/>
  <outline>
    <contour>
      <point x="122.8923076923077" y="946.2153846153847" type="line"/>
      <point x="113.02307692307693" y="968.3384615384615" type="line"/>
      <point x="621.5615384615385" y="1540.0" type="line"/>
      <point x="670.7461538461539" y="1523.5692307692307" type="line"/>
      <point x="671.2846153846153" y="1501.5692307692307" type="line"/>
      <point x="575.8538461538461" y="963.9384615384615" type="line"/>
      <point x="550.1538461538462" y="786.4846153846154" type="line"/>
      <point x="550.5846153846154" y="711.8923076923077" type="line"/>
      <point x="431.82307692307694" y="679.1076923076923" type="line"/>
      <point x="419.04615384615386" y="697.1" type="line"/>
      <point x="468.96153846153845" y="965.5846153846154" type="line"/>
      <point x="549.4230769230769" y="1404.0615384615385" type="line"/>
      <point x="193.5" y="1003.0461538461539" type="line"/>
      <point x="196.5" y="997.9923076923077" type="line"/>
      <point x="529.123076923077" y="992.0461538461539" type="line"/>
      <point x="731.9076923076923" y="992.0461538461539" type="line"/>
      <point x="718.8538461538461" y="944.623076923077" type="line"/>
      <point x="516.9076923076923" y="942.9461538461538" type="line"/>
    </contour>
  </outline>
</glyph>
<glyph name="peseta" format="2">
  <advance width="2008"/>
  <unicode hex="20A7"/>
  <outline>
    <contour>
      <point x="-88.43846153846154" y="0.0" type="line"/>
      <point x="-83.22307692307692" y="29.038461538461547" type="line"/>
      <point x="85.80000000000001" y="65.5" type="line"/>
      <point x="231.4" y="754.0" type="line"/>
      <point x="371.46153846153845" y="1432.9615384615386" type="line"/>
      <point x="216.97692307692307" y="1466.423076923077" type="line"/>
      <point x="223.35384615384615" y="1500.0" type="line"/>
      <point x="714.8153846153846" y="1500.0" type="line" smooth="yes"/>
      <point x="887.3461538461538" y="1500.0"/>
      <point x="1089.3923076923077" y="1282.8692307692309"/>
      <point x="1047.3923076923077" y="1083.1692307692308" type="qcurve" smooth="yes"/>
      <point x="1007.3923076923077" y="892.5769230769231"/>
      <point x="758.7" y="696.276923076923"/>
      <point x="527.6615384615385" y="696.276923076923" type="qcurve" smooth="yes"/>
      <point x="464.61538461538464" y="696.276923076923"/>
      <point x="327.5615384615385" y="712.5461538461539"/>
      <point x="292.18461538461537" y="723.3846153846154" type="qcurve"/>
      <point x="308.88461538461536" y="756.2615384615385" type="line"/>
      <point x="359.88461538461536" y="739.4769230769231"/>
      <point x="449.9923076923077" y="729.5307692307692"/>
      <point x="528.8" y="729.5307692307692" type="qcurve" smooth="yes"/>
      <point x="660.9615384615385" y="729.5307692307692"/>
      <point x="833.8230769230769" y="901.1076923076923"/>
      <point x="876.2307692307693" y="1091.8692307692309" type="qcurve" smooth="yes"/>
      <point x="916.6923076923077" y="1274.3076923076924"/>
      <point x="795.7538461538461" y="1467.1538461538462"/>
      <point x="656.4307692307692" y="1467.1538461538462" type="qcurve" smooth="yes"/>
      <point x="569.8153846153846" y="1467.1538461538462" type="line"/>
      <point x="537.1923076923077" y="1443.2615384615385" type="line"/>
      <point x="393.4" y="764.0" type="line"/>
      <point x="248.8" y="60.5" type="line"/>
      <point x="417.03846153846155" y="29.038461538461547" type="line"/>
      <point x="411.82307692307694" y="0.0" type="line"/>
    </contour>
    <contour>
      <point x="925.4230769230769" y="-13.107692307692307" type="line"/>
      <point x="906.3" y="52.66153846153847" type="line"/>
      <point x="992.7923076923078" y="495.24615384615385" type="line"/>
      <point x="1056.5153846153846" y="831.0923076923077" type="line"/>
      <point x="916.3307692307692" y="826.7307692307693" type="line"/>
      <point x="910.5153846153846" y="856.1307692307693" type="line"/>
      <point x="1055.576923076923" y="877.2153846153847"/>
      <point x="1189.6307692307691" y="1046.9769230769232"/>
      <point x="1229.3846153846155" y="1207.6692307692308" type="qcurve"/>
      <point x="1245.7" y="1216.1846153846154" type="line"/>
      <point x="1260.3461538461538" y="1209.3" type="line"/>
      <point x="1124.4" y="490.36153846153843" type="line"/>
      <point x="1052.4" y="92.36923076923077" type="line"/>
      <point x="1278.2692307692307" y="127.77692307692308" type="line"/>
      <point x="1278.2692307692307" y="104.11538461538461" type="line"/>
    </contour>
    <contour>
      <point x="1120.3846153846155" y="832.1153846153846" type="line"/>
      <point x="1121.8615384615384" y="870.3923076923077" type="line"/>
      <point x="1424.023076923077" y="876.0692307692308" type="line"/>
      <point x="1414.4307692307693" y="842.9769230769231" type="line"/>
    </contour>
    <contour>
      <point x="1243.3923076923077" y="154.47692307692307" type="qcurve" smooth="yes"/>
      <point x="1243.5538461538463" y="207.98461538461538"/>
      <point x="1312.523076923077" y="263.86923076923074"/>
      <point x="1361.8461538461538" y="263.86923076923074" type="qcurve" smooth="yes"/>
      <point x="1370.7615384615385" y="263.86923076923074" type="line"/>
      <point x="1370.3846153846155" y="177.37692307692308" type="line" smooth="yes"/>
      <point x="1370.2769230769231" y="89.6923076923077"/>
      <point x="1444.7923076923078" y="16.038461538461547"/>
      <point x="1522.7923076923078" y="16.038461538461547" type="qcurve" smooth="yes"/>
      <point x="1620.523076923077" y="16.038461538461547"/>
      <point x="1765.446153846154" y="130.5846153846154"/>
      <point x="1765.5538461538463" y="203.5846153846154" type="qcurve" smooth="yes"/>
      <point x="1765.7153846153847" y="266.74615384615385"/>
      <point x="1660.9307692307693" y="371.0153846153846"/>
      <point x="1573.9846153846154" y="427.5846153846154" type="qcurve" smooth="yes"/>
      <point x="1457.2" y="503.83076923076925"/>
      <point x="1377.0153846153846" y="624.2615384615385"/>
      <point x="1378.176923076923" y="702.7461538461539" type="qcurve" smooth="yes"/>
      <point x="1379.3923076923077" y="798.2307692307693"/>
      <point x="1561.9307692307693" y="942.876923076923"/>
      <point x="1693.3307692307692" y="942.876923076923" type="qcurve" smooth="yes"/>
      <point x="1807.3846153846155" y="942.876923076923"/>
      <point x="1912.3538461538462" y="852.7461538461539"/>
      <point x="1912.1923076923076" y="801.3461538461538" type="qcurve" smooth="yes"/>
      <point x="1912.0846153846155" y="753.4846153846154"/>
      <point x="1849.8692307692309" y="685.1153846153846"/>
      <point x="1798.9538461538461" y="685.1153846153846" type="qcurve" smooth="yes"/>
      <point x="1788.0923076923077" y="699.3076923076923" type="line"/>
      <point x="1788.4153846153847" y="800.3230769230769" type="line" smooth="yes"/>
      <point x="1788.4692307692308" y="838.6769230769231"/>
      <point x="1724.4692307692308" y="899.7307692307693"/>
      <point x="1663.6846153846154" y="899.7307692307693" type="qcurve" smooth="yes"/>
      <point x="1582.2230769230769" y="899.7307692307693"/>
      <point x="1461.976923076923" y="823.7"/>
      <point x="1461.8692307692309" y="758.4" type="qcurve" smooth="yes"/>
      <point x="1461.7615384615385" y="714.9153846153846"/>
      <point x="1566.7923076923078" y="637.7538461538461"/>
      <point x="1664.6307692307691" y="568.5076923076923" type="qcurve" smooth="yes"/>
      <point x="1753.7384615384615" y="504.9923076923077"/>
      <point x="1857.7307692307693" y="394.0"/>
      <point x="1857.5692307692307" y="310.38461538461536" type="qcurve" smooth="yes"/>
      <point x="1857.3" y="159.35384615384615"/>
      <point x="1641.3538461538462" y="-10.807692307692308"/>
      <point x="1499.0076923076922" y="-10.807692307692308" type="qcurve" smooth="yes"/>
      <point x="1368.253846153846" y="-10.807692307692308"/>
      <point x="1243.2307692307693" y="80.04615384615386"/>
    </contour>
  </outline>
</glyph>
<glyph name="won" format="2">
  <advance width="1796"/>
  <unicode hex="20A9"/>
  <outline>
    <contour>
      <point x="1573.023076923077" y="582.3076923076923" type="line"/>
      <point x="1327.7923076923078" y="582.3076923076923" type="line"/>
      <point x="1327.7923076923078" y="583.7076923076924" type="line"/>
      <point x="1022.3307692307692" y="583.7076923076924" type="line"/>
      <point x="1022.3307692307692" y="623.2615384615385" type="line"/>
      <point x="1353.676923076923" y="623.2615384615385" type="line"/>
      <point x="1353.676923076923" y="624.2846153846153" type="line"/>
      <point x="1594.176923076923" y="624.2846153846153" type="line"/>
    </contour>
    <contour>
      <point x="1722.023076923077" y="937.0923076923077" type="line"/>
      <point x="1497.3307692307692" y="937.0923076923077" type="line"/>
      <point x="1497.3307692307692" y="938.276923076923" type="line"/>
      <point x="1008.4076923076923" y="938.276923076923" type="line"/>
      <point x="1008.4076923076923" y="978.1" type="line"/>
      <point x="1519.4846153846154" y="978.1" type="line"/>
      <point x="1519.4846153846154" y="979.123076923077" type="line"/>
      <point x="1752.176923076923" y="979.123076923077" type="line"/>
    </contour>
    <contour>
      <point x="179.56153846153848" y="582.3076923076923" type="line"/>
      <point x="170.02307692307693" y="624.2846153846153" type="line"/>
      <point x="410.9384615384615" y="624.2846153846153" type="line"/>
      <point x="406.9384615384615" y="623.2615384615385" type="line"/>
      <point x="1022.3307692307692" y="623.2615384615385" type="line"/>
      <point x="1022.3307692307692" y="583.7076923076924" type="line"/>
      <point x="422.0153846153846" y="583.7076923076924" type="line"/>
      <point x="416.0153846153846" y="582.3076923076923" type="line"/>
    </contour>
    <contour>
      <point x="129.48461538461538" y="937.0923076923077" type="line"/>
      <point x="120.94615384615385" y="979.123076923077" type="line"/>
      <point x="393.1" y="979.123076923077" type="line"/>
      <point x="388.1" y="978.1" type="line"/>
      <point x="1008.4076923076923" y="978.1" type="line"/>
      <point x="1008.4076923076923" y="938.276923076923" type="line"/>
      <point x="393.63846153846157" y="938.276923076923" type="line"/>
      <point x="387.63846153846157" y="937.0923076923077" type="line"/>
    </contour>
    <contour>
      <point x="141.72307692307692" y="1468.3153846153846" type="line"/>
      <point x="147.74615384615385" y="1500.0" type="line"/>
      <point x="601.7384615384615" y="1500.0" type="line"/>
      <point x="595.7153846153847" y="1468.3153846153846" type="line"/>
      <point x="435.82307692307694" y="1428.446153846154" type="line"/>
      <point x="476.1" y="800.1615384615385" type="line"/>
      <point x="511.8076923076923" y="200.67692307692306" type="line"/>
      <point x="525.6384615384616" y="201.62307692307692" type="line"/>
      <point x="804.3230769230769" y="786.2" type="line"/>
      <point x="984.0846153846154" y="1169.9076923076923" type="line"/>
      <point x="995.4615384615385" y="1112.3307692307692" type="line"/>
      <point x="836.3615384615384" y="772.8" type="line"/>
      <point x="467.23846153846154" y="-6.107692307692307" type="line"/>
      <point x="369.8615384615385" y="-6.107692307692307" type="line"/>
      <point x="319.36923076923074" y="755.1384615384616" type="line"/>
      <point x="273.5" y="1430.3384615384616" type="line"/>
    </contour>
    <contour>
      <point x="764.2461538461539" y="1474.423076923077" type="line"/>
      <point x="768.2153846153847" y="1500.0" type="line"/>
      <point x="1205.7769230769231" y="1500.0" type="line"/>
      <point x="1201.8076923076924" y="1473.9923076923078" type="line"/>
      <point x="1053.5384615384614" y="1434.5" type="line"/>
      <point x="1084.3846153846155" y="800.0" type="line"/>
      <point x="1111.9307692307693" y="198.73076923076923" type="line"/>
      <point x="1121.8692307692309" y="196.94615384615383" type="line"/>
      <point x="1409.823076923077" y="796.376923076923" type="line"/>
      <point x="1703.2307692307693" y="1430.6615384615384" type="line"/>
      <point x="1510.2307692307693" y="1468.3153846153846" type="line"/>
      <point x="1515.6615384615384" y="1500.0" type="line"/>
      <point x="1966.7076923076922" y="1500.0" type="line"/>
      <point x="1961.2769230769231" y="1468.3153846153846" type="line"/>
      <point x="1744.6153846153845" y="1429.446153846154" type="line"/>
      <point x="1442.4846153846154" y="785.5461538461539" type="line"/>
      <point x="1072.1461538461538" y="-6.107692307692307" type="line"/>
      <point x="969.6615384615385" y="-6.107692307692307" type="line"/>
      <point x="930.5461538461539" y="751.9769230769231" type="line"/>
      <point x="893.9461538461538" y="1436.3923076923077" type="line"/>
    </contour>
  </outline>
</glyph>
<glyph name="dong" format="2">
  <advance width="1069"/>
  <unicode hex="20AB"/>
  <outline>
    <contour>
      <point x="-77.31538461538462" y="-177.06153846153848" type="line"/>
      <point x="-63.93846153846154" y="-130.62307692307692" type="line"/>
      <point x="353.2769230769231" y="-128.94615384615383" type="line"/>
      <point x="808.0615384615385" y="-126.83846153846154" type="line"/>
      <point x="796.5769230769231" y="-170.43846153846152" type="line"/>
      <point x="343.73846153846154" y="-172.1153846153846" type="line"/>
    </contour>
    <contour>
      <point x="541.4153846153846" y="1204.3153846153846" type="line"/>
      <point x="548.7615384615384" y="1250.7846153846153" type="line"/>
      <point x="877.7692307692307" y="1250.623076923077" type="line"/>
      <point x="1093.7692307692307" y="1250.7846153846153" type="line"/>
      <point x="1081.746153846154" y="1208.1" type="line"/>
      <point x="864.7461538461539" y="1208.3153846153846" type="line"/>
    </contour>
    <contour>
      <point x="3.853846153846156" y="248.0" type="qcurve" smooth="yes"/>
      <point x="3.853846153846156" y="548.0"/>
      <point x="423.2" y="952.9384615384615"/>
      <point x="705.2538461538461" y="952.9384615384615" type="qcurve" smooth="yes"/>
      <point x="737.2538461538461" y="952.9384615384615" type="line"/>
      <point x="829.5307692307692" y="1458.053846153846" type="line"/>
      <point x="682.9538461538461" y="1463.0076923076922" type="line"/>
      <point x="692.0307692307692" y="1496.2153846153847" type="line"/>
      <point x="971.4307692307692" y="1572.7923076923078" type="line"/>
      <point x="1000.7153846153847" y="1551.9923076923078" type="line"/>
      <point x="793.4692307692308" y="469.0" type="line"/>
      <point x="735.9538461538461" y="91.36923076923077" type="line"/>
      <point x="866.3692307692307" y="108.4" type="line"/>
      <point x="868.2615384615385" y="72.38461538461539" type="line"/>
      <point x="624.2307692307693" y="-6.538461538461538" type="line"/>
      <point x="599.5307692307692" y="16.746153846153845" type="line"/>
      <point x="598.0153846153846" y="209.7923076923077" type="line"/>
      <point x="519.7692307692307" y="106.40769230769232"/>
      <point x="286.39230769230767" y="-10.0"/>
      <point x="215.3923076923077" y="-10.0" type="qcurve" smooth="yes"/>
      <point x="98.3923076923077" y="-10.0"/>
      <point x="3.853846153846156" y="139.0"/>
    </contour>
    <contour>
      <point x="150.14615384615385" y="300.0" type="qcurve" smooth="yes"/>
      <point x="150.14615384615385" y="181.47692307692307"/>
      <point x="200.68461538461537" y="80.63846153846154"/>
      <point x="269.68461538461537" y="80.63846153846154" type="qcurve" smooth="yes"/>
      <point x="403.7692307692308" y="80.63846153846154"/>
      <point x="629.6615384615385" y="331.9230769230769"/>
      <point x="657.9307692307692" y="491.0" type="qcurve" smooth="yes"/>
      <point x="717.6076923076923" y="815.4692307692308" type="line"/>
      <point x="712.7153846153847" y="844.1153846153846"/>
      <point x="648.6076923076923" y="872.0076923076923"/>
      <point x="607.6076923076923" y="872.0076923076923" type="qcurve" smooth="yes"/>
      <point x="408.60769230769233" y="872.0076923076923"/>
      <point x="150.14615384615385" y="519.0"/>
    </contour>
  </outline>
</glyph>
<glyph name="numero" format="2">
  <advance width="1906"/>
  <unicode hex="2116"/>
  <outline>
    <contour>
      <point x="1193.5" y="633.9615384615385" type="qcurve" smooth="yes"/>
      <point x="1200.446153846154" y="667.6846153846154"/>
      <point x="1201.446153846154" y="668.6846153846154"/>
      <point x="1474.746153846154" y="654.2230769230769" type="qcurve" smooth="yes"/>
      <point x="1775.1846153846154" y="637.9230769230769"/>
      <point x="1776.2384615384615" y="637.8692307692307"/>
      <point x="1770.9153846153847" y="600.9846153846154" type="qcurve" smooth="yes"/>
      <point x="1766.646153846154" y="571.3692307692307"/>
      <point x="1765.646153846154" y="571.3153846153846"/>
      <point x="1463.8" y="585.6153846153845" type="qcurve" smooth="yes"/>
      <point x="1187.5" y="598.9692307692308"/>
      <point x="1186.5" y="599.9692307692308"/>
    </contour>
    <contour>
      <point x="-103.52307692307693" y="0.0" type="line"/>
      <point x="-98.3076923076923" y="29.038461538461547" type="line"/>
      <point x="92.96153846153845" y="63.5" type="line"/>
      <point x="239.6153846153846" y="753.0538461538462" type="line"/>
      <point x="380.10769230769233" y="1432.9615384615386" type="line"/>
      <point x="201.83846153846153" y="1466.423076923077" type="line"/>
      <point x="208.2153846153846" y="1500.0" type="line"/>
      <point x="515.3307692307692" y="1500.0" type="line"/>
      <point x="716.7307692307693" y="787.8307692307692" type="line"/>
      <point x="884.4538461538461" y="202.86923076923077" type="line"/>
      <point x="1002.7076923076924" y="755.8923076923077" type="line"/>
      <point x="1141.3615384615384" y="1432.9615384615386" type="line"/>
      <point x="926.1692307692308" y="1466.423076923077" type="line"/>
      <point x="932.7076923076924" y="1500.0" type="line"/>
      <point x="1383.7230769230769" y="1500.0" type="line"/>
      <point x="1377.1846153846154" y="1466.423076923077" type="line"/>
      <point x="1181.2923076923078" y="1432.9615384615386" type="line"/>
      <point x="1036.8" y="753.0538461538462" type="line"/>
      <point x="883.0923076923077" y="0.0" type="line"/>
      <point x="773.0384615384615" y="0.0" type="line"/>
      <point x="563.4846153846154" y="738.5384615384615" type="line"/>
      <point x="398.7923076923077" y="1319.4846153846154" type="line"/>
      <point x="269.86923076923074" y="741.7" type="line"/>
      <point x="132.8923076923077" y="63.5" type="line"/>
      <point x="351.33076923076925" y="29.038461538461547" type="line"/>
      <point x="346.11538461538464" y="0.0" type="line"/>
    </contour>
    <contour>
      <point x="1311.6153846153845" y="1159.4076923076923" type="qcurve" smooth="yes"/>
      <point x="1351.6692307692308" y="1317.5846153846153"/>
      <point x="1585.0923076923077" y="1508.8615384615384"/>
      <point x="1703.646153846154" y="1499.5923076923077" type="qcurve" smooth="yes"/>
      <point x="1840.176923076923" y="1489.376923076923"/>
      <point x="1949.4076923076923" y="1246.2"/>
      <point x="1912.0307692307692" y="1102.4076923076923" type="qcurve" smooth="yes"/>
      <point x="1871.0846153846155" y="944.2307692307693"/>
      <point x="1645.2846153846153" y="745.9538461538461"/>
      <point x="1526.676923076923" y="753.3307692307692" type="qcurve" smooth="yes"/>
      <point x="1403.3923076923077" y="761.6538461538462"/>
      <point x="1273.2923076923078" y="1002.2076923076922"/>
    </contour>
    <contour>
      <point x="1459.423076923077" y="1154.0" type="qcurve" smooth="yes"/>
      <point x="1429.2076923076922" y="1022.3615384615384"/>
      <point x="1438.8153846153846" y="806.1"/>
      <point x="1531.2692307692307" y="798.9384615384615" type="qcurve" smooth="yes"/>
      <point x="1632.7230769230769" y="791.8307692307692"/>
      <point x="1736.7384615384615" y="984.2307692307693"/>
      <point x="1768.9" y="1122.0307692307692" type="qcurve" smooth="yes"/>
      <point x="1799.1153846153848" y="1249.5615384615385"/>
      <point x="1785.4" y="1448.446153846154"/>
      <point x="1692.946153846154" y="1455.553846153846" type="qcurve" smooth="yes"/>
      <point x="1591.4384615384615" y="1462.7153846153847"/>
      <point x="1490.476923076923" y="1285.6384615384616"/>
    </contour>
  </outline>
</glyph>
<glyph name="trademark" format="2">
  <advance width="1592"/>
  <unicode hex="2122"/>
  <outline>
    <contour>
      <point x="248.9076923076923" y="1261.2307692307693" type="line"/>
      <point x="251.81538461538463" y="1500.0" type="line"/>
      <point x="783.5384615384615" y="1500.0" type="line"/>
      <point x="780.6307692307693" y="1261.2307692307693" type="line"/>
      <point x="739.2384615384615" y="1261.2307692307693" type="line"/>
      <point x="695.6615384615385" y="1465.423076923077" type="line"/>
      <point x="590.0538461538462" y="1465.423076923077" type="line"/>
      <point x="575.9769230769231" y="1448.2615384615385" type="line"/>
      <point x="568.4461538461538" y="1189.5923076923077" type="line"/>
      <point x="570.3461538461538" y="927.0230769230769" type="line"/>
      <point x="665.9076923076923" y="901.4307692307692" type="line"/>
      <point x="665.0461538461539" y="875.9846153846154" type="line"/>
      <point x="344.66153846153844" y="875.9846153846154" type="line"/>
      <point x="345.5230769230769" y="901.4307692307692" type="line"/>
      <point x="455.9769230769231" y="927.0230769230769" type="line"/>
      <point x="458.7769230769231" y="1190.2923076923078" type="line"/>
      <point x="456.68461538461537" y="1448.2615384615385" type="line"/>
      <point x="450.2" y="1465.423076923077" type="line"/>
      <point x="337.53846153846155" y="1465.423076923077" type="line"/>
      <point x="290.3" y="1261.2307692307693" type="line"/>
    </contour>
    <contour>
      <point x="796.3461538461538" y="877.0384615384615" type="line"/>
      <point x="797.1538461538462" y="900.4307692307692" type="line"/>
      <point x="897.5" y="925.0230769230769" type="line"/>
      <point x="900.7615384615385" y="1165.753846153846" type="line"/>
      <point x="902.5615384615385" y="1442.2076923076922" type="line"/>
      <point x="811.376923076923" y="1471.476923076923" type="line"/>
      <point x="812.4000000000001" y="1500.0" type="line"/>
      <point x="1034.5153846153846" y="1500.0" type="line"/>
      <point x="1190.253846153846" y="1003.1923076923076" type="line"/>
      <point x="1363.5153846153846" y="1500.0" type="line"/>
      <point x="1592.4153846153845" y="1500.0" type="line"/>
      <point x="1591.3923076923077" y="1471.476923076923" type="line"/>
      <point x="1500.1" y="1442.2076923076922" type="line"/>
      <point x="1496.1923076923076" y="1202.5461538461539" type="line"/>
      <point x="1495.0384615384614" y="923.0230769230769" type="line"/>
      <point x="1585.6846153846154" y="898.4307692307692" type="line"/>
      <point x="1584.823076923077" y="875.9846153846154" type="line"/>
      <point x="1297.8384615384616" y="875.9846153846154" type="line"/>
      <point x="1298.7" y="898.4307692307692" type="line"/>
      <point x="1381.8846153846155" y="923.0230769230769" type="line"/>
      <point x="1385.146153846154" y="1202.5461538461539" type="line"/>
      <point x="1387.6769230769232" y="1444.753846153846" type="line"/>
      <point x="1191.0615384615385" y="868.9307692307692" type="line"/>
      <point x="1127.7230769230769" y="868.9307692307692" type="line"/>
      <point x="942.1153846153846" y="1426.6384615384616" type="line"/>
      <point x="937.3153846153846" y="1165.753846153846" type="line"/>
      <point x="936.1615384615385" y="925.0230769230769" type="line"/>
      <point x="1027.3461538461538" y="900.4307692307692" type="line"/>
      <point x="1026.5384615384614" y="877.0384615384615" type="line"/>
    </contour>
  </outline>
</glyph>
<glyph name="approxequal" format="2">
  <advance width="887"/>
  <unicode hex="2248"/>
  <outline>
    <contour>
      <point x="52.323076923076925" y="699.9076923076923" type="line"/>
      <point x="94.45384615384616" y="773.0384615384615"/>
      <point x="233.76923076923077" y="909.6384615384616"/>
      <point x="312.3076923076923" y="918.1538461538462" type="qcurve"/>
      <point x="610.8384615384615" y="797.3461538461538" type="line"/>
      <point x="665.1615384615385" y="797.3461538461538"/>
      <point x="745.8076923076924" y="887.2384615384616"/>
      <point x="772.1846153846154" y="926.1" type="qcurve"/>
      <point x="801.6307692307693" y="910.0538461538462" type="line"/>
      <point x="773.3923076923077" y="842.0076923076923"/>
      <point x="663.4538461538461" y="685.8692307692307"/>
      <point x="561.7307692307693" y="676.4076923076923" type="qcurve"/>
      <point x="281.46923076923076" y="790.1615384615385" type="line"/>
      <point x="227.0923076923077" y="790.1615384615385"/>
      <point x="121.5" y="723.8615384615384"/>
      <point x="75.85384615384615" y="679.4307692307692" type="qcurve"/>
    </contour>
    <contour>
      <point x="52.323076923076925" y="379.5153846153846" type="line"/>
      <point x="94.45384615384616" y="452.6461538461538"/>
      <point x="233.76923076923077" y="589.2461538461539"/>
      <point x="312.3076923076923" y="597.7615384615384" type="qcurve"/>
      <point x="610.8384615384615" y="476.95384615384614" type="line"/>
      <point x="665.1615384615385" y="476.95384615384614"/>
      <point x="745.8076923076924" y="565.9"/>
      <point x="772.1846153846154" y="605.7076923076924" type="qcurve"/>
      <point x="801.6307692307693" y="589.6615384615385" type="line"/>
      <point x="773.3923076923077" y="520.6692307692308"/>
      <point x="663.4538461538461" y="365.4769230769231"/>
      <point x="561.7307692307693" y="356.0153846153846" type="qcurve"/>
      <point x="281.46923076923076" y="469.7692307692308" type="line"/>
      <point x="227.0923076923077" y="469.7692307692308"/>
      <point x="121.5" y="403.46923076923076"/>
      <point x="75.85384615384615" y="359.03846153846155" type="qcurve"/>
    </contour>
  </outline>
</glyph>
<glyph name="greaterequal" format="2">
  <advance width="887"/>
  <unicode hex="2265"/>
  <outline>
    <contour>
      <point x="38.238461538461536" y="27.076923076923077" type="line"/>
      <point x="38.238461538461536" y="134.6076923076923" type="line"/>
      <point x="653.0076923076923" y="134.6076923076923" type="line"/>
      <point x="653.0076923076923" y="27.076923076923077" type="line"/>
    </contour>
    <contour>
      <point x="149.98461538461538" y="354.31538461538463" type="qcurve" smooth="yes"/>
      <point x="256.0846153846154" y="434.03846153846155"/>
      <point x="530.876923076923" y="624.2615384615385"/>
      <point x="562.0307692307692" y="637.8" type="qcurve"/>
      <point x="531.6307692307693" y="649.4461538461538"/>
      <point x="244.85384615384615" y="854.6153846153846"/>
      <point x="157.42307692307693" y="922.876923076923" type="qcurve"/>
      <point x="149.10769230769233" y="930.4615384615385"/>
      <point x="191.23076923076923" y="999.6461538461539"/>
      <point x="202.86923076923077" y="992.3307692307692" type="qcurve" smooth="yes"/>
      <point x="298.7153846153846" y="945.2769230769231"/>
      <point x="744.5076923076923" y="664.1307692307693"/>
      <point x="746.4" y="637.6384615384616" type="qcurve"/>
      <point x="724.6384615384616" y="605.4692307692308"/>
      <point x="257.13846153846157" y="317.66923076923075"/>
      <point x="195.3846153846154" y="283.8076923076923" type="qcurve" smooth="yes"/>
      <point x="183.77692307692308" y="276.4923076923077"/>
      <point x="140.64615384615385" y="344.89230769230767"/>
    </contour>
  </outline>
</glyph>
<glyph name="leftanglebracket" format="2">
  <advance width="983"/>
  <unicode hex="27E8"/>
  <outline>
    <contour>
      <point x="1049.7692307692307" y="1518.0" type="line"/>
      <point x="1080.8153846153846" y="1475.9538461538461" type="line"/>
      <point x="198.76923076923077" y="710.0" type="line"/>
      <point x="760.9153846153846" y="-139.76923076923077" type="line"/>
      <point x="713.7692307692307" y="-177.0" type="line"/>
      <point x="27.769230769230774" y="688.2307692307693" type="line"/>
      <point x="27.769230769230774" y="734.7692307692307" type="line"/>
    </contour>
  </outline>
</glyph>
<glyph name="rightanglebracket" format="2">
  <advance width="983"/>
  <unicode hex="27E9"/>
  <outline>
    <contour>
      <point x="-99.0" y="-177.0" type="line"/>
      <point x="-166.0" y="-99.0" type="line"/>
      <point x="752.0" y="631.0" type="line"/>
      <point x="117.0" y="1424.0" type="line"/>
      <point x="237.0" y="1518.0" type="line"/>
      <point x="923.0" y="719.0" type="line"/>
      <point x="923.0" y="540.0" type="line"/>
    </contour>
  </outline>
</glyph>
<glyph name="fi" format="2">
  <advance width="984"/>
  <unicode hex="FB01"/>
  <outline>
    <contour>
      <point x="83.31538461538462" y="305.6461538461538" type="qcurve" smooth="yes"/>
      <point x="171.52307692307693" y="854.8538461538461" type="line"/>
      <point x="174.06153846153848" y="861.5769230769231" type="line"/>
      <point x="221.3846153846154" y="1111.4692307692308" type="line" smooth="yes"/>
      <point x="264.9769230769231" y="1340.8153846153846"/>
      <point x="459.76153846153846" y="1552.6692307692308"/>
      <point x="586.7923076923078" y="1551.7230769230769" type="qcurve" smooth="yes"/>
      <point x="681.2538461538461" y="1550.7769230769231"/>
      <point x="789.2538461538461" y="1479.6153846153845"/>
      <point x="786.4153846153846" y="1408.8" type="qcurve" smooth="yes"/>
      <point x="784.5230769230769" y="1350.7692307692307"/>
      <point x="713.4923076923077" y="1299.7692307692307"/>
      <point x="649.5923076923077" y="1299.7692307692307" type="qcurve" smooth="yes"/>
      <point x="652.5153846153846" y="1326.2615384615385"/>
      <point x="657.8692307692307" y="1404.3307692307692"/>
      <point x="658.8153846153846" y="1435.576923076923" type="qcurve" smooth="yes"/>
      <point x="660.7076923076924" y="1472.0384615384614"/>
      <point x="631.3615384615384" y="1513.5"/>
      <point x="589.7923076923078" y="1514.446153846154" type="qcurve" smooth="yes"/>
      <point x="521.223076923077" y="1516.3384615384616"/>
      <point x="398.95384615384614" y="1343.076923076923"/>
      <point x="355.76153846153846" y="1089.3846153846155" type="qcurve" smooth="yes"/>
      <point x="318.6" y="862.3076923076923" type="line"/>
      <point x="317.6" y="854.3384615384615" type="line"/>
      <point x="273.18461538461537" y="563.7153846153847" type="line" smooth="yes"/>
      <point x="188.96923076923076" y="11.400000000000006"/>
      <point x="-144.3076923076923" y="-477.2769230769231"/>
      <point x="-329.1" y="-477.2769230769231" type="qcurve"/>
      <point x="-488.44615384615383" y="-418.24615384615385" type="line"/>
      <point x="-476.66153846153844" y="-390.15384615384613" type="line"/>
      <point x="-345.5" y="-390.04615384615386" type="line" smooth="yes"/>
      <point x="-148.96923076923076" y="-389.9384615384615"/>
      <point x="18.47692307692308" y="-105.80000000000001"/>
    </contour>
    <contour>
      <point x="8.60769230769231" y="832.776923076923" type="line"/>
      <point x="10.176923076923082" y="866.0923076923077" type="line"/>
      <point x="196.46923076923076" y="873.0846153846154" type="line"/>
      <point x="655.1" y="885.3846153846154" type="line"/>
      <point x="648.8846153846154" y="851.376923076923" type="line"/>
      <point x="239.94615384615383" y="837.5615384615385" type="line"/>
      <point x="198.36153846153846" y="826.1846153846154" type="line"/>
    </contour>
    <contour>
      <point x="561.7846153846153" y="-14.376923076923077" type="line"/>
      <point x="513.2153846153847" y="61.37692307692308" type="line"/>
      <point x="617.623076923077" y="545.9230769230769" type="line"/>
      <point x="674.8384615384615" y="833.376923076923" type="line"/>
      <point x="532.3923076923077" y="851.4846153846154" type="line"/>
      <point x="535.2846153846153" y="876.8461538461538" type="line"/>
      <point x="808.9846153846154" y="926.9538461538461" type="line"/>
      <point x="838.3" y="913.7076923076924" type="line"/>
      <point x="826.7461538461539" y="843.123076923077" type="line"/>
      <point x="779.5307692307692" y="669.8461538461538" type="line"/>
      <point x="669.7230769230769" y="87.01538461538462" type="line"/>
      <point x="847.4769230769231" y="105.33846153846153" type="line"/>
      <point x="847.4769230769231" y="81.67692307692307" type="line"/>
    </contour>
  </outline>
</glyph>
<glyph name="fl" format="2">
  <advance width="981"/>
  <unicode hex="FB02"/>
  <outline>
    <contour>
      <point x="-469.5230769230769" y="-418.24615384615385" type="line"/>
      <point x="-457.73846153846154" y="-390.15384615384613" type="line"/>
      <point x="-345.5" y="-390.04615384615386" type="line" smooth="yes"/>
      <point x="-148.96923076923076" y="-389.9384615384615"/>
      <point x="18.47692307692308" y="-105.80000000000001"/>
      <point x="83.31538461538462" y="305.6461538461538" type="qcurve" smooth="yes"/>
      <point x="171.52307692307693" y="854.8538461538461" type="line"/>
      <point x="174.06153846153848" y="861.5769230769231" type="line"/>
      <point x="221.3846153846154" y="1111.4692307692308" type="line" smooth="yes"/>
      <point x="264.9769230769231" y="1340.8153846153846"/>
      <point x="441.7846153846154" y="1552.6692307692308"/>
      <point x="568.8153846153846" y="1551.7230769230769" type="qcurve" smooth="yes"/>
      <point x="663.2769230769231" y="1550.7769230769231"/>
      <point x="736.2692307692307" y="1482.4538461538461"/>
      <point x="731.5384615384615" y="1431.5076923076922" type="qcurve" smooth="yes"/>
      <point x="727.7538461538461" y="1389.5615384615385"/>
      <point x="660.5076923076923" y="1349.9153846153847"/>
      <point x="610.8" y="1354.6461538461538" type="qcurve" smooth="yes"/>
      <point x="616.5615384615385" y="1378.3"/>
      <point x="624.7538461538461" y="1428.9307692307693"/>
      <point x="625.7" y="1451.6615384615384" type="qcurve" smooth="yes"/>
      <point x="625.7" y="1478.6615384615384"/>
      <point x="602.0307692307692" y="1511.6076923076923"/>
      <point x="563.3" y="1511.6076923076923" type="qcurve" smooth="yes"/>
      <point x="502.3" y="1511.6076923076923"/>
      <point x="399.9" y="1342.1307692307691"/>
      <point x="356.7076923076923" y="1089.3846153846155" type="qcurve" smooth="yes"/>
      <point x="317.6538461538462" y="862.3076923076923" type="line"/>
      <point x="316.6538461538462" y="855.2846153846153" type="line"/>
      <point x="273.18461538461537" y="563.7153846153847" type="line" smooth="yes"/>
      <point x="190.86153846153846" y="11.400000000000006"/>
      <point x="-144.3076923076923" y="-477.2769230769231"/>
      <point x="-329.1" y="-477.2769230769231" type="qcurve"/>
    </contour>
    <contour>
      <point x="8.60769230769231" y="828.0461538461539" type="line"/>
      <point x="8.284615384615385" y="860.4153846153846" type="line"/>
      <point x="187.95384615384614" y="873.0846153846154" type="line"/>
      <point x="711.7230769230769" y="880.6538461538462" type="line"/>
      <point x="705.5076923076923" y="846.6461538461539" type="line"/>
      <point x="230.48461538461538" y="832.8307692307692" type="line"/>
      <point x="187.95384615384614" y="825.2384615384616" type="line"/>
    </contour>
    <contour>
      <point x="518.2846153846153" y="19.115384615384613" type="line"/>
      <point x="628.3461538461538" y="576.1076923076923" type="line"/>
      <point x="769.5153846153846" y="1381.8461538461538" type="line"/>
      <point x="663.5153846153846" y="1422.7153846153847" type="line"/>
      <point x="667.2461538461539" y="1457.0" type="line"/>
      <point x="908.1307692307693" y="1536.5692307692307" type="line"/>
      <point x="938.8230769230769" y="1514.746153846154" type="line"/>
      <point x="772.2538461538461" y="636.7307692307693" type="line"/>
      <point x="671.1076923076923" y="108.30000000000001" type="line"/>
      <point x="846.4076923076923" y="108.45384615384616" type="line"/>
      <point x="856.9615384615385" y="92.5" type="line"/>
      <point x="563.6538461538462" y="-7.799999999999997" type="line"/>
    </contour>
  </outline>
</glyph>
<glyph name="acutecomb.case" format="2">
  <advance width="903"/>
  <outline>
    <contour>
      <point x="532.8461538461538" y="1600.4153846153847" type="line"/>
      <point x="551.2692307692307" y="1580.6461538461538" type="line"/>
      <point x="834.5846153846154" y="1763.053846153846" type="line" smooth="yes"/>
      <point x="856.4692307692308" y="1776.9153846153847"/>
      <point x="881.0" y="1814.5846153846153"/>
      <point x="881.0" y="1833.7692307692307" type="qcurve" smooth="yes"/>
      <point x="881.0" y="1860.523076923077"/>
      <point x="848.7076923076924" y="1894.1384615384616"/>
      <point x="818.1692307692308" y="1894.1384615384616" type="qcurve" smooth="yes"/>
      <point x="799.9307692307692" y="1894.1384615384616"/>
      <point x="758.3692307692307" y="1870.3076923076924"/>
      <point x="735.2384615384615" y="1843.6615384615384" type="qcurve" smooth="yes"/>
    </contour>
  </outline>
</glyph>
<glyph name="acutecombstack.case" format="2">
  <advance width="903"/>
  <outline>
    <contour>
      <point x="818.2076923076924" y="1809.7153846153847" type="qcurve" smooth="yes"/>
      <point x="818.2076923076924" y="1791.0692307692307"/>
      <point x="795.3461538461538" y="1755.1538461538462"/>
      <point x="775.0230769230769" y="1740.7230769230769" type="qcurve" smooth="yes"/>
      <point x="551.2153846153847" y="1579.0846153846153" type="line"/>
      <point x="532.0384615384615" y="1597.4" type="line"/>
      <point x="673.1461538461539" y="1817.076923076923" type="line" smooth="yes"/>
      <point x="691.0615384615385" y="1844.423076923077"/>
      <point x="731.623076923077" y="1871.0076923076922"/>
      <point x="754.1846153846154" y="1871.0076923076922" type="qcurve" smooth="yes"/>
      <point x="784.1307692307693" y="1871.0076923076922"/>
      <point x="818.2076923076924" y="1836.4692307692308"/>
    </contour>
  </outline>
</glyph>
<glyph name="brevebelowcomb" format="2">
  <advance width="903"/>
  <outline>
    <contour>
      <point x="510.73846153846154" y="-103.22307692307692" type="qcurve"/>
      <point x="539.4846153846154" y="-119.32307692307693" type="line"/>
      <point x="500.32307692307694" y="-201.23846153846154"/>
      <point x="320.46923076923076" y="-331.44615384615383"/>
      <point x="216.01538461538462" y="-331.44615384615383" type="qcurve" smooth="yes"/>
      <point x="115.34615384615384" y="-331.44615384615383"/>
      <point x="-23.646153846153837" y="-198.26153846153846"/>
      <point x="-18.130769230769232" y="-107.18461538461538" type="qcurve"/>
      <point x="21.400000000000006" y="-90.86923076923077" type="line"/>
      <point x="39.45384615384617" y="-144.35384615384615"/>
      <point x="154.93846153846155" y="-231.26923076923077"/>
      <point x="231.06923076923078" y="-231.26923076923077" type="qcurve" smooth="yes"/>
      <point x="310.36153846153843" y="-231.26923076923077"/>
      <point x="477.4153846153846" y="-146.76153846153846"/>
    </contour>
  </outline>
</glyph>
<glyph name="breveinvertedcomb" format="2">
  <advance width="903"/>
  <outline>
    <contour>
      <point x="303.75384615384615" y="1093.523076923077" type="qcurve"/>
      <point x="266.7076923076923" y="1120.9769230769232" type="line"/>
      <point x="307.6538461538462" y="1205.7307692307693"/>
      <point x="489.70000000000005" y="1315.123076923077"/>
      <point x="597.6153846153846" y="1306.6076923076923" type="qcurve" smooth="yes"/>
      <point x="705.4769230769231" y="1296.2"/>
      <point x="816.5461538461539" y="1169.6384615384616"/>
      <point x="816.7076923076924" y="1084.2384615384615" type="qcurve"/>
      <point x="771.7153846153847" y="1065.0846153846153" type="line"/>
      <point x="752.7692307692307" y="1119.5153846153846"/>
      <point x="654.6923076923077" y="1195.076923076923"/>
      <point x="578.7769230769231" y="1202.6461538461538" type="qcurve" smooth="yes"/>
      <point x="494.13076923076926" y="1210.2153846153847"/>
      <point x="352.10769230769233" y="1144.6307692307691"/>
    </contour>
  </outline>
</glyph>
<glyph name="circumflexcomb.case" format="2">
  <advance width="903"/>
  <outline>
    <contour>
      <point x="728.1769230769231" y="1904.923076923077" type="qcurve" smooth="yes"/>
      <point x="758.3923076923077" y="1903.9769230769232"/>
      <point x="779.2538461538461" y="1860.623076923077"/>
      <point x="793.8461538461538" y="1817.7307692307693" type="qcurve" smooth="yes"/>
      <point x="882.3692307692309" y="1588.6538461538462" type="line"/>
      <point x="860.2769230769231" y="1571.2076923076922" type="line"/>
      <point x="699.3923076923077" y="1764.9846153846154" type="line"/>
      <point x="418.9384615384615" y="1583.1" type="line"/>
      <point x="393.0846153846154" y="1600.623076923077" type="line"/>
      <point x="613.5846153846154" y="1822.4615384615386" type="line" smooth="yes"/>
      <point x="661.9615384615385" y="1872.0846153846153"/>
      <point x="697.9615384615385" y="1906.8153846153846"/>
    </contour>
  </outline>
</glyph>
<glyph name="commaaccentcomb.case" format="2">
  <advance width="903"/>
  <outline>
    <contour>
      <point x="72.43076923076924" y="-532.6153846153846" type="qcurve"/>
      <point x="90.04615384615386" y="-557.3923076923077" type="line"/>
      <point x="200.75384615384615" y="-490.2"/>
      <point x="355.70000000000005" y="-322.6615384615385"/>
      <point x="355.70000000000005" y="-238.3923076923077" type="qcurve" smooth="yes"/>
      <point x="356.6461538461539" y="-188.15384615384616"/>
      <point x="298.5692307692308" y="-123.75384615384615"/>
      <point x="250.40769230769232" y="-123.75384615384615" type="qcurve" smooth="yes"/>
      <point x="204.9230769230769" y="-123.75384615384615"/>
      <point x="138.3846153846154" y="-185.4"/>
      <point x="138.3846153846154" y="-232.5076923076923" type="qcurve" smooth="yes"/>
      <point x="138.3846153846154" y="-275.9384615384615"/>
      <point x="199.76153846153846" y="-336.2076923076923"/>
      <point x="252.24615384615385" y="-336.2076923076923" type="qcurve"/>
      <point x="238.03076923076924" y="-381.5846153846154"/>
      <point x="137.9230769230769" y="-484.74615384615385"/>
    </contour>
  </outline>
</glyph>
<glyph name="commaaccentcomb" format="2">
  <advance width="903"/>
  <outline>
    <contour>
      <point x="68.64615384615385" y="-503.0923076923077" type="qcurve"/>
      <point x="86.26153846153846" y="-526.9230769230769" type="line"/>
      <point x="194.13076923076923" y="-461.62307692307695"/>
      <point x="345.2923076923077" y="-297.86923076923074"/>
      <point x="345.2923076923077" y="-215.4923076923077" type="qcurve" smooth="yes"/>
      <point x="346.23846153846154" y="-166.2"/>
      <point x="289.10769230769233" y="-104.01538461538462"/>
      <point x="242.83846153846156" y="-104.01538461538462" type="qcurve" smooth="yes"/>
      <point x="198.3" y="-104.01538461538462"/>
      <point x="132.7076923076923" y="-163.44615384615383"/>
      <point x="132.7076923076923" y="-209.6076923076923" type="qcurve" smooth="yes"/>
      <point x="132.7076923076923" y="-252.0923076923077"/>
      <point x="193.13846153846154" y="-310.46923076923076"/>
      <point x="244.67692307692306" y="-310.46923076923076" type="qcurve"/>
      <point x="230.46153846153845" y="-354.9"/>
      <point x="132.24615384615385" y="-456.1692307692308"/>
    </contour>
  </outline>
</glyph>
<glyph name="dblgravecomb.case" format="2">
  <advance width="903"/>
  <outline>
    <contour>
      <point x="331.26153846153846" y="1865.423076923077" type="qcurve" smooth="yes"/>
      <point x="331.26153846153846" y="1894.8"/>
      <point x="371.0692307692308" y="1930.6076923076923"/>
      <point x="398.55384615384617" y="1930.6076923076923" type="qcurve" smooth="yes"/>
      <point x="419.4153846153846" y="1930.6076923076923"/>
      <point x="455.81538461538463" y="1903.7769230769231"/>
      <point x="468.89230769230767" y="1882.7" type="qcurve" smooth="yes"/>
      <point x="635.7538461538461" y="1608.5" type="line"/>
      <point x="610.7923076923078" y="1589.1615384615384" type="line"/>
      <point x="365.38461538461536" y="1796.5153846153846" type="line" smooth="yes"/>
      <point x="348.1461538461539" y="1811.4846153846154"/>
      <point x="331.26153846153846" y="1846.4538461538461"/>
    </contour>
    <contour>
      <point x="652.1923076923077" y="1865.423076923077" type="qcurve" smooth="yes"/>
      <point x="652.1923076923077" y="1894.8"/>
      <point x="692.0" y="1930.6076923076923"/>
      <point x="719.4846153846154" y="1930.6076923076923" type="qcurve" smooth="yes"/>
      <point x="740.3461538461538" y="1930.6076923076923"/>
      <point x="776.7461538461539" y="1903.7769230769231"/>
      <point x="789.823076923077" y="1882.7" type="qcurve" smooth="yes"/>
      <point x="956.6846153846154" y="1608.5" type="line"/>
      <point x="931.7230769230769" y="1589.1615384615384" type="line"/>
      <point x="686.3153846153846" y="1796.5153846153846" type="line" smooth="yes"/>
      <point x="669.0769230769231" y="1811.4846153846154"/>
      <point x="652.1923076923077" y="1846.4538461538461"/>
    </contour>
  </outline>
</glyph>
<glyph name="dblgravecomb" format="2">
  <advance width="903"/>
  <outline>
    <contour>
      <point x="284.1" y="1351.8461538461538" type="qcurve" smooth="yes"/>
      <point x="292.4230769230769" y="1374.4384615384615"/>
      <point x="349.12307692307695" y="1397.4923076923078"/>
      <point x="376.44615384615383" y="1385.3846153846155" type="qcurve" smooth="yes"/>
      <point x="399.9846153846154" y="1374.2230769230769"/>
      <point x="425.0923076923077" y="1313.2"/>
      <point x="434.36153846153843" y="1273.6615384615384" type="qcurve" smooth="yes"/>
      <point x="486.0846153846154" y="1059.0" type="line"/>
      <point x="454.1" y="1043.5461538461539" type="line"/>
      <point x="312.36923076923074" y="1240.9076923076923" type="line" smooth="yes"/>
      <point x="290.31538461538463" y="1273.6076923076923"/>
      <point x="273.83076923076925" y="1326.4153846153847"/>
    </contour>
    <contour>
      <point x="532.4461538461538" y="1351.253846153846" type="qcurve" smooth="yes"/>
      <point x="540.8230769230769" y="1373.8461538461538"/>
      <point x="597.5230769230769" y="1396.9"/>
      <point x="624.8461538461538" y="1384.7923076923078" type="qcurve" smooth="yes"/>
      <point x="648.3846153846154" y="1373.576923076923"/>
      <point x="673.7615384615385" y="1312.6076923076923"/>
      <point x="683.0307692307692" y="1273.0153846153846" type="qcurve" smooth="yes"/>
      <point x="734.4846153846154" y="1058.3538461538462" type="line"/>
      <point x="702.5" y="1042.9538461538461" type="line"/>
      <point x="561.0384615384615" y="1240.2615384615385" type="line" smooth="yes"/>
      <point x="539.0384615384615" y="1272.9615384615386"/>
      <point x="522.2307692307693" y="1325.823076923077"/>
    </contour>
  </outline>
</glyph>
<glyph name="diagonalbarO" format="2">
  <advance width="623"/>
  <outline>
    <contour>
      <point x="-87.04615384615386" y="-107.8076923076923" type="line"/>
      <point x="-3.292307692307695" y="69.91538461538462" type="line"/>
      <point x="-2.3769230769230774" y="69.64615384615385" type="line"/>
      <point x="338.7" y="816.123076923077" type="line"/>
      <point x="376.9307692307692" y="791.6461538461539" type="line"/>
      <point x="37.93076923076923" y="42.64615384615385" type="line"/>
      <point x="38.95384615384616" y="42.43076923076923" type="line"/>
      <point x="-34.04615384615384" y="-116.56923076923077" type="line"/>
    </contour>
    <contour>
      <point x="693.4923076923077" y="1606.6461538461538" type="line"/>
      <point x="747.1692307692308" y="1606.6461538461538" type="line"/>
      <point x="657.1692307692308" y="1412.6461538461538" type="line"/>
      <point x="656.0384615384615" y="1411.9153846153847" type="line"/>
      <point x="376.9307692307692" y="791.6461538461539" type="line"/>
      <point x="338.7" y="816.123076923077" type="line"/>
      <point x="613.0" y="1430.4" type="line"/>
      <point x="611.9769230769231" y="1430.6692307692308" type="line"/>
    </contour>
  </outline>
</glyph>
<glyph name="diagonalbarl" format="2">
  <advance width="629"/>
  <outline>
    <contour>
      <point x="336.0" y="807.0" type="line"/>
      <point x="643.0" y="1026.0" type="line"/>
      <point x="696.0" y="884.0" type="line"/>
      <point x="388.0" y="690.0" type="line"/>
      <point x="79.0" y="469.0" type="line"/>
      <point x="23.0" y="614.0" type="line"/>
    </contour>
  </outline>
</glyph>
<glyph name="diagonalbaro" format="2">
  <advance width="512"/>
  <outline>
    <contour>
      <point x="-77.58461538461539" y="-107.8076923076923" type="line"/>
      <point x="0.49230769230769056" y="56.669230769230765" type="line"/>
      <point x="1.407692307692308" y="56.400000000000006" type="line"/>
      <point x="225.94615384615383" y="535.6923076923077" type="line"/>
      <point x="257.5" y="516.8923076923077" type="line"/>
      <point x="36.03846153846155" y="34.13076923076923" type="line"/>
      <point x="37.06153846153846" y="33.91538461538462" type="line"/>
      <point x="-35.63846153846154" y="-110.8076923076923" type="line"/>
    </contour>
    <contour>
      <point x="475.3538461538462" y="1085.3923076923077" type="line"/>
      <point x="522.4076923076923" y="1085.3923076923077" type="line"/>
      <point x="437.0846153846154" y="900.8538461538461" type="line"/>
      <point x="436.0076923076923" y="901.0692307692308" type="line"/>
      <point x="257.5" y="516.8923076923077" type="line"/>
      <point x="225.94615384615383" y="535.6923076923077" type="line"/>
      <point x="404.2692307692308" y="928.0692307692308" type="line"/>
      <point x="403.24615384615385" y="928.3384615384615" type="line"/>
    </contour>
  </outline>
</glyph>
<glyph name="dieresisbelowcomb" format="2">
  <advance width="903"/>
  <outline>
    <contour>
      <point x="42.30769230769232" y="-255.69230769230768" type="qcurve" smooth="yes"/>
      <point x="42.30769230769232" y="-211.1"/>
      <point x="99.46923076923076" y="-154.93846153846152"/>
      <point x="145.06153846153848" y="-154.93846153846152" type="qcurve" smooth="yes"/>
      <point x="190.4923076923077" y="-154.93846153846152"/>
      <point x="247.81538461538463" y="-211.31538461538463"/>
      <point x="247.81538461538463" y="-255.69230769230768" type="qcurve" smooth="yes"/>
      <point x="247.81538461538463" y="-299.2846153846154"/>
      <point x="190.7076923076923" y="-355.44615384615383"/>
      <point x="145.06153846153848" y="-355.44615384615383" type="qcurve" smooth="yes"/>
      <point x="99.63076923076926" y="-355.44615384615383"/>
      <point x="42.30769230769232" y="-299.12307692307695"/>
    </contour>
    <contour>
      <point x="341.38461538461536" y="-255.69230769230768" type="qcurve" smooth="yes"/>
      <point x="341.38461538461536" y="-211.1"/>
      <point x="398.54615384615386" y="-154.93846153846152"/>
      <point x="444.1384615384615" y="-154.93846153846152" type="qcurve" smooth="yes"/>
      <point x="489.5692307692308" y="-154.93846153846152"/>
      <point x="546.8923076923077" y="-211.31538461538463"/>
      <point x="546.8923076923077" y="-255.69230769230768" type="qcurve" smooth="yes"/>
      <point x="546.8923076923077" y="-299.2846153846154"/>
      <point x="489.78461538461534" y="-355.44615384615383"/>
      <point x="444.1384615384615" y="-355.44615384615383" type="qcurve" smooth="yes"/>
      <point x="398.7076923076923" y="-355.44615384615383"/>
      <point x="341.38461538461536" y="-299.12307692307695"/>
    </contour>
  </outline>
</glyph>
<glyph name="dieresiscombstack.case" format="2">
  <advance width="1024"/>
  <outline>
    <contour>
      <point x="419.0" y="1748.0" type="qcurve" smooth="yes"/>
      <point x="419.0" y="1799.0"/>
      <point x="486.0" y="1865.0"/>
      <point x="537.0" y="1865.0" type="qcurve" smooth="yes"/>
      <point x="589.0" y="1865.0"/>
      <point x="656.0" y="1799.0"/>
      <point x="656.0" y="1748.0" type="qcurve" smooth="yes"/>
      <point x="656.0" y="1698.0"/>
      <point x="589.0" y="1633.0"/>
      <point x="537.0" y="1633.0" type="qcurve" smooth="yes"/>
      <point x="486.0" y="1633.0"/>
      <point x="419.0" y="1698.0"/>
    </contour>
    <contour>
      <point x="879.0" y="1748.0" type="qcurve" smooth="yes"/>
      <point x="879.0" y="1799.0"/>
      <point x="946.0" y="1865.0"/>
      <point x="997.0" y="1865.0" type="qcurve" smooth="yes"/>
      <point x="1049.0" y="1865.0"/>
      <point x="1116.0" y="1799.0"/>
      <point x="1116.0" y="1748.0" type="qcurve" smooth="yes"/>
      <point x="1116.0" y="1698.0"/>
      <point x="1049.0" y="1633.0"/>
      <point x="997.0" y="1633.0" type="qcurve" smooth="yes"/>
      <point x="946.0" y="1633.0"/>
      <point x="879.0" y="1698.0"/>
    </contour>
  </outline>
</glyph>
<glyph name="dotbelowcomb.case" format="2">
  <advance width="903"/>
  <outline>
    <contour>
      <point x="206.63846153846154" y="-229.33846153846153" type="qcurve" smooth="yes"/>
      <point x="206.63846153846154" y="-179.1769230769231"/>
      <point x="261.55384615384617" y="-125.31538461538462"/>
      <point x="312.7692307692308" y="-125.31538461538462" type="qcurve" smooth="yes"/>
      <point x="361.1461538461539" y="-125.31538461538462"/>
      <point x="418.9" y="-182.96153846153845"/>
      <point x="418.9" y="-229.33846153846153" type="qcurve" smooth="yes"/>
      <point x="418.9" y="-279.5"/>
      <point x="363.9846153846154" y="-333.36153846153843"/>
      <point x="312.7692307692308" y="-333.36153846153843" type="qcurve" smooth="yes"/>
      <point x="264.39230769230767" y="-333.36153846153843"/>
      <point x="206.63846153846154" y="-275.7153846153846"/>
    </contour>
  </outline>
</glyph>
<glyph name="dotbelowcomb" format="2">
  <advance width="903"/>
  <outline>
    <contour>
      <point x="173.84615384615387" y="-201.5769230769231" type="qcurve" smooth="yes"/>
      <point x="173.84615384615387" y="-160.76923076923077"/>
      <point x="227.22307692307692" y="-104.55384615384617"/>
      <point x="272.9230769230769" y="-104.55384615384617" type="qcurve" smooth="yes"/>
      <point x="318.4076923076923" y="-104.55384615384617"/>
      <point x="377.67692307692306" y="-162.87692307692308"/>
      <point x="377.67692307692306" y="-207.25384615384615" type="qcurve" smooth="yes"/>
      <point x="377.67692307692306" y="-248.1153846153846"/>
      <point x="323.3538461538462" y="-303.38461538461536"/>
      <point x="277.6538461538462" y="-303.38461538461536" type="qcurve" smooth="yes"/>
      <point x="232.16923076923078" y="-303.38461538461536"/>
      <point x="173.84615384615387" y="-246.0076923076923"/>
    </contour>
  </outline>
</glyph>
<glyph name="engn" format="2">
  <advance width="979"/>
  <outline>
    <contour>
      <point x="28.376923076923077" y="-11.646153846153847" type="line"/>
      <point x="26.115384615384613" y="49.37692307692308" type="line"/>
      <point x="117.76153846153846" y="491.9923076923077" type="line"/>
      <point x="172.60000000000002" y="825.7846153846153" type="line"/>
      <point x="43.846153846153854" y="850.1692307692308" type="line"/>
      <point x="43.95384615384616" y="874.3153846153846" type="line"/>
      <point x="299.8538461538462" y="927.2" type="line"/>
      <point x="314.63076923076926" y="913.9538461538461" type="line"/>
      <point x="285.1846153846154" y="658.4153846153846" type="line"/>
      <point x="275.83846153846156" y="629.6307692307693" type="line"/>
      <point x="177.46153846153845" y="87.0" type="line"/>
      <point x="179.13076923076923" y="13.461538461538462" type="line"/>
    </contour>
    <contour>
      <point x="244.86923076923077" y="624.4384615384615" type="line"/>
      <point x="310.81538461538463" y="728.1692307692308"/>
      <point x="578.7" y="946.2538461538461"/>
      <point x="664.5307692307692" y="946.2538461538461" type="qcurve" smooth="yes"/>
      <point x="739.4692307692308" y="946.2538461538461"/>
      <point x="848.8153846153846" y="779.6"/>
      <point x="830.2769230769231" y="695.6384615384616" type="qcurve" smooth="yes"/>
      <point x="687.7384615384615" y="0.0" type="line"/>
      <point x="545.7153846153847" y="0.0" type="line"/>
      <point x="688.6615384615385" y="696.3230769230769" type="line" smooth="yes"/>
      <point x="703.7692307692307" y="769.8615384615384"/>
      <point x="644.6307692307693" y="871.3230769230769"/>
      <point x="598.8538461538461" y="871.3230769230769" type="qcurve" smooth="yes"/>
      <point x="528.2923076923078" y="871.3230769230769"/>
      <point x="345.5769230769231" y="717.9769230769231"/>
      <point x="257.3538461538462" y="597.8307692307692" type="qcurve"/>
    </contour>
  </outline>
</glyph>
<glyph name="engtail" format="2">
  <advance width="629"/>
  <outline>
    <contour>
      <point x="-107" y="-245" type="qcurve"/>
      <point x="-74" y="-214" type="line"/>
      <point x="-40" y="-255"/>
      <point x="37" y="-288"/>
      <point x="78" y="-288" type="qcurve" smooth="yes"/>
      <point x="136" y="-288"/>
      <point x="216" y="-225"/>
      <point x="232" y="-148" type="qcurve" smooth="yes"/>
      <point x="293" y="148" type="line"/>
      <point x="345" y="190" type="line"/>
      <point x="444" y="190" type="line"/>
      <point x="384" y="-111" type="line" smooth="yes"/>
      <point x="362" y="-218"/>
      <point x="227" y="-359"/>
      <point x="95" y="-359" type="qcurve" smooth="yes"/>
      <point x="23" y="-359"/>
      <point x="-88" y="-286"/>
    </contour>
  </outline>
</glyph>
<glyph name="gravecombstack.case" format="2">
  <advance width="903"/>
  <outline>
    <contour>
      <point x="531.9538461538461" y="1795.2" type="qcurve" smooth="yes"/>
      <point x="531.9538461538461" y="1826.6846153846154"/>
      <point x="572.0846153846154" y="1869.1153846153845"/>
      <point x="607.8153846153846" y="1869.1153846153845" type="qcurve" smooth="yes"/>
      <point x="633.4076923076923" y="1869.1153846153845"/>
      <point x="667.6461538461539" y="1837.9846153846154"/>
      <point x="677.9384615384615" y="1811.1538461538462" type="qcurve" smooth="yes"/>
      <point x="758.5769230769231" y="1598.2384615384615" type="line"/>
      <point x="734.4" y="1579.0846153846153" type="line"/>
      <point x="565.8923076923077" y="1731.8307692307692" type="line" smooth="yes"/>
      <point x="549.3538461538461" y="1746.4769230769232"/>
      <point x="531.9538461538461" y="1779.6615384615384"/>
    </contour>
  </outline>
</glyph>
<glyph name="hookabovecomb.case" format="2">
  <advance width="903"/>
  <outline>
    <contour>
      <point x="589.6846153846154" y="1609.3" type="line"/>
      <point x="614.1461538461539" y="1720.1384615384616" type="line"/>
      <point x="651.0307692307692" y="1741.1538461538462" type="line"/>
      <point x="668.7615384615385" y="1737.9923076923078"/>
      <point x="701.3538461538461" y="1734.7769230769231"/>
      <point x="716.5153846153846" y="1734.7769230769231" type="qcurve" smooth="yes"/>
      <point x="778.5461538461539" y="1734.7769230769231"/>
      <point x="842.6307692307693" y="1789.076923076923"/>
      <point x="842.7923076923078" y="1833.9153846153847" type="qcurve" smooth="yes"/>
      <point x="842.9538461538461" y="1882.4307692307693"/>
      <point x="784.1153846153846" y="1920.076923076923"/>
      <point x="738.9538461538461" y="1920.076923076923" type="qcurve" smooth="yes"/>
      <point x="697.1461538461539" y="1920.076923076923"/>
      <point x="620.1769230769231" y="1901.8615384615384"/>
      <point x="581.3923076923077" y="1887.753846153846" type="qcurve"/>
      <point x="575.9384615384615" y="1920.576923076923" type="line"/>
      <point x="603.6076923076923" y="1940.8461538461538"/>
      <point x="720.5538461538462" y="1987.7153846153847"/>
      <point x="787.6076923076923" y="1987.7153846153847" type="qcurve" smooth="yes"/>
      <point x="872.6846153846154" y="1987.7153846153847"/>
      <point x="957.7307692307693" y="1906.3692307692309"/>
      <point x="957.3" y="1845.323076923077" type="qcurve" smooth="yes"/>
      <point x="956.9230769230769" y="1769.7846153846153"/>
      <point x="835.2461538461539" y="1671.246153846154"/>
      <point x="747.4846153846154" y="1669.3538461538462" type="qcurve" smooth="yes"/>
      <point x="725.2692307692307" y="1669.3538461538462"/>
      <point x="678.376923076923" y="1676.3"/>
      <point x="656.5384615384615" y="1682.3" type="qcurve"/>
      <point x="640.8615384615384" y="1609.3" type="line"/>
    </contour>
  </outline>
</glyph>
<glyph name="hookabovecomb" format="2">
  <advance width="903"/>
  <outline>
    <contour>
      <point x="450.6461538461539" y="1162.4615384615386" type="line"/>
      <point x="424.2153846153846" y="1049.3615384615384" type="line"/>
      <point x="471.4923076923077" y="1049.3615384615384" type="line"/>
      <point x="488.0846153846154" y="1125.6538461538462" type="line"/>
      <point x="509.70769230769235" y="1119.7615384615385"/>
      <point x="561.9769230769231" y="1111.7076923076922"/>
      <point x="584.8384615384616" y="1111.7076923076922" type="qcurve" smooth="yes"/>
      <point x="671.8923076923077" y="1113.6"/>
      <point x="788.8384615384616" y="1212.7"/>
      <point x="788.8384615384616" y="1286.7230769230769" type="qcurve" smooth="yes"/>
      <point x="788.8384615384616" y="1345.8"/>
      <point x="707.6307692307693" y="1424.0923076923077"/>
      <point x="622.5307692307692" y="1424.0923076923077" type="qcurve" smooth="yes"/>
      <point x="557.6923076923077" y="1424.0923076923077"/>
      <point x="440.9153846153846" y="1377.1153846153845"/>
      <point x="413.7846153846154" y="1358.1153846153845" type="qcurve"/>
      <point x="419.23846153846154" y="1324.4846153846154" type="line"/>
      <point x="457.7230769230769" y="1338.8076923076924"/>
      <point x="533.2615384615385" y="1356.8615384615384"/>
      <point x="575.123076923077" y="1356.8615384615384" type="qcurve" smooth="yes"/>
      <point x="618.876923076923" y="1356.8615384615384"/>
      <point x="674.1461538461539" y="1321.6461538461538"/>
      <point x="674.1461538461539" y="1274.2923076923078" type="qcurve" smooth="yes"/>
      <point x="674.1461538461539" y="1231.5615384615385"/>
      <point x="613.0923076923077" y="1176.6692307692308"/>
      <point x="552.5769230769231" y="1176.6692307692308" type="qcurve" smooth="yes"/>
      <point x="537.2538461538461" y="1176.6692307692308"/>
      <point x="503.8" y="1179.8846153846155"/>
      <point x="485.69230769230774" y="1183.2076923076922" type="qcurve"/>
    </contour>
  </outline>
</glyph>
<glyph name="hookabovecombstack.case" format="2">
  <advance width="1024"/>
  <outline>
    <contour>
      <point x="659.0" y="1604.0" type="line"/>
      <point x="677.0" y="1754.0" type="line"/>
      <point x="748.0" y="1823.0" type="line"/>
      <point x="768.0" y="1814.0"/>
      <point x="827.0" y="1807.0"/>
      <point x="848.0" y="1807.0" type="qcurve" smooth="yes"/>
      <point x="900.0" y="1807.0"/>
      <point x="962.0" y="1860.0"/>
      <point x="962.0" y="1898.0" type="qcurve" smooth="yes"/>
      <point x="962.0" y="1934.0"/>
      <point x="902.0" y="1973.0"/>
      <point x="845.0" y="1973.0" type="qcurve" smooth="yes"/>
      <point x="788.0" y="1973.0"/>
      <point x="703.0" y="1954.0"/>
      <point x="656.0" y="1934.0" type="qcurve"/>
      <point x="625.0" y="2049.0" type="line"/>
      <point x="672.0" y="2068.0"/>
      <point x="820.0" y="2097.0"/>
      <point x="882.0" y="2097.0" type="qcurve" smooth="yes"/>
      <point x="1004.0" y="2097.0"/>
      <point x="1124.0" y="1996.0"/>
      <point x="1124.0" y="1918.0" type="qcurve" smooth="yes"/>
      <point x="1124.0" y="1826.0"/>
      <point x="1008.0" y="1690.0"/>
      <point x="920.0" y="1690.0" type="qcurve" smooth="yes"/>
      <point x="882.0" y="1690.0"/>
      <point x="825.0" y="1699.0"/>
      <point x="810.0" y="1703.0" type="qcurve"/>
      <point x="799.0" y="1604.0" type="line"/>
    </contour>
  </outline>
</glyph>
<glyph name="hornU" format="2">
  <advance width="1471"/>
  <outline>
    <contour>
      <point x="225.0" y="1386.0" type="line"/>
      <point x="239.0" y="1500.0" type="line"/>
      <point x="780.0" y="1500.0" type="line"/>
      <point x="766.0" y="1386.0" type="line"/>
      <point x="591.0" y="1362.0" type="line"/>
      <point x="473.0" y="794.0" type="line" smooth="yes"/>
      <point x="454.0" y="702.0"/>
      <point x="418.0" y="454.0"/>
      <point x="418.0" y="387.0" type="qcurve" smooth="yes"/>
      <point x="418.0" y="268.0"/>
      <point x="566.0" y="104.0"/>
      <point x="707.0" y="104.0" type="qcurve" smooth="yes"/>
      <point x="861.0" y="104.0"/>
      <point x="1071.0" y="277.0"/>
      <point x="1114.0" y="494.0" type="qcurve" smooth="yes"/>
      <point x="1173.0" y="794.0" type="line"/>
      <point x="1271.0" y="1362.0" type="line"/>
      <point x="1079.0" y="1386.0" type="line"/>
      <point x="1093.0" y="1500.0" type="line"/>
      <point x="1435.0" y="1500.0" type="line"/>
      <point x="1297.0" y="794.0" type="line"/>
      <point x="1242.0" y="493.0" type="line" smooth="yes"/>
      <point x="1190.0" y="209.0"/>
      <point x="902.0" y="-22.0"/>
      <point x="675.0" y="-22.0" type="qcurve" smooth="yes"/>
      <point x="439.0" y="-22.0"/>
      <point x="240.0" y="202.0"/>
      <point x="243.0" y="364.0" type="qcurve" smooth="yes"/>
      <point x="244.0" y="444.0"/>
      <point x="277.0" y="615.0"/>
      <point x="311.0" y="794.0" type="qcurve" smooth="yes"/>
      <point x="418.0" y="1362.0" type="line"/>
    </contour>
  </outline>
</glyph>
<glyph name="horncomb.case" format="2">
  <advance width="903"/>
  <outline>
    <contour>
      <point x="206.88461538461542" y="1481.6" type="line"/>
      <point x="255.43076923076924" y="1481.6"/>
      <point x="284.75384615384615" y="1481.6"/>
      <point x="313.2692307692308" y="1481.6" type="qcurve" smooth="yes"/>
      <point x="404.7923076923077" y="1481.6"/>
      <point x="481.87692307692305" y="1582.3153846153846"/>
      <point x="482.46923076923076" y="1698.7923076923078" type="qcurve" smooth="yes"/>
      <point x="483.11538461538464" y="1715.246153846154"/>
      <point x="483.4923076923077" y="1748.9923076923078"/>
      <point x="483.54615384615386" y="1767.8461538461538" type="qcurve"/>
      <point x="530.5538461538462" y="1767.8461538461538" type="line"/>
      <point x="549.3384615384616" y="1729.6307692307691"/>
      <point x="566.8538461538462" y="1653.4"/>
      <point x="566.1" y="1619.5692307692307" type="qcurve" smooth="yes"/>
      <point x="565.0769230769231" y="1524.8923076923077"/>
      <point x="453.2692307692308" y="1415.5076923076922"/>
      <point x="337.5076923076923" y="1415.5076923076922" type="qcurve" smooth="yes"/>
      <point x="301.2923076923077" y="1415.5076923076922"/>
      <point x="221.34615384615387" y="1430.2384615384615"/>
      <point x="197.13076923076926" y="1440.0230769230768" type="qcurve"/>
    </contour>
  </outline>
</glyph>
<glyph name="horncomb" format="2">
  <advance width="903"/>
  <outline>
    <contour>
      <point x="80.86153846153846" y="929.9846153846154" type="line"/>
      <point x="128.86923076923077" y="929.9846153846154"/>
      <point x="120.07692307692308" y="929.9846153846154"/>
      <point x="149.2923076923077" y="929.9846153846154" type="qcurve" smooth="yes"/>
      <point x="241.7846153846154" y="929.9846153846154"/>
      <point x="319.03076923076924" y="1011.2384615384616"/>
      <point x="319.5692307692308" y="1119.0615384615385" type="qcurve" smooth="yes"/>
      <point x="319.94615384615383" y="1135.1384615384616"/>
      <point x="320.2153846153846" y="1169.2076923076922"/>
      <point x="320.16153846153844" y="1186.9307692307693" type="qcurve"/>
      <point x="365.7153846153846" y="1186.9307692307693" type="line"/>
      <point x="384.44615384615383" y="1148.2846153846153"/>
      <point x="401.9076923076923" y="1083.2923076923078"/>
      <point x="401.4769230769231" y="1050.7" type="qcurve" smooth="yes"/>
      <point x="400.5076923076923" y="965.4307692307692"/>
      <point x="298.05384615384617" y="864.5384615384615"/>
      <point x="200.46153846153845" y="864.5384615384615" type="qcurve" smooth="yes"/>
      <point x="164.8923076923077" y="864.5384615384615"/>
      <point x="95.48461538461538" y="879.1076923076923"/>
      <point x="71.21538461538462" y="889.0" type="qcurve"/>
    </contour>
  </outline>
</glyph>
<glyph name="macronbelowcomb.case" format="2">
  <advance width="903"/>
  <outline>
    <contour>
      <point x="22.315384615384616" y="-313.26153846153846" type="line"/>
      <point x="23.876923076923077" y="-205.56923076923076" type="line"/>
      <point x="549.6461538461539" y="-205.56923076923076" type="line"/>
      <point x="548.0846153846154" y="-313.26153846153846" type="line"/>
    </contour>
  </outline>
</glyph>
<glyph name="macronbelowcomb" format="2">
  <advance width="903"/>
  <outline>
    <contour>
      <point x="-47.51538461538462" y="-278.31538461538463" type="line"/>
      <point x="-27.461538461538453" y="-188.08461538461538" type="line"/>
      <point x="498.3076923076923" y="-188.08461538461538" type="line"/>
      <point x="478.25384615384615" y="-278.31538461538463" type="line"/>
    </contour>
  </outline>
</glyph>
<glyph name="macroncomb.case" format="2">
  <advance width="903"/>
  <outline>
    <contour>
      <point x="389.7692307692308" y="1653.5923076923077" type="line"/>
      <point x="391.33076923076925" y="1761.2846153846153" type="line"/>
      <point x="917.1" y="1761.2846153846153" type="line"/>
      <point x="915.5384615384615" y="1653.5923076923077" type="line"/>
    </contour>
  </outline>
</glyph>
<glyph name="ringcomb.case" format="2">
  <advance width="903"/>
  <outline>
    <contour>
      <point x="479.3076923076923" y="1805.9153846153847" type="qcurve" smooth="yes"/>
      <point x="479.3076923076923" y="1891.2384615384615"/>
      <point x="589.9538461538461" y="2001.6153846153845"/>
      <point x="676.4384615384615" y="2001.6153846153845" type="qcurve" smooth="yes"/>
      <point x="762.9230769230769" y="2001.6153846153845"/>
      <point x="873.5692307692308" y="1891.2384615384615"/>
      <point x="873.5692307692308" y="1805.9153846153847" type="qcurve" smooth="yes"/>
      <point x="873.5692307692308" y="1720.5923076923077"/>
      <point x="762.9230769230769" y="1610.2153846153847"/>
      <point x="676.4384615384615" y="1610.2153846153847" type="qcurve" smooth="yes"/>
      <point x="589.9538461538461" y="1610.2153846153847"/>
      <point x="479.3076923076923" y="1720.5923076923077"/>
    </contour>
    <contour>
      <point x="553.5692307692308" y="1805.9153846153847" type="qcurve" smooth="yes"/>
      <point x="553.5692307692308" y="1750.4538461538461"/>
      <point x="619.9769230769231" y="1683.0461538461539"/>
      <point x="676.4384615384615" y="1683.0461538461539" type="qcurve" smooth="yes"/>
      <point x="735.9" y="1683.0461538461539"/>
      <point x="799.3076923076923" y="1746.4538461538461"/>
      <point x="799.3076923076923" y="1805.9153846153847" type="qcurve" smooth="yes"/>
      <point x="799.3076923076923" y="1861.376923076923"/>
      <point x="732.9" y="1928.7846153846153"/>
      <point x="676.4384615384615" y="1928.7846153846153" type="qcurve" smooth="yes"/>
      <point x="616.9769230769231" y="1928.7846153846153"/>
      <point x="553.5692307692308" y="1865.376923076923"/>
    </contour>
  </outline>
</glyph>
<glyph name="tildecomb.case" format="2">
  <advance width="903"/>
  <outline>
    <contour>
      <point x="373.05384615384617" y="1705.6923076923076" type="line"/>
      <point x="405.9153846153846" y="1761.123076923077"/>
      <point x="518.7153846153847" y="1860.446153846154"/>
      <point x="576.4692307692308" y="1860.446153846154" type="qcurve" smooth="yes"/>
      <point x="613.7923076923078" y="1860.446153846154"/>
      <point x="676.1692307692308" y="1835.553846153846"/>
      <point x="714.9" y="1801.9846153846154" type="qcurve" smooth="yes"/>
      <point x="753.0923076923077" y="1768.9"/>
      <point x="821.7384615384615" y="1727.3076923076924"/>
      <point x="855.2769230769231" y="1727.3076923076924" type="qcurve" smooth="yes"/>
      <point x="900.1153846153846" y="1727.3076923076924"/>
      <point x="952.0" y="1766.1692307692308"/>
      <point x="974.5384615384615" y="1793.7076923076922" type="qcurve"/>
      <point x="999.2846153846153" y="1771.1538461538462" type="line"/>
      <point x="966.9923076923077" y="1707.4538461538461"/>
      <point x="863.5692307692308" y="1623.5615384615385"/>
      <point x="815.9769230769231" y="1623.5615384615385" type="qcurve" smooth="yes"/>
      <point x="774.4923076923077" y="1623.5615384615385"/>
      <point x="692.0615384615385" y="1668.2923076923078"/>
      <point x="668.9538461538461" y="1686.4" type="qcurve" smooth="yes"/>
      <point x="641.8461538461538" y="1708.4538461538461"/>
      <point x="569.9538461538461" y="1758.5923076923077"/>
      <point x="540.9" y="1758.5923076923077" type="qcurve" smooth="yes"/>
      <point x="506.03846153846155" y="1758.5923076923077"/>
      <point x="430.4769230769231" y="1718.923076923077"/>
      <point x="397.9076923076923" y="1681.4615384615386" type="qcurve"/>
    </contour>
  </outline>
</glyph>
